<mxfile host="65bd71144e">
    <diagram id="3lIFgQZRT7Y4vUMqVDnj" name="Page-1">
        <mxGraphModel dx="3140" dy="2373" grid="1" gridSize="10" guides="1" tooltips="1" connect="1" arrows="1" fold="1" page="1" pageScale="1" pageWidth="827" pageHeight="1169" math="0" shadow="0">
            <root>
                <mxCell id="0"/>
                <mxCell id="1" parent="0"/>
                <mxCell id="9" value="" style="group" parent="1" vertex="1" connectable="0">
                    <mxGeometry x="-1380" y="-960" width="2152" height="1770" as="geometry"/>
                </mxCell>
                <mxCell id="11" value="" style="shape=image;verticalLabelPosition=bottom;verticalAlign=top;imageAspect=0;aspect=fixed;image=data:image/png,iVBORw0KGgoAAAANSUhEUgAAA6YAAASSCAYAAACizvPeAAAMa2lDQ1BJQ0MgUHJvZmlsZQAASImVVwdYU8kWnluSkJDQAhGQEnoTpFcpIbQAAlIFGyEJJJQYE4KKDcuigmsXEazoqoiiawFkURF7WRR7XyyoKOtiQVFU3oQEdN1Xvne+b+7898yZ/5Q7c+8dADR7uRJJLqoFQJ44XxofHswcm5rGJHUAIiAAMvAAXlyeTMKKi4sGUAb7v8v7GwBR9FcdFVz/HP+vosMXyHgAIOMhzuDLeHkQNwOAr+dJpPkAEBV6i6n5EgUuglhXCgOEeLUCZynxTgXOUOKmAZvEeDbElwFQo3K50iwANO5BPbOAlwV5ND5D7Czmi8QAaI6AOIAn5PIhVsQ+Ii9vsgKXQ2wL7SUQw3iAd8Z3nFl/488Y4udys4awMq8BUQsRySS53On/Z2n+t+Tlygd9WMNGFUoj4hX5wxreypkcpcBUiLvEGTGxilpD3CviK+sOAEoRyiOSlPaoEU/GhvUDDIid+dyQKIiNIA4T58ZEq/QZmaIwDsRwtaDTRPmcRIj1IV4kkIUmqGw2SyfHq3yhdZlSNkulP8uVDvhV+Hogz0liqfjfCAUcFT+mUShMTIGYArFlgSg5BmINiJ1kOQlRKptRhUJ2zKCNVB6viN8S4niBODxYyY8VZErD4lX2JXmywXyxzUIRJ0aF9+cLEyOU9cFO8rgD8cNcsMsCMStpkEcgGxs9mAtfEBKqzB17LhAnJah4eiX5wfHKuThFkhunssfNBbnhCr05xO6yggTVXDw5Hy5OJT+eKcmPS1TGiRdmcyPjlPHgy0E0YIMQwARy2DLAZJANRK1d9V3wTjkSBrhACrKAADiqNIMzUgZGxPCaAArBnxAJgGxoXvDAqAAUQP2XIa3y6ggyB0YLBmbkgKcQ54EokAvv5QOzxEPeksETqBH9wzsXNh6MNxc2xfi/1w9qv2lYUBOt0sgHPTI1By2JocQQYgQxjGiHG+IBuB8eDa9BsLni3rjPYB7f7AlPCW2ER4TrhHbC7UmiedIfohwN2iF/mKoWGd/XAreGnB54MO4P2SEzzsANgSPuDv2w8EDo2QNq2aq4FVVh/sD9twy+exoqO7IzGSUPIweRbX+cqWGv4THEoqj19/VRxpoxVG/20MiP/tnfVZ8P+6gfLbFF2AHsDHYcO4c1YfWAiR3DGrCL2BEFHlpdTwZW16C3+IF4ciCP6B/+uCqfikrKnGucO50/K8fyBdPyFRuPPVkyXSrKEuYzWfDrIGByxDynEUxXZ1cXABTfGuXr6y1j4BuCMM5/082He9xf3N/f3/RNF/UJgINmcPu3f9PZXIGvCfiePruCJ5cWKHW44kKAbwlNuNMMgAmwALYwH1fgCfxAEAgFkSAWJIJUMBFWWQjXuRRMBTPBXFAMSsFysAZUgE1gK9gJ9oD9oB40gePgNLgALoPr4C5cPR3gJegG70EfgiAkhIbQEQPEFLFCHBBXxBsJQEKRaCQeSUXSkSxEjMiRmch8pBRZiVQgW5Bq5FfkMHIcOYe0IbeRh0gn8gb5hGIoFdVFjVFrdCTqjbLQKDQRnYBmoVPQQnQBuhQtR6vQ3Wgdehy9gF5H29GXaA8GMHWMgZlhjpg3xsZisTQsE5Nis7ESrAyrwmqxRvicr2LtWBf2ESfidJyJO8IVHIEn4Tx8Cj4bX4JX4DvxOvwkfhV/iHfjXwk0ghHBgeBL4BDGErIIUwnFhDLCdsIhwim4lzoI74lEIoNoQ/SCezGVmE2cQVxC3EDcS2wmthEfE3tIJJIByYHkT4olcUn5pGLSOtJu0jHSFVIHqVdNXc1UzVUtTC1NTaw2T61MbZfaUbUras/U+shaZCuyLzmWzCdPJy8jbyM3ki+RO8h9FG2KDcWfkkjJpsyllFNqKaco9yhv1dXVzdV91Meoi9SL1MvV96mfVX+o/pGqQ7WnsqnjqXLqUuoOajP1NvUtjUazpgXR0mj5tKW0atoJ2gNarwZdw0mDo8HXmKNRqVGncUXjlSZZ00qTpTlRs1CzTPOA5iXNLi2ylrUWW4urNVurUuuw1k2tHm26tot2rHae9hLtXdrntJ/rkHSsdUJ1+DoLdLbqnNB5TMfoFnQ2nUefT99GP0Xv0CXq2uhydLN1S3X36Lbqduvp6LnrJetN06vUO6LXzsAY1gwOI5exjLGfcYPxaZjxMNYwwbDFw2qHXRn2QX+4fpC+QL9Ef6/+df1PBkyDUIMcgxUG9Qb3DXFDe8MxhlMNNxqeMuwarjvcbzhveMnw/cPvGKFG9kbxRjOMthpdNOoxNjEON5YYrzM+YdxlwjAJMsk2WW1y1KTTlG4aYCoyXW16zPQFU4/JYuYyy5knmd1mRmYRZnKzLWatZn3mNuZJ5vPM95rft6BYeFtkWqy2aLHotjS1HG0507LG8o4V2crbSmi11uqM1QdrG+sU64XW9dbPbfRtODaFNjU292xptoG2U2yrbK/ZEe287XLsNthdtkftPeyF9pX2lxxQB08HkcMGh7YRhBE+I8QjqkbcdKQ6shwLHGscHzoxnKKd5jnVO70aaTkybeSKkWdGfnX2cM513uZ810XHJdJlnkujyxtXe1eea6XrNTeaW5jbHLcGt9fuDu4C943utzzoHqM9Fnq0eHzx9PKUetZ6dnpZeqV7rfe66a3rHee9xPusD8En2GeOT5PPR19P33zf/b5/+Tn65fjt8ns+ymaUYNS2UY/9zf25/lv82wOYAekBmwPaA80CuYFVgY+CLIL4QduDnrHsWNms3axXwc7B0uBDwR/YvuxZ7OYQLCQ8pCSkNVQnNCm0IvRBmHlYVlhNWHe4R/iM8OYIQkRUxIqImxxjDo9TzemO9IqcFXkyihqVEFUR9SjaPloa3TgaHR05etXoezFWMeKY+lgQy4ldFXs/ziZuStxvY4hj4sZUjnka7xI/M/5MAj1hUsKuhPeJwYnLEu8m2SbJk1qSNZPHJ1cnf0gJSVmZ0j525NhZYy+kGqaKUhvSSGnJadvTesaFjlszrmO8x/ji8Tcm2EyYNuHcRMOJuROPTNKcxJ10IJ2QnpK+K/0zN5Zbxe3J4GSsz+jmsXlreS/5QfzV/E6Bv2Cl4Fmmf+bKzOdZ/lmrsjqFgcIyYZeILaoQvc6OyN6U/SEnNmdHTn9uSu7ePLW89LzDYh1xjvjkZJPJ0ya3SRwkxZL2Kb5T1kzplkZJt8sQ2QRZQ74u/Km/KLeV/yR/WBBQUFnQOzV56oFp2tPE0y5Ot5++ePqzwrDCX2bgM3gzWmaazZw78+Es1qwts5HZGbNb5ljMWTCnoyi8aOdcytycub/Pc563ct67+SnzGxcYLyha8Pin8J9qijWKpcU3F/ot3LQIXyRa1LrYbfG6xV9L+CXnS51Ly0o/L+EtOf+zy8/lP/cvzVzausxz2cblxOXi5TdWBK7YuVJ7ZeHKx6tGr6pbzVxdsvrdmklrzpW5l21aS1krX9teHl3esM5y3fJ1nyuEFdcrgyv3rjdav3j9hw38DVc2Bm2s3WS8qXTTp82izbe2hG+pq7KuKttK3Fqw9em25G1nfvH+pXq74fbS7V92iHe074zfebLaq7p6l9GuZTVojbymc/f43Zf3hOxpqHWs3bKXsbd0H9gn3/fi1/Rfb+yP2t9ywPtA7UGrg+sP0Q+V1CF10+u664X17Q2pDW2HIw+3NPo1HvrN6bcdTWZNlUf0jiw7Sjm64Gj/scJjPc2S5q7jWccft0xquXti7IlrJ8ecbD0Vders6bDTJ86wzhw763+26ZzvucPnvc/XX/C8UHfR4+Kh3z1+P9Tq2Vp3yetSw2Wfy41to9qOXgm8cvxqyNXT1zjXLlyPud52I+nGrZvjb7bf4t96fjv39us7BXf67hbdI9wrua91v+yB0YOqP+z+2Nvu2X7kYcjDi48SHt19zHv88onsyeeOBU9pT8uemT6rfu76vKkzrPPyi3EvOl5KXvZ1Ff+p/ef6V7avDv4V9NfF7rHdHa+lr/vfLHlr8HbHO/d3LT1xPQ/e573v+1DSa9C786P3xzOfUj4965v6mfS5/Ivdl8avUV/v9ef190u4Uu7ArwAGG5qZCcCbHQDQUgGgw3MbZZzyLDggiPL8OoDAf8LK8+KAeAJQCzvFbzy7GYB9sFkXQW7YFL/wiUEAdXMbaiqRZbq5Krmo8CRE6O3vf2sMAKkRgC/S/v6+Df39X7bBYG8D0DxFeQZVCBGeGTaHKNDtVROKwA+iPJ9+l+OPPVBE4A5+7P8FvqqQQD0lvm4AAACWZVhJZk1NACoAAAAIAAUBEgADAAAAAQABAAABGgAFAAAAAQAAAEoBGwAFAAAAAQAAAFIBKAADAAAAAQACAACHaQAEAAAAAQAAAFoAAAAAAAAAkAAAAAEAAACQAAAAAQADkoYABwAAABIAAACEoAIABAAAAAEAAAOmoAMABAAAAAEAAASSAAAAAEFTQ0lJAAAAU2NyZWVuc2hvdMCtWOgAAAAJcEhZcwAAFiUAABYlAUlSJPAAAAJ0aVRYdFhNTDpjb20uYWRvYmUueG1wAAAAAAA8eDp4bXBtZXRhIHhtbG5zOng9ImFkb2JlOm5zOm1ldGEvIiB4OnhtcHRrPSJYTVAgQ29yZSA2LjAuMCI+CiAgIDxyZGY6UkRGIHhtbG5zOnJkZj0iaHR0cDovL3d3dy53My5vcmcvMTk5OS8wMi8yMi1yZGYtc3ludGF4LW5zIyI+CiAgICAgIDxyZGY6RGVzY3JpcHRpb24gcmRmOmFib3V0PSIiCiAgICAgICAgICAgIHhtbG5zOmV4aWY9Imh0dHA6Ly9ucy5hZG9iZS5jb20vZXhpZi8xLjAvIgogICAgICAgICAgICB4bWxuczp0aWZmPSJodHRwOi8vbnMuYWRvYmUuY29tL3RpZmYvMS4wLyI+CiAgICAgICAgIDxleGlmOlVzZXJDb21tZW50PlNjcmVlbnNob3Q8L2V4aWY6VXNlckNvbW1lbnQ+CiAgICAgICAgIDxleGlmOlBpeGVsWURpbWVuc2lvbj4xMTcwPC9leGlmOlBpeGVsWURpbWVuc2lvbj4KICAgICAgICAgPGV4aWY6UGl4ZWxYRGltZW5zaW9uPjkzNDwvZXhpZjpQaXhlbFhEaW1lbnNpb24+CiAgICAgICAgIDx0aWZmOk9yaWVudGF0aW9uPjE8L3RpZmY6T3JpZW50YXRpb24+CiAgICAgICAgIDx0aWZmOlJlc29sdXRpb25Vbml0PjI8L3RpZmY6UmVzb2x1dGlvblVuaXQ+CiAgICAgIDwvcmRmOkRlc2NyaXB0aW9uPgogICA8L3JkZjpSREY+CjwveDp4bXBtZXRhPgp0lK3sAABAAElEQVR4Aey9h3NbWZbmeeANQe8pOlHepZeUptKXabsxsz09PTP/3m7EmuiYjenu6uyqzKz0mbIpL4qS6L0nQMK7/b5LPRKkQBIgCTqdW/USFPDs77n73eNsWTTRpgSUgBJQAkpACSgBJaAElIASUAJKYJ8I2Pdpu7pZJaAElIASUAJKQAkoASWgBJSAElAChoAKU70QlIASUAJKQAkoASWgBJSAElACSmBfCagw3Vf8unEloASUgBJQAkpACSgBJaAElIASUGGq14ASUAJKQAkoASWgBJSAElACSkAJ7CsBFab7il83rgSUgBJQAkpACSgBJaAElIASUAIqTPUaUAJKQAkoASWgBJSAElACSkAJKIF9JaDCdF/x68aVgBJQAkpACSgBJaAElIASUAJKQIWpXgNKQAkoASWgBJSAElACSkAJKAElsK8EnJttvfth92Y/629KQAkoASWgBJSAElACSkAJKAEloATyErh77678y7/+i5kikYhks9m88/HLTYXp+qVsNtv6r/TfSkAJKAEloASUgBJQAkpACSgBJaAEDAGKz0wmY0RoOp1e+XsrPAUJU6fDKQ6nQ+x2x1br09+VgBJQAkpACSgBJaAElIASUAJK4BUlkEwmJBQKSTAUlKmZKQmHw5taSi1MBQlTilKPxyNOp8taTj+VgBJQAkpACSgBJaAElIASUAJKQAmsI5CVaCxqROn0zLQsRZaM1XTdTC/9c0thSvddWkopSl0ul1G7NM1qUwJKQAkoASWgBJSAElACSkAJKAElkEuArrzxRFxCiyFYS5ckkUjk/rzh31sK09wlKUhTqRSmJFTvxoGrucvo30pACSgBJaAElIASUAJKQAkoASXwahCIxWOSTFIvFmfMLEqYUv1yI3FsLJMubkOvxmnQo1QCSkAJKAEloASUgBJQAkpACby6BGIxCFMYMjfLwJuPTlHClCuwsiylM+l869PvlIASUAJKQAkoASWgBJSAElACSuAVJWBl5C328O3FLqDzKwEloASUgBJQAkpACSgBJaAElIAS2E0CKkx3k6auSwkoASWgBJSAElACSkAJKAEloASKJlC0K2++LYxPhGV0bEmmpmP5ftbvlIASUAJKQAkoASWgBJSAElACSuCIEWio98qxloA0N5Xt+Mh2RZhSlF6/OSX3H87teId0BUpACSgBJaAElIASUAJKQAkoASVw8Am8drFGrl6WgyNMZ2Zi8vDxnPxwc+Lg09M9VAJKQAkoASWgBJSAElACSkAJKIEdE7AjMPTE8Yodr4cr0BjTXcGoK1ECSkAJKAEloASUgBJQAkpACSiB7RJQYbpdcrqcElACSkAJKAEloASUgBJQAkpACewKgV2JMd2VPTnwK0mJMxsTN6a0OCRh80oWk4jtwO+57qASUAJKQAkoASWgBJTAwSVQFnBJVcAjZT7Xwd3JAvcsK1kJhkKysBiUZDIhlYFKqayoEI/bU+AaDu5sqVQKxxWSII4tnUjD99QHKUA9sGrrO6rnMhGNLx+rncdbGglZmrUe3Otp23vmhSCtSU9IVXZcYuKTWXuzBB3NWJ8K021D1QWVgBJQAkpACSgBJfCqE7Db5GRbpbx+sUE6O6oOPY1MJiMPHtyTu/cnZWZ2Ri6cek1ef+2Y1NXVH/pjW1pcxHHdk/v3B2QmjGok1AJOTDb38rEd4XM5GBpbPl7B8doDJTmXKkwLwOrAPGXZuNTLuLQ4emQxUy6pjAfCtKmApXUWJaAElIASUAJKQAkoASWwAQEY27ogSD/7uFOuXG7ZYKbD83U6nRKf+6mMj01IdKlfzp85L3/zh1bp6jpxeA5igz2dnp4SydyXof5BmZkOQpDSwk3BbQnTo3suB/seL1OxV+PzkAlTnqcqvx3me5s4UzHJRsKCq1OyaZi90xmRLKYXLYtPfCsZ/BGx+WURKjxpK7d+3vvPzBJ2Zkkc2bD4MPLht9mkyh6Wam9YKj0Oyabc4o7jKbJ6CHu/j7pFJaAElIASUAJKQAkogcNPAM53frjw1tR4pbGhTNLoK9PqmM2yh3x4Gt124/G4JBMR9OlD6OsvisMRlQDKW9bVeqWh3o/jSuP4Dl8HOh6PmWNLp4Pm2LI4NogbTMm1J+gIn0uoNBxvAsdbuvNXMoupz22T9maHnOh0iheCND02LZnJUZFkXCSFk4jRFKulcd8lX0zT6XoZzrTJlGP/hKktExR3ekg8mQmpcEJcO+xS7YE4Lc9IWUWtROM14ljwi0Bra1MCSkAJKAEloASUgBJQArtBgGI0hX5yIpGEDad0AmA39nX9OkJLIZlfmJfZuVmZgmUxEoWQyWkU28kkjw3i5hBpbsbM8rg4DQ0NmeNLQIRv1Y7yudzq2Lf7ewmFqUhri0PeeM0rgRBuMpmTdGRQJAFhypOZWRWmSZhKY2bKSF8sLIupcpmS9u0e046Xs2cWxJUZEF/2mVTanFLrdEqNJyCVlY1SVt8oi+FaccZVmO4YtK5ACSgBJaAElIASUAJKYIXAsphJwTqHZJv0MjxEbWFhQcbGx2R0bMQI02gsumbvs/CWpDCNxeBJeYiswdxXiu3R8VEZGOovUpgezXO55sTu4j9KJky9yLzV0FAvJ042SlW4TJJw502nE7B6Y/QkgQsVI0FWS2AEJQKzfgQ3YGSpVkaWkOGKP+/DaApTGQVQKbbS7pRyu1uqfR6p8HjEGwhI1uuViNMlUfyetMGVFy6++7GPFjf9VAJKQAkoASWgBJSAElACSkAJHAUCJROmHo9L6uvq5OSJE1IXr4DZPiqphBVrGoGLMjJZvWjxVEaWkilZSiVkbrZCyjMQpnBNN20PxSmTHLmgNQNw3a2CMK10eqTS55dyv188ZQFJeyBMHQ7EwVKYUsJqUwJKQAkoASWgBJSAElACSkAJKIGdEiiZMHU5IOzKy6W5sUGakME2EQpKCr7mTIKUjcNiiuBoq8VQEygUi2OKSa3DLYFIQByMKcYMxru+lOKUAhP/R0ojFIFJih9BzBXOtFS6HFLt9okfotQHa6nNH5CowyfhtBsC2imJDCympdwvC45+KgEloASUgBJQAkpACSgBJaAEjjiBkglTpN2CVTSO5LaLkvWlxV5ZIY72DijN9HIwd45vuTOeEDfmc6M2kBfisGwOrrRTdpOlN431UJwmIAJN5t4CTwhkI8Tmcrlb50bGTYhSmwvpg+Ge60cG3vLMnJRlJqXKPS+VqB1b5q0Ue5lfkpjiyBQ8Fw3IzHylzC/5JRQ9/EWCC0SpsykBJaAElIASUAJKQAkoASWgBEpKoGTClJnEsrCAZhZRegVuvfbKSrEhVlOQSMjmdosNYtBqjDtNzs+JZ3ZWfNGQ+IeX4EqLVNNIiJSCeExBxMYhLhlCzey9W4WCU5Ry7Uika6oK8W9UfXmp2RArKi7si8cvfqTYrUrNSWXmOQQpRGmZQ7z+Skn4YUf1eWUpUyYzCxUyPFUpi3HI5zRlb56VvrQV/UIJKAEloASUgBJQAkpACSgBJaAENiNQOmEKV930xLgknyQlWb9qXbRXVsFKCTHoRVZb6joITweSHnFyhVEnNLIgbekFuWBfhKUU4hZTHDMGs16Zz/okhAKpSPKL7zZqKanKRqVGYlKOXMBl2AbKqa4Tpi8EpccntupGsdd5xeMMiDcZEE+yTOx2j9gcAck4/CbR0VLSJnMxt8whidNC1C/p5KqozrcXDo9d6ip8UlvlE7eLMnn7LZ7IyOxCVGZCUcng75caDqWywit1VV4pL3tR3BczLUWSENJRWQghljfPYi+t58UXZeVuqa/0SVXF6jmLxlLYh5jMLGJogCMDL1o55qmDabmyfHXeiJk3KrPcbmp13grOCx4VgdV9DEe5jzGZ57ysGVRsWzl2H45983NSyKrnsC/TwahEw6uJuQpZbtfmWTmetedyu+sv5niKOZcr+wNXhFpce7zO/d7tPUrmg3FzbYcX86ddd/ucuMZ85vq25xtdWtmZrf/Y6NpcWXKD4wkuYh+DMVkMbfzUWVnHdv7AI6LK3MM+CfhXr+PFcMLcH0HeH1vcHh6/U+r5zKnGM+3F4y2RzMgcrucZLJ+KbTWcl3/Hfbiv+DyowfPFavFEevl5sNEzyZpx3aeey5gUci5zsW3rvsxdQc7fxZzLMjyneW/nnvecVW37z2KeSfk24vQ68G7FfuGa3Om7NXf9xbwvt3sdz87j/YJ7JlbA+2U335f5zmUsznt4+dmQxXPCanz/s+9SXbn6To/i2WHmXff+L8N7vx7v/9y+grWeYj9L/owtdod0/n0jwDIywWAQz8rgckmZPdoTJ8MPYUDj5EWiU237R2B7vckC9jcbWZJU77QkHA8lHljtVTnaOuDS2ymOlmPLahGJhNKwltp6usX5rEcahubkEh7eNX7Eo8JSyimacclwokmG0y0yhr/H0MeaWF3lmr1xIUa0OTslJxzj0uyKSA2yGXFyvOisLc+Mf8BaavNWi+14mTjPdkra75V4FCmdo14JLnog6AISRHbguWhYZsNLMh/J4Hs3MgtvLTRrAl55+7UmufzWMVzkqw/4NTta4D8W0CG+eXtUbtwdR3pq2ozXNXTWzxyvlitvt0jX8ZqVHwcGF8xy1x5MFFUH68SxSnkH+33xfP3KuiYml+TWr2Ny/d64hHPqNp1orcK8LXL+bN3KvGPji9jumFy7Py5x1qt90U51VINHi5w+VWt9JSOjQcw7buZN5tS1XZlhqz8gJM511chlHPvxzuqt5t7y91/B+CaOs6dvbst5SzLDBudyu9u6c2/CHM+T3tktV1HMubRW5vU45dKZesO/uWl7dYcfPJoy+/iwZ9pa7ZrPpmq/XH6zxWzD7aaXwvbb+MTqtRnLuTatNXrcTrl4evl4WppXj+fxkxlz/d99PGnNuqufNiRbW76Oj0lnR9XKuvv65+QG7qUbuIe3Grg5VhdY4WQJ+KWlhGF7486YTKIM13Zae2O5uW/feqN5ZfF5dGh5j1/H/TLPDOsFNj2XhZ3LXJzbuS9zl8/9u5hz2Y77mc/rN/Ae282202dsbblXLr+B5wH2LZAzyLnTfSzmfdlcUyZXsH2++1xFDDzfvsP3y6g87Z/fcnd3832Z71zOzEZe3MNjEmJt+RfteEulYXvpQoP1FUp+hJff6ffG1rz/T7ayr9AiF86t9hVWFiryj1I/Y4vcHZ19HwlE4EHZ87RHHj16ZGqG7tWu+Hw+uXjhoplUmO4V9fzbKZkwRd0XyQ49l0x0TDKe1dH67CSEUjQqWWTitTkh8pDlNjs1IfbuR+J9+lBakBypJpuWc5Wro3hLEIOPIw4pi9WIDVbNCETpJFaZT5u6swlptE3JWW+vnPbHpAVuxC3oQLssMwI58G+WeymLiuNEl7ivlskSYmCnQl6ZWqqXgWGI06GAhBIemZ6fkNG5CVmAOM1SlGbWKNy8VDmC+PabzfJf/st5aULHbidtbDwEMZyRp71zeYWpDWLm1Ila+cPvT8q7V9tXNnXr9oiEYOm53T2ZW5ln5feN/uhor5LPPjlu1mfN0/N0FjWnUvIAHfQwOrtWO45O9G8/65LPMVntcfe0RGEJvQ+hEYfV1mpdEI6//fyEfPxRp/WV3EeHe3EpKb92T0kS6y+2OXDsFLp/9YeTcuVyW7GLvzR/IOCS8YmlfROmG53Ll3a0wC8qKh7LxOSiFCJMizmX1uYDuLfYgfnf/v6cnD2zOjhh/V7I5xf/8RQdnyXZSJg21Pnl3Sut8k//9ZL4YD3dSXvSM2Ou44f8zGO18OM5wQGZv/+7s3I+p7P19V/6ZBYduVIJUxcGWM6crpO//quT8s7brSuHeO36EF7Mcbn5aBLPnnxPu5VZpbmhTD54r03+6z9exCMVzym0mVkkmsPA3nMMtEyic7md1tpSIR/9pl3+83+6sLI4B5RSeH73PJ+V+fnChamey8LO5Qpo/LGd+zJ3+dy/izmX7a0V8slHHbgXzuWuYsd/7/QZWwML3Tt4t/7jP16QutqyHe+PtYJi3peN9X5572or7rVL4vEUPljmhzcE3+eFCNPdfF/mO5cDg/OoJZmWJ89mJJTjCdLRViGfftyJZ9FpC408R98jHk+ZZ3SuZwsH0T7/tEt+99sTK/Nu949SP2O3u1+63N4TiEIfPH36VL76y1cyOjK6ZztQWVVpttXW1iaNjY17tl3d0MsEdtbTe3l9q9/AXVcCEJIwkNmQ/MhqtsYWsdXUm5hTY7VEJ4pJkhyNzWKD6d4GQetEbCljVK3mRCbcilCHlIXbxBv2izMSFVsY4hadrmWRiVhSV0J8mOphJa3Au8Lj9osdmXUzmBJOh6RzhKmJLWV8ablfHD4bBG5UIgmfBGEtnQ3VYbLJ7KIdn0kJQgWHE9hHZOIt1CXWiWMq87ulBtaeurrVl+coOnSjYyGZmUEt1y3asWMVcgydwpbmCnntUpNZpuHhlIzAIjk8jZTFL9xkeVheuFFW0t0xZ1v8tw/f23KOe4tNmp9pNTJuRDnr4ogpX6qOtWZnvJRfnreqahECAvPmbndlH+HOm7PeKrgH+tfPW8hOvpiHx8ZjXH/sc3MRw3l0NGTilDdbZU2N33Am79OwlrFzzzaC8zQEUbeXbr0bnUt2/kfHcO3geNJbCJRquHLyuuHxnDpVL+9jsIK3ycgYrhscT+7AQi6Xgs8lFmpqCEgbLIocEHnj9WZphZXdhfvM2sdkjmtY7jasvyvRubT28eTJOnnvSjs6SRkZHl00zMMYULGaC/cuLSO1tYgDf+Hmyg4VWfBeCsKjYLNGi8byvVRp9pP7OzsXk2ewIg/jXpqYQgz8i8Zrltcur8vc65T3A/mUqm10HfO65r3N62JzWYpQefBf5gQPEA74oTFGvwzu/a4X/97O/rvddimHlSqXRwQDTn6fe0UAF7pePZeFnctcnvnuy7a2hLwJC/YcXEOt67iQgYdizqUb74H15z2MwRzrHufg43YaRc4C3Mu323gt85rOfbfyOreeB3z2b6d1Y0B1Es+CNNaVr7ngQkyLcyvex/TQOYeBq/r6MgxYhc1zaGoq/8BP7vvlDAbvfvN+u3kn8z3O90u+ATKGOC2/03fnfZnvXAYhRvPdwx63C+//tff7LJguv/+XnysWn3x9hUU8u61rJA534c1aOVyBrffAiRM1ZgAyguvKvKsmQmsE82br0d+OFoEM+v6xOEJnkAx1IbiwZwdHw0AMeXHSCCvcr0ZRPjk1KVOTUxKNrT4n61B6s7GhEe/hwg0AyWTSrGtyclKWllb7OdVV1dKAailcX7H6YK+4lKy3ZfMiVrOtSxyvnxJHxeoDzd7cAjfeVnHUw1UEF4INYseGrLe0YGaqEH8ajS8LzpyumDvuEtdErTgnG8QBjz/79BQyIaFDSu2KdQhWX+lPItZtSRoCyK7r8ErW2SRLKPtCq1oK05pxTYpSu0NsAWQKRhIm51JI5hedMjLtwYQER+NRGZ8My8xcWBZhKU2hnE3O7mz73PT2zcsPPwzIfQjMzRp376PfdMiHH3Ya99yLFxtMp7MNrjPf/zQoE/NIFsV90paXwPRMWK5fH5bvfhhEjMLqAEe+mS+cqzOcmyG0OuFu/BlGgFsh6r7/cVCiPw/JUB7LWr71lPK75eMZMfsU2yJW8Bw6Px9+2C5NcMXjiPZnsGa3tZVj2SGJ4Xg2EqbF7P9JrJfX5+V34HoKSziFHDuEN2+Omu3QhXSzdupktXyI5RsocGGZ+Rgj9K2t3MdBSWIfn+cI03zroYjteTotP2D+Z883d4ujWKPFz/ehS6oxUPQWXM9qanxy8xb3FfdSjjDNty39rrQE9FwWz7caMd1vQxxxsObGzeXnQiHCtPgtrV1iaSkm9+9P4L4bgCfG9gTg0PAC3q+rnaS1W9jevzhA3QuvAL5bHz5GB2EbjeKrf2hhw4G/Sr9H3rjYZJ575+FVcRxhMxyopQswt3v7Dtzt8zR6YPA93tJSLgw3+fyzE0aM8dkT+Rki7AC8X/Ls9ra/WkCehl9/HTfPZg6cbNY6OyrwHug01zFDJ36DdwIHEXl9fffTkArTzeDpb0eSQBh5dnp6euTW7VvoU62GlF26dAlu8+8UJUwZq9vX24cwpFsYuFu1PJ86eQrvj7eNMD2oEEsnTH2wRrbXi+sdxGHUMc6S8aLQg4FyWEurxI76oCb5EUQjv3OWlUsGotUJt1WaCIyS5wKYkhG7eHrd4ilDwgPboriiS+JAf5QjK3YIWifWUVkGF976iDTVxqXMiXU7yyUChUdLKV+hmCWnQaZSmHo9MNpi5D+4KLNIbjQ87pXByYCMT8Xh+haFG++sJFIJyWDkYTeE6SDcZ77FS+wrTJs2vPA4Us4R1osXGuFWuDxxhJajuj8hDnI7rq+bbvMI/UiL9C3EwP3f/9a9ZdKX34y3wm0D8XnvtJqXYltbJZg3GHfkJ3BhHpqCdZradoOR9L3ARjfS2zjn/w+OJx7ZfEDivbeO4XjKcDxt6AxVQPBVyqWLjTietPQ8m5UBjETv6HhwH7GD9eknx+GafXLl8Pv6Z+XO3Qn55397gg7F5h2Sy7Ba0sX93asdZv+4j28hjjSKGO9uuIs/H9hcbFLMPHs2J3/+uk9uIu55s8bkMX64AJ9FHLTF4nXEzZUjyQfjoX+6OwbvDDxn9uP88pmEB5MbHhbs5OJRtabx3058TytRnJZy7iP+n6+ZDOZwr00gMRGbFWfKT2NBhbtwwef9xX5xwI9uwdwPdv65DU60WDO8wHis5NuZIr7Tc1kErBezciDojSrEf77eAuuhCxYqXMeI/1s5vxtcI8Vvae0SSxBRDzGo+i9fPJOBkeDaH/fxX+wm9CMe+y/f9cu3vwzt7p6w44D7gEmgGG/7939/VhjuwvuA3iv9iBflO/0LuPvnaxOTbRgkDCDUhO+XSgwSVsm5s/VCr4MnT2dkZAYifZ/fL/n2e7vfMbnXPQxe/M8/9sgUBog3axcQvkDLN71YOJDKiZxSqbT0guuTQXTMjxCbzVjob/kJ4K0ImxU0Aq01JWrUEbvxLtuN3aPF9Pnz5/Ld99/JyMjIyiopMpubmqEJzhgW5LGRtZPHw4mxur19vfLjTz/KkydPVtY1f3VempqbEDb0zsp3B+0PZ8l2CB0ae3m5OBrqJYMwyxiybMUXg5IBrMz8PCyaruWOGDs9THyDLL42uPS6IWh9FZXiR2asDEz5WZSbsYVD4luKSDVGbJsjiHdMjIgtPSoJLpfFhZuxiy+JbUUrJBKGeRrufwnErnpx8pD3SHiQay5riFlaaG0x7EMCll1k2w1GnTI+E5WJmUnEdYVkES7FSSRIMWb9Er3oS8ZeV1wwgQm4Kf98bdjMfwrxqidP4GVZ4zWuWn+HOBtaT5/B/awHSbm2m9m04J3ZhRkn0Rn45TruD1z3p/HiPwl3W1pWKMz+9g+npAUv/2ewLvQwxmgbcb27sIt7uoo4RBQTa/zx35/iQb8oJ0/WGCa0kNOtjsLt2fM5xH3NbWgtKdUOtzbBfbyrWs6erpWrV9qkPsfNndukRfm9d9vM5jmowH0cQwx0vjbOAatfhjmOBxduXse1cHH3Cq07f//XZ2CZrnxxHc9LegsXuwq47p7Ffp1EYrErsIofR3I1dsSfw/35OeJKHz2aljvofAY3yKScb/9247tX5VwWw4qDTx9+0G4GEJ7h3DB+cStBUMz6X+l5MZhzur1aTuFeuIQB4tdea5QA3IincK+RNe+F6zdGTAjCRpx2877caBuH9fs5hGHcgnWVSe34nOIzix44J/D5e+SjoGh93jcrPRio3A1Pn8PK6VXe7+rqamlvbzeTE6UmS9GGh4dlaGgIuVg29/QqxbYLXef4OBKn3bxpXI3Jo6O9A/3U1WSnueuhdZTH09ffJw8fPTQZjnN/Pwx/l+ZM48htLueyMK2vl6w7LhHEj4YwJTEaRjdUjrhbjZ1odhAdEJLldbCAeuGyW1+HOMqUpBYQdxoOii8yJrWRcYnGx8WemUI86YQkUA6GmjEN62csdR7a9hhGCdokDlEawmRGFfA77KNrG7ZnzLUcdQgj7mfeJUtRlGVBLN9MEKI0HMG/w5LihcqeHidtR5LAOITcz+hc9KFD99tPu0yMYXNzAKPaDbjx/XggVsifvuyVYWR0DW3hRnsQAI3Dumodz+efHofl3SUUYWeRPZfxp+3tleZ4RhDftPAKCNMEhSkSfDCT7OBQUP7wu5PGla4ZovADdOhPnqyVP3/5TMKRhAzB8rSXrQODHp9+1CmffHLciNA6ZNbNbQ31AXkXwpRug3+BRYYJyDYSpmO4jn+C+zpdGn8Hd0HGhNETgN4WtUgSY513xhkvbiFMWdaJWU9/D1YUpY0QyEaYoiP+5y+fyzW4bE8gpm4hshoLnLvfpfr7VTmXxfBjNuwPPugwnXmemzAscSpMiyG48bxOCNOzGOT5w29PwPUNnii4DwIBD0TptFzDYOafvuo1uQj4Dtmo7eZ9udE2Duv3LCl3Cx4rTKb24USb8RrpwmDYScSb0qOFIvVPuKan4AGlwvSwnuWd7TeF6WuXXpP3338f+UR8O1vZBkv/fO1nI/hGRkc2mGP/v6YwpdV0eGRYPnj/A8SBV2wsTMdG5dqNa/Cyu40Y+FkVpmtOH8SiHemXHbR8SkjimTRG2JckDh/qOJIXpWKrnRobRKTDiyQdcK21lVdIOSyeDmTJTc/MQHUmjcXUH5+W6uSwZOwT4vMsSHU51okg5TREI8c5xu1xGUcW3WCkBu67cOGFxTZLy2iBjSb00FJUgrDOxnEBpFlOIkc8F7gane2QEeAL7zknjMoy0dQ7sBAxkQzdPjnRpZrZXL0Y1YUT7EpzISlNBTr/PiQJsRotOouxpMTgkrovrqHYkWg4Ib2cYBFlp/UddKhyj4fJfZaPZ3W/rf3fq09meJxD6aPhkQVZWFgupxSNJcx38cTmrspF7yOShDGOlFMM2z0PNzq6u7a0lBmhfvaMYHRxQW7cGttzYVqHjMMX4Db+mw868x4WXTY5nUFSrgkMjNy6sxonsn4BZst8zgnXMQcgOjoqjQBnjG1jY5Nx+RyH6zKT5QwhM2gIAmaNxRwDg8x6XI6kRqdPVCO5TpOJ/2ISljCup0EwoqWUopSlq/alvSLnshi2HDzjxGtk+Tre+BopZr06Lwa0MXB9DIN6byLMgB4NVgui9jI9GL65MZS/trg1Iz5z70smibt8+ZixEDJkhBOthd1PplFH3SF7OyyWs5P79GcC70m6hHNiWT26ptM90XLrrcV1Tat02Yukd/u0m7rZfSQQCATwLuuQt996G++w1USiu7lLTDbE0jQHQZg6oIV4zA3IwUNNwokuufML82YaGxuDJ0EN+qatUo4QSJa48fl90Cvplfl7e3vlwYMHcvfu3RVMtDabeTE/La38+yC3PemdZiAgk8h2FUcioTjEaRQWSf7banS9dSe8eMgnJQXRmk6+6JzCYpqNRsQeQ1a4bEZqPYgzhXCtRiHccMCP+M+0JOBLHYPxNRYvk1F0aucTKMqLFXMNGZpiC2zMYBVBJjAjSpmVC65r2pTARgROIVboNbh3neharTs5gYRZD1Da484Tlr9ZjvXbaPlX+fspiNLrt0bgOpMSLyy6bPSkYI3DCYyOa9sZgb6BBaTa78doaVQuXWo0McZWwhzGjN57MCn3cZ3Skmw1D7KOvg5xw3jk17HMuXMNGJRx4GUdwktuAhOua7jv0lKqTQkoASWgBJSAEthdAhTfjCNlzCtruT599tSUzrEyBTMRa/9Av3z/w/cm4+7pU6dRMvE0SkOG5NnTZ2b+Jz1PzG+5e0YRe/r08rxcf1vr6kBb7nwH5e89EqYZSSGGNLGE8htIWxyDOE0wq+6LZocwTfsQzwlxyO/5yZaF1TIbR2kYjBpQmNKiWpmFBbYsAGNmWuI4SXFYNZeQ9GN0pkwys0mZjwQlCrEax4SQ5hdb2PpjObkHBSlULr2M1X13a2iv8Bwn4OL4u8+PGzc6C8MTxDKyvmM33ClVmFpUXv6cDkbkFyRz6kZyKasEEV1Fg0tx1AvmsJK2nRDoHV2QWbguP30+Y6zDrch83AV34LffakH8aR3chv3GdTlXmPoxQHDhPGrS/t0ZiNMmUzKK3gIsw8Hsx/+KerOMKd1r992dcNBllYASUAJKQAkcFgJ+JIU9e+Yscpu0ohwVvbvg/QYLqCVMmfeGwnR6enol0y6tp7MzSD557w5Cfv4iQYRMMrtvbitHvp9z586h7vDnSMJ2zFhlc38/aH+XTJhS6BFmBiDpnsGkRv6aOrjs+mH1rJQUgFuNrrxO1D11uuAaicRHTqfbWE2ZIEmQrddeWysuv1ecVQj2hRi17KAJCNgo1uOCi15Z1iPORQ+SJSWxTcSmQiAclExb1nHSdY/lPEJblMOwgxeFD+sn0u2RWWZnZsPIiDgp40h+klIXYwvpvn0mYJ1fREd9PiclPrPRsnZb5igPamCsh+VrWPePZVdY5J41LhnT2IH41SuvN+W9vsllCiUZphYiSL6TkXkMOLE+a8kbstrWI2ayHm5hlyC8GD/M2qasfzqDeNwZHAtrKzKb5F40j98pjVV+qUdCqtOIb6XbLePtuR/TuM9zS+0wzooJkciXrM8g3o33/zQsoZPgSFe4fI21EScwLUYT0gVL57Fj5SaTLs8VkyBdgKV/aChkMnxby9NtjllHaSnlc2p6mhn95lD6YQxeAFNwDd+7enLWPr30+Qqey5cY4AtmdJ1G0ja+E3jf8bwywZn1fpnDfUWvBN5ru5mwzQO3U15Lb6CudgOukUIba2ZOYZ8Y513EWHGhqzfz8R45jwRvrINZaOMzaRLPAHLKbFFWrNB16nyFE2BtWOtZeBaJ+mprfabPZj0L6cY7DDffKMJjtCmBV4GACxqoCmUzOS3Bw3RsfMyIUApRuvOGQsiBg6SwnCiEjvUcM26/U1NTqFSAbOmDAysilm7BrFnKON1Tp04h3OMMckYcN668B51lCYUphCEFIlx2nX6HlNc3mdIuGXTCltMzv0DDMFDTkbeJDZ1eP0rJeOFjnY7DWuqDT3nTMdQ5DSALL8yYmCg2EQ5lpizWnYL/tXMxIi5k9PXMwjVwHu6/dsxny0gS66NDZeF209KeLgb2/xbZ5s7gIbxZo5A/c6bWlNRgJ+Thowm5cWPUuOA9gfsdk4Bo218CvXSX/KYPrhOzKztCYdGD8xN7UbJj5Ycj9kcv4hi/RDKeccQ9Mr0/Jwqbd1Byh0XTOZiyvjGmlO671yB0ZiFK96oxvvY8rITvXjkmLBPDEkx+P0pDIb71BpJe3UDMZDdiiEc2yHa72/vJjthVxP1eBbNzqKHbDpfw5Vqes2Z/+sHWaifwvLh6tdWIVyYC+QzJuVhm5zr2+frtURmJbh6VxuvwMdzKKXyHkPjpChhcvdJuYo8/+ABZgOtXxQUFzhkkyKpCJl+WJ7p1m2xG5BEGIFjf8SC0V/lc5vLngM6viDdmRthjyMp75UqrEaUnkDTmd0jUw1h5c6/hGplCGMxuNd7br6O0B+OOQxCbhTZmsOU1e+0eBn9KMGjHxInMtv279Ekk+2oodLeMqzs5/QxOC4m9GZgqeOdegRlrK7zyDuN3kdfhwoXl2rDL2b/nzLPw9p1x8z6d32Ig/xVApYf4ChKoralFn+V1k+jo4cOHJm6UwtRqS/A+7X7SbRI3UcQyEy+1ldUocru6ukzyKLrvHu88jme31/r5QH+WTJjyBUSX3DSSHDkq/FLZ0CDltXViRxCuHcBM6meaPiFMGYOaQnxpBmKUoswOpZ+Kw6IKK6utxSuOLILisQwz/dqQVAlhUkaY2nBiMqhBGp9bEM/MlHj7ZsTnQCcqY+P/zTwJqNKDMt5Gd7q21ipjzd3qqqBVhx2xSWTRZO24//XHJ3IfIijJ+Fcqbm37SuA5hA1rgjp5Mb5orGtnzg+StBzl9mx4QfqRQOcRknawRibL0nCw5fI7qPWHjms+T4URuJcyppTuu7MQqXvVmLSKCY/+9m9OI6EPE0Et31fj40vy48/D8n/+z4eIVc8geUBG6ipLnxCAlqZ3IST+2z9dwqioz+xPDPHIPT3T8u9/eia/sB7li/YhBCxLF72N2rSsnUjBQTdb9u17UTpmBAMDm7U0hOn93hnphtgdxDkLBFx4STWZ+rasiUyRajWr3in5ULTfvDUq/9c/P5IJWt3A5iC0V/lc5vKn5ZF1jf/f/++xXDQW7jIzOHSiqxYDHdXG6s1as6yTyYymu9WMMMXgDsUfBUSh7cefBmDdjcq1B0iaVYJLCV0GxPrX4h6pLupaHRyaR06JpDzGwNTCggrTQs/nbs1Xg0Gwd95sln/8x4tmsIzPHvNsgwfLn756Ll//MoTcAzAy0CihTQm8YgSYpIjZdy+cv2AyEtNqyphTq1GYsj4p656yz8X409y+l9vtNsL0448+Nm681FxGd1krOMCfJROmcVgyZ1DctffnWVmqdi8jwLvMX1ONqVZ8VZXL5VwgQhNIeLQE6EvTU5KxEh/lQKOY9eIk+WGS9iA42AuR6oVIzU5PShZFaO3Dw1I/PCtnF+fFnV2EEEXsqT0pS3DvDdoqZU4qJJh1yAK2v58ilVkx6ZpCN6ytGss70O2OcV4dHVXyHjqzZbD0DCHma2ASoyYqTrdCWNrfIT5ZCByFj0q7nYO49hfHPo0O8n0MmtTW9CJAfzWRjrXLHGQy2SdxHdMllaLqryBKR3LKskxMLskgrunJAu4Ja70Uwyxj8smHHejQrC2xYs1jfZajvMPbbzUbUbc8Go+stLAe0lr6FNbtKFxe97Ix+RAtTuWoFUorJRuFKa2mdEOkG67VIpGU+Z7/5iAVJ4oDLs/1bNmoHfCcSOKZyjIzt+9M4EXnNQMJfLa0Q+xaLYptD0G8DmO6e3fCWEqn4d68m66g1rZyP/VcFnguc6DxOqYb6iKuFWZLvn5j2GRUtu61Orj1MunVH+Yi0ozwj8GRF++MnHVs58/VayRo3IkLXQcHVuldUSrXJYoZ691KN9BC2ySePb19CxIuwv230HW/qvPxeXv+XL38DSz3dCnfrHV1VsnFiw3G22YRVlE+f/hspifA4HBow1CFzdapvymBo0KArricPB4P+lFt8tabbxnD3fjEOJ53E3DnDeHdjuz6L3LyWMfdACNgc1Mz3u/tqA98HjklGtDXWPWOsuY7yJ+lE6ZQ85M94/I0gViYstXOe03HcantOi5VCNi1O1yYnBJZWJDpp09kGqMBydjLDzOXxyvVHZ1Sg6myrk4yPq8pRZMe7JPso4fifNotzXjJILOStPuQPAnmbE5zqSoZTrbKcAYZe1MOk9dolp21fWqslfndd/1yF3FfmzXGmH7yUYepb8ii0+xkMJ06O5Pf/jCARE9h09ncbB36mxIoNYEIPBwewtWTnQoKnvXNiZjATz7qFPfHnUi+U2sK1LP8SW4cJd1Fv/1hsChh6nbb5SysoBR27159+XmRux8sx8AOO0tqLNDSdHtMvv1+ABnvZswgT+68R/nv2cWY3EbWY8YlXoXL9ccfH39JmD5Cpt5vvxvAYMOymInnGSTcbUZ6LndGdBRlkH6A5X8IHXneax/jXjsN13WWIaqocMOCWinf4Hofh0jdaeN9fh+ZmXmNFJOdmWKR4rhUme5pJejtm8V+9SMeerrgw4ygdvHgcBAl5lbzXRS8sM6YlwC9QN5+uwVhAmWm7nLemV58yT5NO6zcHGjrgwfIjz8OyneYhnBOxqbRn9OmBJSAIdDS3IKQjSvS1NwkN2/eREnCmBGm+fAcazmGslSX4b32hhGolSjZedhayYRpAnFkCyODMhwalEXnqptMFCo/Y4c6xIi/w+URBxIdLU5OyUR3t4ze+1US8JVe39z+MlP/1IYXkDOZEHcAyVaQZUpQENfZ91Rsg0+lBZ2oahfsVxWZlcUnkdDgaRw1exLw9UnaBAYImV/92biNcLR1ORCVf5S20RrxI9xTvoK43LShQ8/EJ+xc0MrEGnWc+NBn+YbvEa+zpgbhpivTH5VAaQgwiRHrpXLK21Cgnp2Orq5q6exA7a1jVWai2yjdtmgto3Bkp9qU2DFuW7gPt3AT5HLscLNOazEuhbTO3oE4+1e4zM7sQkc97zHn+5IhC2BBt28vPCC4/+sbv+NvbtQStRrZbTSvj78heYhJhEbX8S0eX7QMMwsvJ1pneU5yWyyWgtV7Vr5E3HQ3YgL3qum5tMNNq7hzmXtu6BbP6deHExhZd8CToEo4mMn77dTJOpM4awqJrO7Aasnry8qCnbuOQv8OI99Bd/eM/MfXvab2ZKHLlXo+vsMHkZzrh5+G5Fu8X7XtHwH2W06dRLxoZ43pXxWyJwwVGEDOhp9+GZH/hezf2pSAElhLoBYJYJkQqbmlGbHxsya2dO0cq/+qg/Hu/LnzCNW5aiyuh8V9d/UI0F3K/cdu/k0rZ2VLm7R0Vkq1f1UN1iIrVC0K5lag6LsdopQWUxtcdevDp9G3QsKinPqm1v6wTExtRxesph0SqKsXD4rD2pGlV461IgtvCMmOEDcGt8osxGk6p1NbmQ1Ic7oJnVe4DmccUofd6MRbjJ3ZLMrPRGNZZLjMysRcRsLMpgofbSZY0qYElMAuEMCtxIy3f/4SHVl0PKzW0BCAO2ktLDv1xppJSw+tn3St7X4+t6VoTHDA6RniLSCkpmAxKrSNwZX+4eMp3OsvJ2cqdB3bmc+LYzuP+PLTEApvImsxEzBRmFuNf/O7v/nDKZO12/r+JJLZsLxLrpigkD8HV7m//avTxj2ZJWEew9qwUYZea10H9VPP5e6dyz7EEn/1dZ8w0Rjjvmk5ran2I/b7GN55GYiFauMCf1CvBd2vw0+Aibn4HGdoBxM3Ftoe4bk8gJhfbUpACbxMYHx83GTc7UV45IMHD2RhfrU/tX7usbExuXb9GjzTlqSzsxODlPA2RSjkYWolFKY+qWwtl5bXu6S+0rHCJNAEt9SmJimrRSIkOzaPZEZOCE0O+bsRP5rOKSNjLeRwu6S8oQkJlJrEj2BgD4J6nai7l02jg0lLAUrMGGuqEZyrpgN7FgmTsn4pz6KshSDeDaJ0Dj9nUAOVmSoXFpAgoge1U5EoIplOSBy/a6C9RV0/lcAOCeB+6kFneQEZPH9B3JDVmIwomz1lRtXpnk7L4CmUQvkCo+VzSEKylTWTiV16kLDk3//jGbLOFu66xxg5loeIIuHJXrZyL5IOXWyUv6bwhKhkvO1LwhRCgiVhct2cGU/KeXPjSWkVO4vsuSwPwhjRL2D9HUDM7mEVpnoud+9cPsXgTzCEuncYqPjr359CbFFAGjG9A2HaiXi+QGC5/NBeXvu6rVeLwALKcLHE1Bd/hlcKEl4V2uaxHJ/N2pSAEniZAMvG3LhxA9nNr6PMHvpUCH/cqI2OjSJfRQT5Ioblw998aErGqDB9Qcvp9sAqWi8NZxqlsRrCFAG6WUxeuOD64JrrgZWThXhs+K8dNUxt1VXiQb0Y2itN9l3UMGW5mSzqoHJOXwCCFALWi2BgeMVBkGbE5kasaU0d3N2WM/aiEKoRumksl4Fo9SCDbQVEqBMilBFw9LRuZPxp2m5q/UyhGs3cdFYGvXCzc8Jam0YWYcyjTQkogY0JeMtcUolEXGW+5eQ9nDOGuq7BpYTQ3W/FFReDQBxBX1+vlB4Lb73RjHswa2I/Gf/JbNUUmxVInrFV43ITSOZD6+fNe8j0ecCbDy6Uba0V8iZKI5xC7VKrUYQybm8pvBzj5oWA5ZTbWPOYU6DMjZhBj5Ths7m53Ex0g30AF05mqz2sTc/l7p1LxlBzmkfSqgvInMuBGIpRTrSWatsjAi4bno8eqcS9muuK39S4XO95j/ZiXzaznCArKDeRQG2qiERU+7KzulElcIAJxOIxCYfDZmLm3UePH6FCx8OVPaaLbhmMeZyYkdeal6KVE7P40q2XMadMoGTNexhce0tmMXW6neJD0G1lS4tUlaF26fycpKHinajD40TGXhtceFH7BZNNHBCQHohWO6ylNkC2wwJqR2HYTGgB5WCCrCguzuAC6pUisx8ELV1308xKiXjTLMrRZGEBsXlrxI4aqFmI1yS2EVtalGg8bmr8RFHjNAnrDfWsC51iO7bHybWIT4a/pm2w4ECSYh5tSkAJbE7gNGpvvoGyESfgnmq1cZTOuXN/Um53T5Y8k6u1zcP+OTQ8L/fuTSJeZGrLQ7lwvhE1JJuMtXTLmXWGPSeg53LPkR/YDVaVIRM4ckO88VqjVCD7ttWYgfbYsQrrn/qpBJSAEtiQwNzcnCkH09PTg2SNPRiMn1gzbyAQQAjQGfQJzqKudAjen08wuN9jwjY4I7P19vX3yXc/fCcTkxNmPs7P5Q56K5kwdaCkiw9CsYrC1IWyA5GwpAAKsl6EAhQxocsN1koITVo9PVjGDlddJwStE0G+KSjJNErJZJIQpzGIUsSf2mABpVU1C0FrM8IW1gJaTCF0HdU1koZFNgWLSjgclQiSfDB7VTy8CM25LEzdxmJKV14I06WsOGIoO5OGlcKIUhWmB/2C1f3bfwIUpL/7/IR88EHHys48ejQhMSRDeoj4oleyhM4KicL/GEb2yW++65c/IZnMVu3v4AZcW+tTYboVqH36Xc/lPoE/gJuthgv+W280yn/+TxekCQnarBaAp0kZRKs2JaAElMBWBChM79+/L19+/aUEF1CiC4a93EYL6Lmz5+S3n/8W5bjGYb+LILZ7NXlYAjqrr6/PCFrGnbL0TAfz9LzKwpSi0YlYULfPL246yDKxECyeWQjTLABmYc20GpMfidcvdq9PHBCmLuhDN+rusA6iDfOlMRqQhQU0i2De7IsYVEpIG4QsNiI2mKmz9fX8xojUJMRnFGVnlrBcPDgnMVpd4frLRoFqysnAvTe1iMzAqUoJuANSiWyYXmT1jbrhzovlTRwqRTAmQda4g2pNzeB4JiYXYXkZh7neKQ1I097YGDBZfU901chHKA0xhFT9E4jfCCKOI1/z4YXZXFsmTVj23NlaE+vG2K+pqbBMIW37A5S3YeZUumsetVYGN7cmxOs1IpbvHBLQVFfD4m6OHeWOcPwPHkyYY4/ju8PQSn4ucYvRNbAJ9UNz3QPn5yNSCVdTh3HRPwykSryP4FSHxDO8p84ifrYD8aDMihpCvC3vKdZQvHVrTB6j3M7QGEppbNEeYT7G4/rhQt3QgHscsYN+uFJ3osbxu28fk2e9szI5g9rRe5lteIt9PjI/H7JzyWcVn9e3b49iDDiNa6XMxJuyDq62wgmwHzCKhGl3kcmbLrkN9YjZxbuVLvWnT9bIx3i3jiKkYAIuq7yvrcYss/MLcRnDfV2Gd6u1HPszbDwnTNrG58C9exOobY5+yspAPWZA52YSv/O9G0BoA7fJ9zrd+LtQv/kDxAwPoH7tOO53um7nax4kXGvBO72xzg+3bmZn9mMwPmPe6Vz3E8Tmcx0RZOPWdrgJxNFHZqbW2blZ1DdevQ63c1R082Q8Ym1NrXH93M46dJntE8g9lw8ePpBnz5/J6Cif48vhPnb0r5ihl+fnxIkTSHJ3GhUK2hEC5DU1Sxl/Oj0zba4HWlEt9143wiVpUeWyHe0dUlO7fI6tZ9L297g0S5bMYpq7u4wtpSDNzM0bgUmraRb+01bLMjMvBCyCTyWLlMgrohUng4I0A9jZUBATOnBw37VaFjcRxWkWJyUTajTrZFxqMhqFGJ2X8PyMxDDqEMUEhWkWQ3ojSUPMMUthLO4TZ6YCrsblknb5JYEHdxyW1Dj2Nw7331gihnniksjiZs99cVg7cBA+oZeeIvMp8p+aUjLvvduG2o7tJmnK1attxspyA+Vlfr4+Ivc2EKYUpe9faZX3MD+zpbYeqzQvzyc9U3Lt2ojcwcuTHd/wEXyJNUOQvneZx95qMlm2wtUqjqytdK/85ZdRuYu6fU957KjZeRjaq3wuD9T5QcmnMxgYev/dVhTGbpGTiC1lh3Yandjr14fll2vD8gRZhYdQ/qmQNgDr6l++68PI6CLub9zjuM+rKr0mbpVJkm4j4cgvWO8MBghMQrhCVqrzFEZgP89lYXu4Zi4+qx52T5ln+NBQSN577xjqYHuRcEuF6RpQW/wjhTJMPc9mzZj0yGjQvFffK2szQvPdd9uN2Lt2YxSJ3YblYY4wnVuKm3cmY8jfxr3/3nttpq6nlV2bpZke4/xcwzPgLsIf+P6Orhv07UXSuD/Dk2IU4vY9bIv3fC1i8S9fPoayEV65hUEHvtNvbyBMG1Fa7irqifKdfvZsHTqvVbANMJv5DN5rw/IrxPbzvjkJRVf7U1vg0J8PKAGKD7pw3r1/1yTG2clu+hAK9/prr5samLTIadtbArnn8tmzZzI4NGi8O629cME79HjncYT1vG6spe3t7ZBNSO6KWFLWLa2B1+i9+/cw4HXPuPday4VgFHzc/dgI1QvnL5jlKW4PatsbYcpkRIuwdlJgsrwLxCZ8bFeZMN4UCZGymGywfFqilQI1Qysp4lOzCObNIuYUb9uc5RySRXZeG8rJZBfbJQNX3wxEZTIalijmjWAUKYLRg+gMXi4QnGy0tPIvTtEsXIYRc1oVKBdntlq4ZsqPMNyOl6JL+FzGk0QCJshZ/HIAG/b/GWq4PRtZkB6U2vAhecqFC40YWa0xiWVYKoClOIbRAb6Hl2G+Rmshhdn/+O+vmxFe1pnkCPCTJzPyb188letIsJLFdqDo8y1+qL+jRYvi4X/89zfEB6s5j52j0N2wUP3rFz1y6/HkoTr2V/lcHqQLkSORp2BV+cPvT8pvPug0mXV5bXHA4zoyFP8f//xQQhE8cZbHy7bc9cHxkAxOhVCvcsqUjzl1qsZYYSl6X0e8LzP6Tk2H5Ze7YypMt6RZ3Az7ei6L21UzdyqWlocoI/SobxbP/SCEjFvefKPFWN+2sbpXdxEKU9Ro7kEs+DOIR7/PLReRXZveD7RAXsGAJr2UhvHufYjEbVYLQ5DexnvjV9zrs/BgqK/3o6Zgm/UzIpJQUxiJ2/7l33vkNuPL+QxY927txUBU71hQHuEdzBJRFJfnzjbIO2/7zEAXB6PGxpfkNjx68rV6eAFdwbv/v/3TJVP/nKI4jpJ4TDDHjLk//Dp6qN5r+Y5Rv1smYMQMYhC/+vorY13bCZcKeCzS5ZPipwVheNr2lkDuuWRWXRrQOFmNFm2em48+/EguXbxkzhWtqD54m1KUvvbaa4hsdBr3XVpbrbYEzdXd3W0GMILwIKXFlEL2oLbSCVNYJVl6JQtLow1uug5khmKiIqQKxGdsxSXXgEEioyyy+AomW2urSBViRaEDs4hRtbW2m/hRG0aFJIKahXSpRKePzcYESJxQTsbRflwciE3FmwKlaOqlrvMEMgBXShxCOElRTGGF5YwwpTsvppj4pD7bJu22ZvyNUjX4kY4ts7MhmZkZRVarYbjquCUVd0sksTZbptmBIv/T0VEtH/+mE5YOlsfZuLEDe+WdFuOyx1pgg6jvNYAR1Dt3YL17PmvK26xZmseGa3cuGJV7cP+p+mMPxGmDdCITI1+i/PwInWMvRHy+Rvdd1lGkgJ2ARWaAQhcjqzdvj8kEOrtZxOqWopHDG0jo8r9DBOeWydhqW2PopPfhxT0TyhncyFmIsXhvv9Usi0soBQS3qc3aBZTvYM0/Hjtdr5aPfRrHPi6Tmxx7GzKjdmIUmi6VVlsAf1q2+tChyKDW5m41lgZ5600eTwKdms2Pp+TnEpfaADpr337Xb+rUdcCVtBPXdTHn8tTJalgQa0zJlFEMmAzCpawXVulbsPpNH0BXVLotv3vlmLE4QdE4VAAAQABJREFUFHpOWQ7mXXghtLQgmzg6r1bDY8esx7juoeNbcHtxj8fw/KPlg+vhc4IT3QzZeTVlZcyzsYj1FrwDR2PGw3cut8kdL7MsJj7D+Czj8+0U6gbT9ZtlhrbTyrCOCxfqhfHOE5N4H2+jUcTx2T2dUxqE4Qdd8NI5jn3LfUcNDi9IP5/zWzwTeMnzHffpR8elDt4/22kUkAPcHt4tkntfslOAR+4MsovTullZ+QQucw2I1ao2LI9jAPiTD48ja/ZqkqPc7V/Ce5i8zW354gc+D06gRvFnHx83dWa53V4MIKx5Z1jv9KUYso9Pyxdf0KUvZI6T73Q+d3/zPvpGuSvO2TCfsSxNRVfgaVwD1jP2xq1RGUMYQane6Tm7sKt/lsPbhNcIr1+Xc9nyz+zurH3aNxLEYPKqB15FhVdOtFWavo+T/UO0FPqihgGupxCyVluN1ucuhEh0tlebZym/T6LPyn5AH87JYo4l3FrmIH4yZwqT3Vgun9vdR66D62LI20FozC7LbLS05DKzbCkaLYx0fz0ozTqXzLRrtcaGRjNQQDfcixcvGgupG6GSVuNzgALVif+1tbahdvVl9Anc6NOOwetiFFGUi+a8ct1cb67YtdZxkD5Xe0yl2Cte3Hgg2AN+cbZ1iB1CkS6xWTMCsHrh8xmcRQcrg7hUO5IXIVhteQCxEg+LTuxifaPYcMPYUgmxL/fIIDKXHzimh4aT4qjGvJif8aYVjQ2oieqXapwgWlDTlvuvDRZWvMQYa8H4kRROYlzKzYRUSGbgknJibLgXD7ER6R+8j4RN9TI33yIR2d7LPBcr40PYgXzjjabcr1/6m++aY3gINzWWo/OfMLEm33zbJw8eTckwahbywZmvhVAe4D5GaufwEh3Gw/rTT7qkpbnClOL49FM7XlR1+RYzltVj6EBzVJUP5G++6ZMffxmSEWxregNXobwrKvJLCi66JrH8BeM6C23X4LKY/XZAZh7nF6aM6bkKd2Yy5Mtrs8ZSJXTfZQefgusvf+mHi9QQLA049g1cn7m+LrwgPwffNyEYrdbXh+Uh2EbREYjmWvatGbb5yVqWdMtmRkeW19is8XhKfS6foV5iHIJ/cCgon31y3IjSYs5lFdzMeCwUb7xOvwOz734cNFb9yS06oZsde6l+I88PP+w0nclCt8HricfIa1HbwSHwqp1LPsNuYsCHeQjexzPxs8+Ob1uY0kr3GqzzvNc5YLqd9v0PA5LC/Z4rTGuRufZtlI/is4Trttpf8B7iwOLWwtQmJ0/UmnrIb2FAcjuNMZdff9svQ1PowOUK0xcrC+I9fBeeQzOzYcTvBuXzz7pMzDeFktPZZQaC822Xx8PQmFwBybrN55Flm+7VjBv/y3cDMgYX/3Ced0YUYSV0y6bw4rPys0+Po18QMM/4jz7qMAN8+bZ72J6x+Y4h97t6vDMuI5b+cxw/cxyw8dr4BucsEk2tEaaNGJi+CmvxZ592GS8ozhvFPLyelnAec4VpE8OY8G79FNce+2ZsHCT/+pt+WUQZr8MiTM2OH8H/zMFb8sGDB4iNpqdQaUIRuG5OB7k1NzfDQ+OKvPXWW7j/m0xt0o32t/VYK55JTiNkr1+/jnJ0S0aYbjT/Qfy+dMIUyjyDjLppZJPK+svFDjddTkx0ZKPSZ2woFJjRrqg5moJ4TMcxSda40+KJsMyrAkKVmXoxSuZEjAwvTrvdAV2KXYfoZDIkxrBajcmSfAj09cGsLTVIngRrgnCEjRc1XIazEKdJxo1iOdY6zdcqnHGxZ+YlEZmViVG7eJxYVxGNwjcCkUgLGl9CVuOo9WkkQuFUaKN1kLUKv8LL/DkEwWaNLly9EJacWBuxsaEc5v5G8yCnKOa0WWNyJFpKKUq//H5gs1nNbxQnrMM4lyMmgkGW6EFeVp5Yq+FPxm2un5c/NyNrIadiGl/StAxzVC+KbfFFk7sPXBfFJqdCG913nz5dPvavfxzYcjGKxfPn6+X999pX5i1HB6sH63DjmssvmVdmzfsHkZFTvuNhh5pToa1k5xI7MIHkGZz6IEyr0WGgxbm8HPU1izyXvB6ewwPgZww0/AkDL/kaR7rDuJaZXCkWW7b4h0KolxpOFmXBzLfu9d8ZLwpcT7yGc68nWiTZAeW0nZa7Lp5bXrPbHZHmQEu+a54see2YB+oWO8lBIHa+cveLzyo+s/jsKlXTc7mWbCHnsuBn7NpVr/wrinvnCbwROGVwaltby+UiQj2sxvMejeG9u+68JxDzuIRYydxrhMvwucdpu40eOb+ixmVu8yOEgvcWByk5GGs1ZjpmLGRuS8JbgKJ4Ae+q3BqhTDJ0Bs+h7TYOkjHBmAMDSvmGSJO4Z5/Da4kThVALBlNfu9Rk3u8nYf3ktFlbn6SoGpY6TkwS+RRxrG70UfLZoGlFpdWY0xzee0xkxVCdGiTpo6cKp81aIc/Y3OUTyZff03yXsD7p+kHeBJ4ji4trnyPL89Iik/P+z93ANv8uR+KnE+i/0H2aVk42Pu+G4G1zA55duY21sBnKdBUeK5aI5fNuAP0nDtLktgoMtpzoqkYcb9uKZwv7F2be26O5sx7YvznoQWsis63SFXcnrRyGISbSofVtv1ru8dBiOjk1aaZS708V8tscpGPPPZeMJX3jjTfkw998uCWGhoYGeFvCqwPWVVpKB4YG0Kd8oaewtB+JZV1MHHuA26pq2uWdzMD1NvXsqcS+n5Bo9epm7LV1Ykegrg0XQQIP5SReBBEqehSDDU1OSho1Sdc3lp4pg090OYJ1/bj5PBC2XohPxp6msUwGF26+ZoPftb2aNVErJFMWkIwPhWixrvnRMVkYH5PIfH6hNzI5LEPjDpkYa5PgZA0egKujuPm2s/67ebh/3L6D9My4uSsrd+Z+wIckX+QLRbqUTCFj3/WbI+YF4fUWPtLEjgCthYU0Whi/+gsSsiBzodXG8PdDxM+sT+bQhxf6l1/14kWCDMk7bPcfTuFmC8LqjfhaCJv/+NNziMrZHa5VcM7GYSVevYE3W2E/j/3rPhlBRkWrMVEFOzfrj936fatPupszlulPf34OwcaEVjtrpTqX1l6ZJCs41/5/e4IMs9t7iVvn0lrn+k+6IjLBCDs61og2R7/pZp5rdVm/3Hb+zfPGa9f/xyfyK2KwStH6cR+wI5rMY5UpZHtJDPg9QZzYv3/xFMW2V0d5uc7e/vmC4kvpyvfjz8PG4mBtk2Kczyw+u0rV9FyuJVvIuSzmGbt27S//i8+2738cMoM61q/z8zGTqGcBHffcxpwE334/aAZpcr/f6d/5nrEbvS9vIGs1r9XcNgeRdAvXKTuvHAzbrVbMfcnr+BckHmJyJAranbSN3pf51jmLwVNLhDFDb6Ftq2ds7nr4Xv3muwGEM62WpmD2YK5jcV2iJF6bX8MKOQlrvNWYnI3P0N1OFjgNLzC6IXNAjwP8bEmEGN2EeOT5yG35+j4MgeG8/C235TuXHPgw7xds8zA0JilifcoEjDsUcjtpdJm9eOEixP/2BmF3sm1rWQqnM6dxPDAeMcvsXjVul4mBKhkSuE9to3PJ89vcVJw3CMVnV1eXfPLRJ6aGqXVInR2dxt3X+vdB/FxVjLu8d1nEg6b7xiSZDUuybHUU3tbaIY6uEwI7s0RgxYwgBiAIgTmJrGLTT59KAjGo65sLArP2eBfiRjulEsmRKpC914GLSAYHJdXTLZm+1SDfNcti9MiO2FZHK+LDYEFNVVVLHMtOPXkso3APmB8ZXjO79Y+pRb+MLQZkMnReQkEHbpDiRhfmEBdyG9lc+ZB37zATIkclGd8yHy6uwzi5EJFf8CBm5j26FRbaOCo7g1H0QtpzxMYEYalhbKDVOJrMF2iM1puc9hQd8nl0Kq4hQ/BO2wKsTlN0MUbHoBvHRz4BlNHYaZvDOs16C1gRE07NozN/PUeQ0eI0g3XwnG2rQXw9wfHM4njKy/Jfm8Wst1Tn0toHupk9gAvcODqPvhzPAOv3Qj5XzuUGM0/AUnrt1ojJCm1dx3RnJufddjPnNcskJuOIn6MVpxSNrmTsZDH+fjsthc7YIwzGTKHjWIZyMVYLQViQCRxOtmzDsHbHrw1Jd89qXA2vWd63fHaVqum5XEu2kHNZzDN27dpf/tcQBETs50EjHKxfaZHleQ+ue78MYoAx8tMgBEn+QV9r+WI/8z1jN3pf8jk4te5dNLsYkxsYQOyD9ctFb6hdasXcl+NzYfkZCcyY7yHXRXc7u7LR+zLfuphT4QZEOUW0iSfPN1Oe77Z6xuYu0j8WRNLHBAYrVi3VfC7yHRtG0qbc1gvX4iAsphzQshq9OTgv3w272abRn7mGwcLe/rmVY6dInZl7+RrJ1/fhwCafu+v7NvnOJb0H8s27m8ezm+syYgZCrrGxEUUr1p6jYrdDj8TKqsp9FWcUiCyDwrjKncbMFnP8DngtVCGvzb4L0zznktbTYveLMaYnoLVYIiYWXX2v83rZz4GHQs5JaXpf3DLrfyI7roSQiTe3o47RiGwYI2xIgJTGiyUFt9wE6prGYWqOQKAmwmtHtLgqFy5UP+Hit7IAlmOsKFyCuf7sIlyFFzawLqF2aRauCdlIFaylPlhjUcsL7rwJiOYoRmKYtTdfoxC1JSvE7WiSgC8mtbY4MgWnUD7GRu9hHNvmQi8dz8DVMWymfOvfi+8SEIhj0UUZwwhmqRrjLwqNwWCW39xab7u1T7Qoc9rrVpLjgaigKxSnvW7FnMuVfcPAAOO/tooBW5l/G3/wOh7BdTxSwut4Zbf24HhWtrXdPyDK59HB4rTdFoMb9BCnAr0Dtrud9cvpuVxHpIBzua37ct1mrH9Gcc4HOcEaulVjZllOAxAfpW7FvC8ZrjIRWw4lKPV+bbT+Pb2Oc3aCxz6OY+dAYKlaGEKzHxPeRFtuYjevza02lizi2Ivp++zXudzqeIv5nQLEct8sZrmDOq85nnq4o2J61dpunkvGmZqap9BOh62VTJjaXMiwW9eI5EW1SGi0KuSMBZMm6VokAoIopcgM4LOqA3VOYURIQLCuby6PVyqRrbccAcBeFP91w4Lq8Hkl29AkdvhQb2QlsJUHxN7UJI4m1Dhlht/yCmQI9kl5U4vUngyJE2Vi8jV/CqMT6SqpTbilKpKSmnBMJuYzMj5lk7FZxKBsIUzzrVO/UwJKQAkoASWgBJSAElACSkAJKIH8BEomTE3pl/pqcZwsQ8bcVZczO9S7owEKHj7sbkHsI1wHELktGbhlOFFWJl+MqZ0xpohLDdTVig8WUI4q2FlehumUYZlNwz03X7NBvNprsA+YbDBfO+gCjGUrIIxZcsFfm39EJo7UvXFk7IUmlZrFpNSFECs6gRIzEM7TQQjTnXlL5NtV/U4JKAEloASUgBJQAkpACSgBJfDKEiiZMGXmXTusm46OZtQXhfiMo3YprKE2iEzj2rsYNhnpmCDIHU9KQFDyBS67mXJk7UVWMFo2s1wGkw0JP7wQsG4EQ7uQVMmGeqhZFyyrMbizIQmCrcxn5rd58AnzdRZB4NkEYjKZWQzW2AyyDjLjqSC5CX/3Yj0V+PRA5JptQcDS6mqy+8JXN5XilJYY1uNBbIIfLlcOH1ybXGEJZSMynXZL2BZA4iZaXFetwa/sVaQHrgSUgBJQAkpACSgBJbBjAqw3GYlGTDKjvYyz3PGOYwUhVNSIo/LFRo11NFnCZCG4ALvS9nItbLTuUn6PytCoJY9yjdAFxbSjfC6L4VDMvCUTpshMYGqLOttQU6cM1sa5OQg/lEmAKMzOw+RoEvJAVOJ/Tvjw+nCx8tOGkhuO2npMtZJGzGlmblayuBgcsYg4IFIpZCk200iahEhv+v5CUWI5WkOR8ZeCNrOEYtVBxNHgtyySKWUhZrMQtlksl8XyLtw0AZaVwd92uPs6IKDZmEk4ixsmHcH+Yn8SmNwQqD6uX2IQo8gwbBsTb6ZMxm1tMmNnjUIVpgae/kcJKAEloASUgBJQAkpgRwQoZiiCpqaR4TiyNuvwjla8BwvH0E+nqN6oUWgHQ0EZnxiHAWh3k2RttM3d+j7CfDgoa1lMO8rnshgOxcxbMmFqc7pQqqVaXG1t4vCg3igskRnWNKVQhKUz+yJ7GPPqMdsm3XNZ29QBa6kTbrsu1OBJIUtWKoFaqEhWlEVWKU4CocjG/9ocL+qUQgTb/BC0yNhrRxxpehoC1FhNsQxqqWaXIDiNydQsiqRGqE2KyYYSMo5Ambia4NILiynFczpD8Yx9tSHJEm4aP1yFKyBMXfh33D4lCVcvRG5AIukymZG25RXqf5WAElACSkAJKAEloASUwA4JZNDvXFpaQimcSSSN3DoR1Q43t6eLJ6EFKEwnJsf3NOvunh5kzsaO8rnMOcxd/bNkwtS42MLNlp9ZWCczC/OSGR8x1s8sRh343UqD5dKGBEeMCc2yvEpdvdiYUZfzIXtudnIC2XcXl6fcERaKS4hZ8SLRUhlqldY3vbCYLkkGGXczU1OwnC5INogbO0eY0lprgwXVVlEldrgBZxnzSlfeEObFCFUGAjUzh/0NIi07Rn88sLxWYR3tUNEu1ES1wfF4PuyW3mWNvHIY+ocSUAJKQAkoASWgBJSAEiiKAMLG+gb65NtvJ6W/T2RyatJMm1kfi1r/Hs9MY9DAwIAsou8eR/hdd3e3fPEfX0gggFKMENw8vsNmMbUQRmERHh0Zlagpb+mzvl79PMLncvUgS/dX6YRpzj5nIewyC7OSHhuG+IOLLdxlaTW1GkViFvGldMe1lSHOtLUNdf7SxgXXiESY/LMoHJxl6Rm4AVjNxJO6ER9K993apmXraADWTtwImZlpyUyMGYGanUdZGAjdlQaXXhvFcE0txGwdloPlE8KUIjZDYYobhp9ZiGlHOoU407RUY7tuCNr66io49fohSpF86XB5WKwcvv6hBJSAElACSkAJKAElcEAIIJStr78fVRCnpCKAcoYwzFCUHlbxxpjMEPr7i6FFoTvr4yePZQ7heS4Yk3hcnLIQcIex8Zzw2Jbrg+YTpkf3XAoSw5a6lX4LPAIIO9xdiAmFlTQJ91rGhcISabUsLlRbAuIU1tIsEg/hKjZCkkXos8iem8WydAU2ojR3uYwb1kuYMR2wmnL9uLGNAOX2ICiXkxlxm5i4TquZeFMshwRJdPnlcjSoLm8HMbAmdjWOfYqZU0BIHuxjOTIJM5vwhMsnlTEkPorAInw47yuLhH4qASWgBJSAElACSkAJ7CcBdEInJ6dlcuwJ+pUj+7knu7xtE7AnQ0OzZtrlle/z6qA9bBCmttXKI2aHjvS55PEi9JLaq0RtT4SpHTVEnSdOwg8WGXOtWFGKP6vRgunBgaIEjAO1SjnRGupk7GfmNLL7Vi0nMGIQOIWr1ezYfYpaxKc62jtfxJgGxHnsGES9AzVMm+E6DOssgsjXuPIaF2NYTOFS4OzsFDuSJlFg2vA9Y1SN+y9dh2HZzdccT2NiT0HszmBfVJjmQ6TfKQEloASUgBJQAkpACRREAIYOB8LK5AT6vcsJOQtaTGfaXwI2GKns0BBrLIlH+Fza4KXqaIZgwmeJ2p4IU0dFpdhOnhJn8zHjokvrZTbHtZaCcLm0C8Qi3HLtdOuFsHQ0MJlRQLKdx2HNfGEFXb+cDaqd2XW5DNyAbbCe2lqPiQMJlEwGYFpSaT2lSfRFM9vj3w4nYkzLMC3XQc1UVIijBaKW1llOWC5f81SNi2O8V+ThIB4gq+vNN69+pwSUgBJQAkpACSgBJaAENiZAMQNBakN/NJtjgNl4Af3lIBCwQUbZIdL4udKO8Lmk5qIo5TGXqOWS3NVNxOIpGRsPyaPHkzLdwLIqbMsmfZg5l/+Z978Ug4hDNZM1A07yilOt9d26T5agkfXZy7gct7XJ9uZpuc2x3uJfoI6JpmpOL7f+iFfmU5us8+VF9BsloASUgBJQAkpACSgBJZCHAPqdFKWOZUNJnhn0q0NDQM/lTk5VyYTp/GJcfr2Lup8xlFspzy/wdrLj+7ns0HBInvXOqbV0P0+CblsJKAEloASUgBJQAkpACSiBI0OgZMI0FE7IzUeT8uDZjDiQzfYotSQSMkUTTLZ0lI5Kj0UJKAEloASUgBJQAkpACSgBJbA/BHZFmNbVeeXCuWqEjmq85f6cRt2qElACSkAJKAEloASUgBJQAkpgbwlQA1IL7kbbFWHa0hKQq5dFOjsqdmOfdB1KQAkoASWgBJSAElACSkAJKAElcMAJNDb4hFpwN9quCNMm7FBjvXdN5tvd2DldhxJQAkpACSgBJaAElIASUAJK4KgTsKPKCCuHrFQPOWAHzAonnDKZzMp+cp93s+2KMB0bG5Oh4SEZHx/fzX3TdSkBJaAElIASUAJKQAkoASWgBI40gTKUr2xvb5f2tnYJBHbH+rjbwKKxqAwNDZnJ4/HIyZMnzUQhnUgkJJXMX2azmP3YNWF6/cZ1uXv3bjHb1nmVgBJQAkpACSgBJaAElIASUAKvNIH6+nr54P0PpK627sAK01g0Js+eP5Off/pZyivKpSxQJhdfu4gktw5jST0wwnRufk6ePXsmN2/dfKUvKj14JaAElIASUAJKQAkoASWgBJRAMQRaW1vleOdxicfjZrGD5NKbSqWEU2gxZKyl9+7fk7r6Orl85bLQcup0OCUeW97vYo4537y7YjHNt2L9TgkoASWgBJSAElACSkAJKAEloAQKJ8C4TafTKS6XCwvtb8lNxpTOL8zJ/Py8TExNGHFKkVqqpsK0VGR1vUpACSgBJaAElIASUAJKQAkogSIIUJhSlHq9vn1PhMRER8lkUuYgTicmJyQYCkoylSziaIqbtWTC1Ov1oqZNnZncbndxe6VzKwEloASUgBJQAkpACSgBJaAEjigBir6ZmRkz5R4i3XgdDoexmlpZcDnvfrRsdlmYRqNRiUYjRqRyn0rVSiZMKysr5c0335QrV65IVVVVqfZf16sElIASUAJKQAkoASWgBJSAEjhUBJjJ9saNG2aiVTJfS6dTRgyW0n0233at77KZrNl+OpO2virpZ8mF6T/8wz+g6GpLSQ9CV64ElIASUAJKQAkoASWgBJSAEjgsBGiFpHW0v79fWHozX0un05KIJySe2J3kQvm2sdl3tI5SQO+VxbZkwpQmaLrzlpeXC62n2pSAElACSkAJKAEloASUgBJQAkpATBypz+czLrub8cgK/ldC99lNt73H27VvtjP6mxJQAkpACSgBJaAElIASUAJKQAkogVITUGFaasK6fiWgBJSAElACSkAJKAEloASUgBLYlIAK003x6I9KQAkoASWgBJSAElACSkAJKAElUGoCKkxLTVjXrwSUgBJQAkpACSgBJaAElIASUAKbElBhuike/VEJKAEloASUgBJQAkpACSgBJaAESk1AhWmpCev6lYASUAJKQAkoASWgBJSAElACSmBTAipMN8WjPyoBJaAElIASUAJKQAkoASWgBJRAqQmUrI5pqXdc168ElIASUAJKQAkoASWgBJSAElACqwRSqZTMzs3K3OycZLIZqa2plZqaGnG73aszHdC/VJge0BOju6UElIASUAJKQAkoASWgBJSAEiiGQCKRkL6+Prl7766k02l5/bXXzaTCtBiKOq8SUAJKQAkoASWgBJSAElACSkAJbJuAEaa9ffLd999JMpGUMn+ZnDl9RioqKra9zr1aUC2me0Vat6MElIASUAJKQAkoASWgBJSAEigBgfHxcRkbG5OBwQF5+PihzM7OCt16H3c/Fr/fL13Hu6SlpcVMNputBHuw81WqMN05Q12DElACSkAJKAEloASUgBJQAkpg3wiMjo7K9ZvX5e7duzI5OSnBYFAymYx0d3fL3NycvHbpNbl69aoRpvu2k1tsWIXpFoD0ZyWgBJSAElACSkAJKAEloASUwEEjQItoMpk008DQgPx651f55Zdf1uxmX3+fcOJ8DY0Ncu7sOZMIyeVyidN5sKTgwdqbNRj1H0pACSgBJaAElIASUAJKQAkoASWQj8DM7Iz09/Ub4fnw0UOZmpzKN5v5bnpmWu7cuSOpZEqOHz8uXV1w7W1u2XD+/fhBhel+UNdtKgEloASUgBJQAkpACSgBJaAEdkBgZmZG7ty7I9//8L1x111YWNhwbWbeu3ekv79fPvzwQwkEAipMN6SlPygBJaAElIASUAJKQAkoASWgBJTAhgSYdXdxaVGWFpfk+fPn8uTJE3n06JEpDbPhQvghHA6bibGo9fX10tzcLFWVVRIoD0h5oFw8Hs9mi+/Jb2ox3RPMuhEloASUgBJQAkpACSgBJaAElMDOCCwtLcmT7ifS/aRbep72yNDwkElyVMxaR0ZG5Nq1ayZz7/lz503cKcXqfjcVpvt9BnT7SkAJKAEloASUgBJQAkpACSiBAghQmFKUfvnllzI8OiyxWEyy2WwBS67OMjI6IoxPZVIkLnvs2DFjRV2dY3/+UmG6P9x1q0pACSgBJaAElIASUAJKQAkogaIIMJtudXW1tLW1ib/MX9Sy62euqKiQmuoacbvc63/al3+rMN0X7LpRJaAElIASUAJKQAkoASWgBJRAcQSYtIglXwJlAYlEI8UtvG5uj9cj7a3tQoF6EJoK04NwFnQflIASUAJKQAkoASWgBJSAElACWxAwwvTcOTl79uwWcxb4s03Ehv8dhKbC9CCcBd0HJaAElIASUAJKQAkoASWgBJTAFgRstmURaX1uMfuh+tl+qPZWd1YJKAEloASUgBJQAkpACSgBJaAEjhwBFaZH7pTqASkBJaAElIASUAJKQAkoASWgBA4XARWmh+t86d4qASWgBJSAElACSkAJKAEloASOHAEVpkfulOoBKQEloASUgBJQAkpACSgBJaAEDhcBFaaH63zp3ioBJaAElIASUAJKQAkoASWgBI4cARWmR+6U6gEpASWgBJSAElACSkAJKAEloAQOFwEVpofrfOneKgEloASUgBJQAkpACSgBJaAEjhwBrWN65E6pHpASUAJKQAkoASWgBJSAElACh5FAPBGXWDwmc/NzkkgkzJRMJvflULLZrISWQpJMJvZk+ypM9wSzbkQJKAEloASUgBJQAkpACSgBJbA5gVgsJsFQUEKLIUmlUpJOpyWdSW++UKl+zYpEo1GJx1WYlgqxrnePCGQyGeFICyebzWYmu3173uNch7W+na5rLw7f2lfr2Hnc3O/ttMN27Ns5Rl1GCSgBJaAElIASUAKvKgGrr0cRGo6EZXJqUsbGR03f96AwYd/W6t+Wap/UYloqsrpeGR8fl+fPn0tfX5+cOHFCTp48KS0tLdsiMzMzY9bV29srTU1NZl2dnZ3bWtdeLDQ2Nmb2d2BgwBw7j3+7xz49Pb1y7FwHOXZ0dOzFYeg2lIASUAJKQAkoASWgBEpMIBKJSM/THvF97ROP1yPzC/OyEJyHEITJ8oC0aDQiY6NjQotuqZoK01KR1fUKxdlPP/0kX331lfzud7+TsrKyHYmzGzduyJdffimvv/66uFwuOcjCdHR0VH788Uf55ptv5Pe///2uHPuf//xnefvtt8Xtdqsw1ftLCSgBJaAElIASUAJHhIARpj09MjM7Iw6HA66zcRNbCr/DA3OEqWRKFhcXVZgemDOiO1IUgfn5eenu7pZvv/1W2tra5PLly0Utnzszb1BaDml9bWhokKWlpdyfd/VvulHwAREOh816/X6/EZZ8UBTa5ubm5PHjx+bYa2trjZCkpddaF4V1oS0UCsnTp0/lhx9+EI/HI2+99Vahi+p8SkAJKAEloASUgBJQAgecAGNJF4ILwsRHxfQ39/Kw6MbLZEz8LFVTi2mpyOp6d5VAXV2dXLlyxVgLjx8/XlKLIUUwBfWDBw9MwPmlS5fk4sWLUl5eXvQxMWaA7se09FJYcz2c6uvri16XLqAElIASUAJKQAkoASVw9AjQcHH61Gk5dfKUVFRUHMgDXAovybPnz+TZ02cl2z8VpiVDqyveTQKWMD179qyxOpbyprWE6R//+Eekx06apEWMEd2JMLXiRLk+Wo9VmO7m1aHrUgJKQAkoASWgBJTA4SVAYXrm9Bn57NPPpKm56UAeCPO9OJ1OGR8bL9n+qTAtGVpd8W4S8Pl8wonusKVudFGgGzITF9FlgW65dLHYbqPbLh84jA2dnZ2VR48emdiB/5+9+3CP6jrwPn6QEJLovZreiwFjsAE3DI6NS7LJ7j7xrvfJP7fZTV77ycaOYwf3EndTbIoNBgOmmd6bUOPV9zhXGQ+jGWkYae7MfM/7zkqauffccz6XGH46557DFF8CN/8jtyiggAIKKKCAAgrUpgD/VhwzZkwcvJgxY0YcFKmv63qErLgNHUqGyMw/BmzYV7W9oz00D23u16nG/ou4ZLfOihS4U4AtYhht5fnaOXPmBJ4X/fvf/x6fGeU9picbTO908x0FFFBAAQUUUKAWBfi3I4MZP61HUt5kSjBlCu+FixfCqdOn4r9j72awptD9NJgWEvJzBe5CIAmmrEq8YMGC8Oc//zl8+OGHYfjw4XFq8MqVK+No6l1cwlMVUEABBRRQQAEFqkSgrq4uhtKmpuY4clrObjGLkMfQfgqmJ8OVq1dCW3tbvzXJYNpvtFZcSgGm1h47diwcP348MAWW5zR72heU6bIcx/GssJtdCIX33HNPrIMptklhixfOYe/VPXv2hEuXLsUpvKyu++abb4aFCxd2n0fg7E1JfuvFNXnxMyv+8pVpwvwmqpSFvtMHXoVWTWMaMY5Y8B/B7HL58uVuR57pTY6lbnx5bjYpo0aNip9zDL/lo3D95FieS0gKU1US/0KrExe6l0mdfKU/Sb25+sNoddIenhdOju3tvcy8lt8roIACCiiggAL9IcC/S3jxbxn+LcW/ZQv9m64/2kGdXJdgShgdiHYYTPvrTlpvSQUINuxjymjj0qVLw2OPPdZjMCUwff755/FYwl92IdA++uijYezYsT8brTx8+HCcZsu5R44cic+Z8j/IHTt2xGdDmXrLdQk0aQ0zp0+fDp999lnsB/8hyVdYHRiHadOm5TyMYL59+/boOHPmzNh3jmXLHu4DqxYnhZWSsWErnySY8h8wQj7HEu6TMm/evHjspEmT/jFNJfnkzq+F7mXmGUuWLIn1cn9zBVP6w71kKjX3MO33MrNvfq+AAgoooIACtSfQ0fVcJ/+WZQ/RcpTO2//YIqaj/7aIyeyXwTRTw+9TK8ACRF9//XV49dVX4/x2wk1mSX6jxLz3kydPxmMZ5bx582bmYfF7nvlkVdzly5fH6bQ848meUZy3devW8M4778SR0mQO/XddGx4TsBjd5NxiC2GWazU1NcVARptpH6O2XL/YZ01z9f2NN96ID6vnaysjiAS01atXx/1RE4fkHEZMCZ+sTswvAwh8999/fwymSfhNjmVLnSlTpgSmJif7b/EfUrbK+fTTT+MrOZZ9WKnrvvvui33O7nuu/vR0L5M6+UrwpD+0kYWysvvDptDcy3fffTcsXrz4ru5l5nX9XgEFFFBAAQUU6A8B/k3EQAMLEJWj8G9f/j1MQB2IYjAdCGWv0e8ChI4DBw7ERYUImIyG/va3v805VZYRPUbzCG+zZs2Kz37Onz8/fr9p06bAtNT9+/fHF/9B4DOeDyVQ3U0wJYAySvmrX/0qEPpo88svvxwXRaL+YuumnqS99J2pzs8//3xBc6YWM8L6v//7v919ZCW4XIV6P/nkk/gfJ35JQD+wSwpB8Pr16+GVV17pDtj8x4xjV6xYETJ/kcCx9P///u//Yp/pOwtDJaUv9zI5h6/Dhg2L04v/+Mc/xv5w3xjpTcro0aPjPSQwE6KL9U7q86sCCiiggAIKKKBA6QQMpqWztKYyCly7di3s3Lkzhk2eWyREPvHEE93TSjObxvRQpqgyCscUVEYyCSkELcINIYnPmD7Mb4moa/PmzfEYpqoWO42XYMrIIlNYCZJMK2WaK/UTlosNSox8MppMmxsbG+OI4ZNPPllwmiyjwLSBgE4gp+89BdMff/wxBlPCP+3lRfBLCs/nYso0WZ6hpTASmhyb2bejR4/G637wwQfdo7WZwbQv9zK5Pl8ZnaU/OGzYsCGOROcKpjwHSzi+m3uZeV2/V0ABBRRQQAEFFLh7AYPp3RtaQwoEWlpa4sI2BBP2OuXZyQcffPBnz5AmzeQZSUIMo3aM6DGdltE9pvfySoIjI4qMrhFYeb6U6ad3UwiNTDXlxTRTppUmi/vwTCvt4poszENw6m1h9JcwR+BmVJBgTh+SZz17qodnalnEiKm2hDW8eio4MFWWEWTqJZQ+9NBD3YfjTj185V7QD9rCtGVGRNeuXdt9LH1n9HXbtm3xOGwzS1/uZeZ5THUh6POMMPcquz8Eb17cT4sCCiiggAIKKKBAugQMpum6H7ZmAARYYZbnG1kghxVimWaaPBc5AJePl2C6LXuYElYJYgRTptQy7ZVX5khfoTYRZHm2k5FcwiMjvf/v//2/giO7BFMCOqG8UGHqa9I2ns3l554KCyRxDMfzlV8UWBRQQAEFFFBAAQUUyCdgMM2n42dVKUAwJcgxvZTRRUb3cq3i2p+dJ5gyUsgiPIwesuASCwoxDZbQ15dgSn8IgfTnq6++Cm+//XZ8FVqVl0DM85y9DaaMkP7mN7+JXpj1VAimjzzySPjlL38ZR3/zHdtTHb6vgAIKKKCAAgooUFsCBtPaut9V21umjDIdlRVZCZtMbf3iiy9yPmeZPF/ISB4jluUotJcXe28ynZbpvUy/JSzu27cvjnYyrZjnIAsVnoMlYDKVl+dN6T99Y4pvvsJU5mQacL7j+IznY2lL5rOgPZ3DsfSlN8f2VEfyPv3hWVimCeOVr7CCMIs5Md3YooACCiiggAIKKFBZAgbTyrpftrYHAUblGDUkFLFQD8+OvvjiizlHAwlNPH+4bt26sgXTzG4QqHkmluciaTejnnv37o3PZWY/J5l5XvI94Y2Fn3i2kmBL2P2P//iPgqPAPOPKOQTatBbaxi8YLl682L3ab09t5b4n2/r0dIzvK6CAAgoooIACCqRTwGCazvtiq/oowHOWBFO2MSFsEUpfeumlGNSyq+KZUgIszz+yrUy5C6OljHCynyhtZlov27MwQrhkyZKCzWO0lFV5//znP8dpwIRStsopNBrMQkFJ8Ct4kTIdQPsI6yyUVGg1ZEZ/eTliWqab5WUVUEABBRRQQIG7EDCY3gWep6ZHgGdEeSXTWFnciJFEVpPNLoyuslHxe++9F5/l5HlOXgP9nGnSLhZe4sWznrSBqbm0j6+9ef6TYzLPoQ6mKxea+kpwZYXcQoEvaWc5vrI4FVvYcH9oa28LI80uutRbLY9TQAEFFFBAAQXKL9D7f+mVv622QIFeCfAsJMGERXhyPWfJyrVM+WT/TvYxffzxx+MznuUKpr3qVI0exHO2bDXDPSo0ApxJxLRoRqItCiiggAIKKKCAApUhYDCtjPtkKwsIEEBZhZYRUkZNFy1aFKfq5hoN5NnK/fv3x9VwmTLLara9GZks0ISSfMweoYzost8mhUWcmKrLCGpa2liSjvayEqZaM+X62WefzbknbWY1jBpz/5M/A4X2cc081+8VUEABBRRQQAEFyitgMC2vv1cvkQABjtVsefH8KMGUFyG1UgrTeefPnx+eeuqpcPTo0TjFlunGJ06ciEG60PYvldLP/mrnqVOn4v3nFw/8smHhwoVxRLy/rme9CiiggAIKKKCAAqUTMJiWztKayijAqCIr0/7tb38L7BHKtFxCXiUGU56r/OGHH8KXX34Z3n333XD48OFw/vz5+BxpGYlTf2m2imEvWP4MMPWXkWemalsUUEABBRRQQAEF0i9gME3/Par4FjIFlT0zGQVkG5TeFkLlqFGjwsiRIwuewkqsTOG8ceNGPPbYsWNx9CzXc4mMQDLFlwV1WFiHa2QWRi4Jh7NmzYpTaZkmTDhkqiht4fhcU4Qz6yjme8I0z1TyYpVhrsm1b968Gacp9zSVFye2iGGUkPZxPKOGhaaynjt3Li6SxMgiIY7Vb5niTP+yTYrpT7HnZPaH0W+2wKFdue5l5jUOHToU9zHllxScw/3KLEyH5s8hL+rqz3uZeV2/V0ABBRRQQAEFFCgsYDAtbOQRJRA4ePBgePvtt+OiQ72tjnDE6rq8CpVkuxjCHaOLhCy2XslVCJWEH6bMEj7ZPoYwmhQC3eLFi2MoZG9MAs3rr78egx9tWblyZb8E0+T6fCUo8mwlbWUkmO1g2N80VyFg0SZWraXvBE62yylUsGJP1//6r/+KwZdp0IzUJn0sdH5/fd6Xe5nZhiTYv/DCC3GbnezFj9gLNXFkgaykn/3xS4bMdvm9AgoooIACCiigQGEBg2lhI48ogQCjWTwDWGjUK/NSrKxKaGAksFAhzBDkCJk7duyIK+4ypZNQmV0YJX366afD5s2b44gpCw0RapJCGwmmjKgS1rZs2RLr45nVJAQmx/bX1ySY0h8cGAnevXt3zsslQY6py9u3b49TWVlxmBHkfOX+++/vdmDKMOcwMskoLX0vV+nLvcxs46pVq+I95d5ynxhtzSysxowP+71iNVD3MrMNfq+AAgoooIACCiiQW8BgmtvFd0sgwHRYAh7P+xVTmNLK86KMbhIiCBOPPPJIuPfee+N018w6GS1MpqASqni2cMGCBTmDKSNpjJROnz49MHKWXRg9JRzxIhDOmTMnBl7Oox29Kawmu2TJkrBhw4a4CNPo0aN7c1r3MfSHa/EinBK6GA1dtmxZnLbbfWDXN/gkfSd0016sCi2WRODHCgc8OI/pr7gTzpNfCjz00EPxM0ZXeyoEadr58MMPx37nck3OLeW9TOrkK/2hH9wnTLILfaJv/Nnoy73MrsefFVBAAQUUUEABBUovYDAtvak1/kOAkT6CypQpU4oyYSSTsEPoam5ujnuTElSpL9+IHuGDvS/5mv2cIQ1Jwl6yJUu+xhEoCYVJ8CP89GbqJ3uoEqIJQJxTrAFtox/sy8pzpNRD+OypEAjXrVsXAzcjn/kKdSX9IdBt2rQpTgnmPX6pQD8ZVcWAnwmuPRXuy5o1awKBnPZSX0+FftCfUtzLzGtMnjw59idz9Dvz82LvZWYdfq+AAgoooIACCijQPwIG0/5xtdYuAYIp4Wf9+vVFeRCMkhcVJOGH7/OFQ8JZEuZyLRiU1JmvDq5BScJM8pxrb87hPIIpfWe0kaDU2/M4N7vQF8LcAw88ED/qKXjxIaOa9J/gV6hkOjCKmITJ5H3OJ5gSzCn5+kAgJZiuXr264LH0pVT3Ml7sH/8naXdP7Sz2XmZew+8VUEABBRRQQAEF+kfAYNo/rtbaJZAEhXxBqi9QPQWO7DqS62a/X8zPxdbFeZkLKhVz7eScvrQhObav5pyXq/T0fvaxyXWz38/1c38dm+tame/15bqZ5/m9AgoooIACCiigQP8L/HPFl/6/lldQQAEFFFBAAQUUUEABBRRQ4A4Bg+kdJL6hgAIKKKCAAgoooIACCigwkAIG04HU9loKKKCAAgoooIACCiiggAJ3CBhM7yDxDQUUUEABBRRQQAEFFFBAgYEUMJgOpLbXUkABBRRQQAEFFFBAAQUUuEPAYHoHiW8ooIACCiiggAIKKKCAAgoMpIDBdCC1vZYCCiiggAIKKKCAAgoooMAdAgbTO0h8QwEFFFBAAQUUUEABBRRQYCAFDKYDqe21FFBAAQUUUEABBRRQQAEF7hAwmN5B4hsKKKCAAgoooIACCiiggAIDKWAwHUhtr6WAAgoooIACCiiggAIKKHCHgMH0DhLfUEABBRRQQAEFFFBAAQUUGEiBwQN5Ma9V/QK3b98OnZ2d8VX9vbWHCiiggAIKKJBGgUGDBoW6urr4SmP7bJMCCtwpYDC908R37kKgo6Mj3Gq5FVputYTbnbfvoiZPVUABBRRQQAEFihMYMmRIaGxqDI2NjcVV4FkKKDDgAgbTASev7gsSTG/evBmuXb0W+N6igAIKKKCAAgoMtMCwocNCXX2dwXSg4b2eAnchYDC9CzxPvVOAqbwE0tbW1tDS0hLaWttCa1vrnQf6jgIKKKCAAgoocJcC9fX1MXw2NTYFpu8yW6vzdmdoHNLoY0V3aevpCgy0gMF0oMVr6HpM5718+XK4fOVyDfXariqggAIKKKDAQAkQQCeMnxAYIW1oaAhtbW2hs61zoC7vdRRQoIQCBtMSYlrVzwVu3boVLl68GE6dOfnzD/xJAQUUUEABBRQogcDQrkA6bNiwMHjw4DCkK6QyYko4tSigQOUJGEwr755VTIvjtN7OjvgXxKVLXSOnly+Fa9euV0z7bagCCiiggAIKpE+A1XYnT54cJk2aFEaPGh2GNg+NwZT3u+bzxim96Wu1LVJAgUICBtNCQn5eEoHz58+HQwcPhZOnHD0tCaiVKKCAAgooUKMCjI6uvn91mDljZpg8cXIYOWJkqK/3n7Q1+sfBbleRgP8rrqKbmeauMKX30KFD4cCBA/G3mixWwCIFFgUUUEABBRRQoC8CbAWzcP7CMLRpaJg4YWJoamqO/7ZgH3WLAgpUroDBtHLvXUW2fOjQoWH+/PnxNXbs2Irsg41WQAEFFFBAgfIJMGV38aLFYeLEieVrhFdWQIGSCxhMS05qhfkEmpubw9KlS8NTTz0V5syZk+9QP1NAAQUUUEABBXIKsBrvkIYhOT/zTQUUqEwBg2ll3reKbTXTb+65556watWqsGzZsorthw1XQAEFFFBAgfIIMGX3Mosqdr1ab7lXennugldVoPQCXcuXWRRQQAEFFFBAAQUUUEABBRQon4DBtHz2XlkBBRRQQAEFFFBAAQUUUKBLwGDqHwMFFFBAAQUUUEABBRRQQIGyChhMy8rvxRVQQAEFFFBAAQUUUEABBQym/hlQQAEFFFBAAQUUUEABBRQoq4Cr8paV34tnC7DS3pEjR8LRo0fD2bNnsz/+2c/19fVh5syZYcaMGWH8+PE/++xufrh161a8Pu2gPck12OrGooACCiiggAIKKKCAAqUXMJiW3tQa70Kgo6MjfP/99+GDDz4Ie/bsyVsTW888/vjjgcBY6mC6d+/e8P7774f29vawYcOGWL/BNO/t8EMFFFBAAQUUUEABBYoWMJgWTeeJpRRoa2sLvK5fvx4OHToUtm3bFj7//PO8l2hqagoTJkwICxYsiHujNjQ0BF6MpN5NoR204cMPPwytra2x7nXr1t1NlZ6rgAIKKKCAAgoooIACeQQMpnlw/GjgBE6cOBH27dsX9u/fH65cuRJWrFgRA2e+FgwaNCiMHDky7NixI/z4449h4cKFYdGiRWHUqFH5TvMzBRRQQAEFFFBAAQUUSJmAwTRlN6RWm3P8+PHw0Ucfhffeey888MAD8TV//vy8HIxmfvHFF2Hr1q2B50KffvrpMG3aNINpXjU/VEABBRRQQAEFFFAgfQIG0/Tdk5ps0eXLl8PBgwfD9u3bw5IlS2LAJKDmKzdv3gwEWqb9Xrt2LYZTFiuyKKCAAgoooIACCiigQGUJGEwr637Z2gyBwYMHx+m+mzdvjs+mLlu2LIwYMSLjCL9VQAEFFFBAAQUUUECBShAwmFbCXbKNOQVY5IiFj5i+y0jp0KFDw7Bhw3Ie65sKKKCAAgoooIACCiiQXgGDaXrvjS0rIFBXVxeGDx8eXz0deubMmXD69Olw7ty5nIeMHj06TJo0KUyePDlQX2/LqVOnAq+LFy/mPGXs2LGxTupOSktLS2wL5924cSN5O4wbNy4eO3HixO73mKZMuzmW75PCtji0ldWILQoooIACCiiggAIKVIuAwbRa7qT9yClw9OjR8Omnn4avv/465+es5MtWMITCvgRTtpOh3m+//TZnvUwrXr9+fQy9yQGEUfZm5byTJ08mb8cViJM2JG/yzOyuXbvisYTrpNx3332xXoNpIuJXBRRQQAEFFFBAgWoQMJhWw120Dz0KHDlyJLz//vvhr3/9a85jHnvssTj6uHbt2pyf9/QmwfSdd96Jr1zHPPXUU2HKlCkhs16C6e7du8Orr74a9u7d233as88+G6ZOnRpXIk7eJJju3LkzvPLKK+H7779P3g4sEjV9+vRw//33d7/nNwoooIACCiiggAIKVLqAwbTS76Dtv0Pg7Nmz4fDhw/HFqr2zZs0Kv/3tb+84jjeYcsuI5EsvvRRmz54dj21qasp5LNNqqfeHH36I+6byfCvn5yqMaHLtP/7xj931ctzt27dDR0dH3NKGdnHNBx98MIZN3k/aTaDm54cffjisWrWq+xJMDSYUJ+3lfKb3WhRQQAEFFFBAAQUUqGQBg2kl3z3bnlOAoMn+poxozpgxIyxatCg8+eSTOY8lPO7bty/uoUoIbGhoCHPnzs15LNNvP/nkk7jXKqF06dKlsf5cBxNeqfeDDz4ImzZtCoTdzADJc6Vr1qyJn82ZMyeOmBJEDxw4EN59993AFOTFixfHz3kONilsqcNo68cffxw2btwYn6/NrDc5zq8KKKCAAgoooIACClSSgMG0ku6Wbe2VwKVLl8I333wT3n777fDMM8+EJ554Ijz99NM5zyU4fv755/FYtppZvnx5j8H0/PnzcSruG2+8ERcsYrSyp8C7ZcuWGHbffPPN+PzqypUrfxZMR40aFfdrpW1jxoyJbWNxJBZpItASmAnU8+fPj+0h2DY2Ngbq3bp1a9ixY0eYN29e3L81Z8d8UwEFFFBAAQUUUECBChIwmFbQzbKp1S3A9jcEUfZlZcR00KBBcfR0//79McQuWbIkjtBu2LAhjrCuXr3a1Xmr+4+EvVNAAQUUUEABBWpGwGBaM7fajqZdIAmmTPNlKjCr9zKtl+1hks9Y+Igtclj8iJHWnp5xTXtfbZ8CCiiggAIKKKCAApkCBtNMDb9XoIwCbFdDKOXV3NwceJ50yJAhcbruiRMn4lYzLH5EGGUasUUBBRRQQAEFFFBAgWoRMJhWy520H1UlwKgoz7sOHjw4rhrMc7N/+tOf4oJLjJbee++9VdVfO6OAAgoooIACCihQ2wJ1td19e69AOgWShZh+/etfB54lvXjxYgymLNZ07NixdDbaVimggAIKKKCAAgooUKSAI6ZFwnla+QXYXuXHH3+Mr1u3bsUFgaZOnVr+hhXZAvrDljT0iRV66cuUKVPCPffcE9ieZsWKFWHo0KFxr1O2wuFzXpnbyRR5aU9TQAEFFFBAAQUUUKCsAgbTsvJ78bsRaG9vD6xYy56ely9fDg899FBgpLFSS7KP6UcffRQuXLgQ2FeVKb0TJkwIDz74YNx2hm1kePaU7WL4nJfBtFLvuO1WQAEFFFBAAQUUSAQMpomEX8suwPYovCi3b98OnZ2dedvU1tYWgyn7lZ46dSqwNyj7hVJ6WxfXyT4+vtHD/+mverkc/f3+++8Do6EE0JEjR8ZnSdlChgWRmNL7yiuvxCDOar3sbZrsddpDc31bAQUUUEABBRRQQIGKEDCYVsRtqv5GMl31kUceiWGLEcKdO3eGI0eO5O04I4w8e7lq1arQ2NgYFwtixJSAxwgjI6qEVcLef//3f+esi0WFuN4LL7wQ1qxZE6fN5jyw602m1TIqS2F13G+++SZOvY1vZP2f8+fPx7p+97vfhfXr18ctX7IOueNHVuUlhD711FPd+5i+99574bPPPus+9uzZs2Hu3Llx9JQ+0naLAgoooIACCiiggAKVLmAwrfQ7WCXtnzZtWnj00UfDvHnzwu7du2MwPXr0aN7esWItq9OySi2Bjv0+mfrKFitr164NM2fODN9++22sb8uWLTnrmjFjRli2bFnYuHFjfF6TOnoqSTCdM2dOrHPPnj3xec9cx3MMbdu8eXNsF06eKLkAAEAASURBVPXeuHEj16Hd7yV7lRKu2ccUB0ZGCd9J4VlT6l2yZEms12CayPhVAQUUUEABBRRQoJIFDKaVfPeqqO3jx48PvAhejDYySrhv3768PWQqK1N3CWmMdiaFBYJ47pJprtevXw/btm3rsa4xY8bEQLphw4YYaKmD5zuHDRsWRyOZLkzYZTST/UN5cT3C4hdffNFjvYTY6dOnx8CbtIsFjahr4sSJcREjrpFMXeYYgikBnReBk2DOFOXDhw8nVYRZs2bFPUxpr0UBBRRQQAEFFFBAgWoRMJhWy52skn4QABk1ffLJJ+MoaL5uMWLKNN58o4aMmj7++OM9TqWdPXt2vB7XTQrTghcvXhyee+65OB2YEVXCbmZhRPSJJ56IQTHz/eR7AjZ1ZxaCKHURdhnVJThzrVyFAMs+pkxXJqgnhVDMKK9FAQUUUEABBRRQQIFqEjCYVtPdrIK+MGpIMCVsFpr6ymgjI6M8R9pTIZhyDAsH5SoETs7nuklJgilbsbA4Ep83NzcnH8evBFMWJFq3bt3P3k9+IFhmt4trMQ2XYJm0nYCaqyTBlPa3trZ2H8I03+x6uz/0GwUUUEABBRRQQAEFKlTAYFqhN65am01gY3otr1IUVrbl1ZfCSCyhk1dPhbDLqy+loaEhTldmynKhQmAlnOcbDS5Uh58roIACCiiggAIKKFApAv+cv1gpLbadCiiggAIKKKCAAgoooIACVSVgMK2q22lnFFBAAQUUUEABBRRQQIHKEzCYVt49s8UKKKCAAgoooIACCiigQFUJGEyr6nbaGQUUUEABBRRQQAEFFFCg8gRc/Kjy7llFtpjtWFhUiAWA6ut+WgG3s7OzIvtioxVQQAEFFFCgfAL8+4FV83lZFFCgegQMptVzL1Pdk+n3TA/Njc1hUNf/mztnbvx6+dLlVLfZximggAIKKKBA+gQIpDdv3Ix7faevdbZIAQWKFTCYFivneX0SmD59epg/b34YMWxEmDhxosG0T3oerIACCiiggALdAl0Dpe0d7aGjvSPuC979vt8ooEBFCxhMK/r2pbvx9fX1oamxKQwfPiJMnjg5TJo4KYwdM7a70a23Wru/9xsFFFBAAQUUUKAvAux9zqNCfLUooEDlCxhMK/8eprYHQ5uHxjA6cuTIMHLET6+mpubUtteGKaCAAgoooEBlCdTVDepaw6LBcFpZt83WKpBTwGCak8U3SyFAMCWQ8hfG4MH1ob5+cNfrp4WPSlG/dSiggAIKKKBAbQswWDpo0E+jph0dHbWNYe8VqHABg2mF38A0N5/pNazC29g1nTcprsSbSPhVAQUUUEABBUoj8NMq/21tbaGzK5y6Wm9pVK1FgYEWMJgOtHgNXY8QGv+S6HQ59xq67XZVAQUUUECBsgh0dna4Um9Z5L2oAqURMJiWxtFacggQTFtbW7um2LTl+NS3FFBAAQUUUECB0gk4Ulo6S2tSoBwCBtNyqFfxNZm+29jY2LUS7/DgtN0qvtF2TQEFFFBAgRQLNDc3d61v4T9zU3yLbJoCdwj4v9g7SHzjbgTiFjHNTfEvA39zeTeSnquAAgoooIACxQoQSgc3+M/cYv08T4FyCPi/2HKoV/E1CaZx5d1/rndUxb21awoooIACCiiggAIKKFAKgbpSVGIdCiiggAIKKKCAAgoooIACChQrYDAtVs7zFFBAAQUUUEABBRRQQAEFSiJgMC0Jo5UooIACCiiggAIKKKCAAgoUK2AwLVbO8xRQQAEFFFBAAQUUUEABBUoiYDAtCaOVKKCAAgoooIACCiiggAIKFCtgMC1WzvMUUEABBRRQQAEFFFBAAQVKImAwLQmjlSiggAIKKKCAAgoooIACChQrYDAtVs7zFFBAAQUUUEABBRRQQAEFSiJgMC0Jo5UooIACCiiggAIKKKCAAgoUK2AwLVbO8xRQQAEFFFBAAQUUUEABBUoiYDAtCaOVKKCAAgoooIACCiiggAIKFCtgMC1WzvMUUEABBRRQQAEFFFBAAQVKImAwLQmjlSiggAIKKKCAAgoooIACChQrYDAtVs7zFFBAAQUUUEABBRRQQAEFSiJgMC0Jo5UooIACCiiggAIKKKCAAgoUK2AwLVbO8xRQQAEFFFBAAQUUUEABBUoiYDAtCaOVKKCAAgoooIACCiiggAIKFCtgMC1WzvMUUEABBRRQQAEFFFBAAQVKImAwLQmjlSiggAIKKKCAAgoooIACChQrYDAtVs7zFFBAAQUUUEABBRRQQAEFSiJgMC0Jo5UooIACCiiggAIKKKCAAgoUK2AwLVbO8xRQQAEFFFBAAQUUUEABBUoiYDAtCaOVKKCAAgoooIACCiiggAIKFCtgMC1WzvMUUEABBRRQQAEFFFBAAQVKImAwLQmjlSiggAIKKKCAAgoooIACChQrYDAtVs7zFFBAAQUUUEABBRRQQAEFSiJgMC0Jo5UooIACCiiggAIKKKCAAgoUK2AwLVbO8xRQQAEFFFBAAQUUUEABBUoiYDAtCaOVKKCAAgoooIACCiiggAIKFCtgMC1WzvMUUEABBRRQQAEFFFBAAQVKImAwLQmjlSiggAIKKKCAAgoooIACChQrYDAtVs7zFFBAAQUUUEABBRRQQAEFSiJgMC0Jo5UooIACCiiggAIKKKCAAgoUK2AwLVbO8xRQQAEFFFBAAQUUUEABBUoiYDAtCaOVKKCAAgoooIACCiiggAIKFCtgMC1WzvMUUEABBRRQQAEFFFBAAQVKImAwLQmjlSiggAIKKKCAAgoooIACChQrYDAtVs7zFFBAAQUUUEABBRRQQAEFSiJgMC0Jo5UooIACCiiggAIKKKCAAgoUK2AwLVbO8xRQQAEFFFBAAQUUUEABBUoiYDAtCaOVKKCAAgoooIACCiiggAIKFCtgMC1WzvMUUEABBRRQQAEFFFBAAQVKImAwLQmjlSiggAIKKKCAAgoooIACChQrYDAtVs7zFFBAAQUUUEABBRRQQAEFSiJgMC0Jo5UooIACCiiggAIKKKCAAgoUK2AwLVbO8xRQQAEFFFBAAQUUUEABBUoiYDAtCaOVKKCAAgoooIACCiiggAIKFCtgMC1WzvMUUEABBRRQQAEFFFBAAQVKImAwLQmjlSiggAIKKKCAAgoooIACChQrYDAtVs7zFFBAAQUUUEABBRRQQAEFSiJgMC0Jo5UooIACCiiggAIKKKCAAgoUK2AwLVbO8xRQQAEFFFBAAQUUUEABBUoiYDAtCaOVKKCAAgoooIACCiiggAIKFCtgMC1WzvMUUEABBRRQQAEFFFBAAQVKImAwLQmjlSiggAIKKKCAAgoooIACChQrYDAtVs7zFFBAAQUUUEABBRRQQAEFSiJgMC0Jo5UooIACCiiggAIKKKCAAgoUK2AwLVbO8xRQQAEFFFBAAQUUUEABBUoiYDAtCaOVKKCAAgoooIACCiiggAIKFCtgMC1WzvMUUEABBRRQQAEFFFBAAQVKImAwLQmjlSiggAIKKKCAAgoooIACChQrYDAtVs7zFFBAAQUUUEABBRRQQAEFSiJgMC0Jo5UooIACCiiggAIKKKCAAgoUK2AwLVbO8xRQQAEFFFBAAQUUUEABBUoiYDAtCaOVKKCAAgoooIACCiiggAIKFCtgMC1WzvMUUEABBRRQQAEFFFBAAQVKImAwLQmjlSiggAIKKKCAAgoooIACChQrYDAtVs7zFFBAAQUUUEABBRRQQAEFSiJgMC0Jo5UooIACCiiggAIKKKCAAgoUK2AwLVbO8xRQQAEFFFBAAQUUUEABBUoiYDAtCaOVKKCAAgoooIACCiiggAIKFCtgMC1WzvMUUEABBRRQQAEFFFBAAQVKImAwLQmjlSiggAIKKKCAAgoooIACChQrYDAtVs7zFFBAAQUUUEABBRRQQAEFSiJgMC0Jo5UooIACCiiggAIKKKCAAgoUK2AwLVbO8xRQQAEFFFBAAQUUUEABBUoiYDAtCaOVKKCAAgoooIACCiiggAIKFCtgMC1WzvMUUEABBRRQQAEFFFBAAQVKImAwLQmjlSiggAIKKKCAAgoooIACChQrYDAtVs7zFFBAAQUUUEABBRRQQAEFSiJgMC0Jo5UooIACCiiggAIKKKCAAgoUKzC42BM9T4FCAu3t7YFXW1tbaGhoCIMHD46vQufl+ryjoyPWQ3319fWxHupMU6GNSX9v377dL03DMLHslwtYqQIKKKCAAgoooIACZRAwmJYBvVYuefLkyfDdd9+F/fv3h4ULF4YFCxaE6dOnF9X9c+fOddc1derUWN/cuXOLqqu/Trp48WJ3G2/evNkvl5k9e3bs+5w5c/qlfitVQAEFFFBAAQUUUKAcAgbTcqjXyDV//PHH8PHHH4e33norbN68OYwcOfKugumXX34Z3njjjbBq1arQ1NQU0hZML1y4ELZv3x62bNkSLl261C93+dFHHw3Nzc3BYNovvFaqgAIKKKCAAgooUCYBg2mZ4GvhspcvXw4HDx4Mn3/+eZg/f37g52IL04GvX78ezp8/H65cuRJaW1uLrargeUzJ5RpXr14NTMkdMWJEDNVMo81XmMZLGwmovPKVW7dudV+DoMk1hg8fnu+U+Blt6s++F2yAByiggAIKKKCAAgoo0A8C+f+l3Q8XtEoFihGYMGFCeOCBB+Jo4cyZM8OMGTOKqaZX5xAa9+7dG77++utASF25cmVYsWJFDKf5Khg7dmxYvXp1GDJkSLhx40a+Q8OJEydi/Tt37gzTpk2L11i2bFnec/iQKdH92feCDfAABRRQQAEFFFBAAQX6QcBg2g+oVll6gfHjx8dgunTp0jiNd9iwYaW/yD9qTILp66+/HhdcYqSU52OZipyvEEzvv//+sGjRohho8x27a9eu0NLSEgPwPffcE5ii++yzz+Y7JX42dOjQXo2sFqzIAxRQQAEFFFBAAQUUSJGAwTRFN8Om9CzQ2NgYeI0bN67ng0r0SWdnZ5zGy+JNTJtlWi8jp4UKI6WEU16FytmzZ2PQraurC4RNRoRnzZpV6DQ/V0ABBRRQQAEFFFCgKgXcx7Qqb6udUkABBRRQQAEFFFBAAQUqR8BgWjn3ypYqoIACCiiggAIKKKCAAlUp4FTeqryt1dcpVuP94YcfwpEjR7qnvfa0JyrTZDmO43NNwWUFXBZQYups5rOqR48ejeew7+pXX30V2JeUlXZZoGjUqFHx2dHkvEGDBpUF+fjx47GNp0+fju2nPTx/29vCysiJDQ4YUMexY8divfQ5eY8+/vAPc56HzS5s2cOxvPDJV1itOKmLlYXzFe5JUm+ulYqZXp30gdWak3uSeS/z1e9nCiiggAIKKKCAAukTMJim757YohwC586dC+xj+t5774Xly5eHxx9/vMc9UQmmbFHDsbm2Vpk6dWrYuHFjDLiZYebw4cPh/fffD59++mlcNZctX3jelJB65syZ8OCDD8brEoTKFUwJzx988EFc0Zc+8HxqX4Ppjh07Yj8TB1b5pe94ff/999GGhZ7oI/uyYpJrX9YxY8bEYwmlvQmmu3fvjtdgf9t8ZfLkydGZ54lzBVPC6L59+2K7rl27lvNe5qvfzxRQQAEFFFBAAQXSJ2AwTd89sUU5BAhG33zzTXjrrbdi2Fy8ePHPjmJklNV0CaJsxcJ2L4RT3ssujMYx2sr2LIz6sWgRCysxKst5W7dujfUk5zI6d+rUqbjXaG+2dMm+Xil/ZqSUsPjOO++EiRMnhvvuu69P1RPkvvvuu/Duu+/GlYZZbZi9WgmL9JvX6NGj476zDQ0N8Vh+IYBNdmHBJra64V4QUjHEkgWdKNSb3BOC/YEDB2LbGTnNV7g3rFS8ZMmSGLyTha+SXwZwr7kfBF1GgOlDrl9A5LuGnymggAIKKKCAAgqkS8Bgmq77YWuKFGB6KKNoBEvCG0Hp+eefj+Eou0q2fyHcvPHGG3HKKNu7EK4IrJs2bYrnUg8vjuMzXoTAuXPnZldXVT8nW9i89tprcUSZ4P7cc8/FkePsjtbX18cg+ve//z0cPHgwBkksm5ub46GMNjMCy30hjGLJSDfTo/MV7g+F8M1obuJPUKbwles8/fTT4ebNm3EEPXPkOx7k/1FAAQUUUEABBRSoKAGDaUXdLhvbkwDBlGdB2XuUMLV27dq4LygjeNmF0TZGUwmms2fPDgShhQsXxmDKFNZ58+bFegi4TBtdtWpVeOaZZ8KcOXPidjXJyF12vdXwMyOc3377bRyRnD9/fnTcsGFDzqm6jGLj+NFHH8XRZFzwzA6mb775ZpwqvG7duhhMmaqbryRTsQmmTDcmANOWJJhyT7lfjNgSdtmex2CaT9TPFFBAAQUUUECB9AsYTNN/j2xhLwSYysm+o0z3Jfjw7OWKFSvi1+zTeZ6SET4KwZNwQ0n2IGW0ddeuXfFc6mW6Ks+1EpLKXViwiKmuTF9liishmymyPOPJFNxcQZz+ESJ5scgRU20JkLO6Rog5J7Mw/Zbj6TeBEEv6nus5Vqb/btu2LYZOrvvAAw90W1IndTEFmPYdOnQohlxCP6EyX+HeEHgZbWXqMc/2UldSaBfTmHlZFFBAAQUUUEABBapDwGBaHffRXvRBgFHRlStXxpFSghlhKXkusg/VlOVQprYygjllypQYHgmGBD9GdXkRrrMLo6BMp2XRI8I7IZJpsIRTpiZn9p3RZqbOUhfBfunSpXEEOrtOf1ZAAQUUUEABBRRQoJQCBtNSalpXRQgwukgwZeSO0TdGVzPDWZo7wWgpo5eMYjJt+W9/+1tgGjPTkRlFzRVMGf3keVmOvXLlSpyWzNRk6mLabebUZEZhWXSI50ox4vNkam6aXWybAgoooIACCiigQGULGEwr+/7Z+n8IEJ54BnT9+vUxZBLWPvzww+7nEjOhCKKMOPJihLCSShIUed6SF0GTrXSY8ppMSc7uD9Ngb9y4EY9jP1FCOOGW7ViyC0GdLVp4fpNXqQqLKjGFmq14mE6crzBFmKm/tNmigAIKKKCAAgooUBsCBtPauM9V30uevWQUkVB1/PjxOGX1xRdfzLmaLM9NPvTQQ4EpvZUWTCv1RhKI2d6Fr7jnK4RsnjPlq0UBBRRQQAEFFFCgNgQMprVxn6u+lwRSnonk9cknn4T/+Z//CS+99FLcTiS780x5JRyx/UuuUcPs4/357gUY/SSY8rIooIACCiiggAIKKJAtYDDNFvHnihTIfE6S1VpZyZUVd3m+MrswlZdpr8k+pkwBZiEgprFWSkmeKd28eXNg6it7hr711ltxpV36w4sps0yJZQ9Rpvyyai4BngWNMBjIwvWSdhUaMc1sF9vE8Kqke5PZfr9XQAEFFFBAAQUU6J2AwbR3Th5VQQJJMGUF21zPXV64cCHu1cn+mgTSTZs2hZkzZ1ZU+OH5UhZvIuTx7CZ7j7799ttxQaNf/OIXsT9HjhwJ77//fvj666/jgkaEdVbhZdubgQ6m7DN67733hieeeCLcc889vf7TxKrJPAtMELcooIACCiiggAIKVK+A/9qr3ntbUz1rb2+P03ZZZIfFfdijk21PMkdSE5Dvvvsu7NmzJ2zdujXus8lxmftkJsel+StBjVV1ebHvKvu3bt++PZw+fTqGUEZQ+Z5Q+vHHH8cATj/XrFmTt1ucx3OgLKjEi2dwWXDpbkcsqYcRU57tLbSPafa95PqVsmpyXlw/VEABBRRQQAEFFOhRwGDaI40fVJIAq/AyakhAY3SO6aq8GFm09F6AYI/ja6+9FqcCY8j2MUwBHqjivRwoaa+jgAIKKKCAAgqkR8Bgmp57YUvuQoAVXHfu3Bn++te/xq1QkqmuBtO+oSbBlOdWjx49Gk9mpHMgg6n3sm/3zKMVUEABBRRQQIFqEDCYVsNdTHkfmCZ7/vz58P333/dpFVxC5dixY+OrN11kuidTXAlXbBlDUG1sbLzj1JMnT8YpviyqwzOmrMybOeWXaavs4cmUU0bvmFq6b9++OMU1aU/m8XdcYIDfoI9sgcPIJqPFTMWl7xcvXox949lOnuvszXOl9CtxZPEorJj2PGrUqDt6Rf3YMG2a7Xowy5zyS13Yzps3L77Pz2wDU2h/0jNnzgRePB9MfdnWvM9zwrz4PrknQ4YMuaONvqGAAgoooIACCihQGQIG08q4TxXfSlaHZXEenu/sbWHhG56JXL16dcFTCEZsFUM44dlKQhPbxeR6dpTwSoBjRVtCFcEp8xlGgl7y3OmJEydi0Pvb3/4WFw6iLTzTmR2WCjawHw+g7ytXrowhnEDHs6Hs4cqzmYRvVuOlP73ZGoe+E3DpJ0GTkMsoNM+eZhdCI2H3kUceCdOmTYvXyPxFAKbYPvXUU+GHrpWBqYvFmAiz+Upyf1goiQWs+AUB7yWFlZb5RcG2bdvic8W0lT8nBtNEyK8KKKCAAgoooEDlCfzzX3uV13ZbXEECBFNCXl+m1hJ2OJ5wVagkwXTRokVxUaO//OUvgRejp9mFMPov//IvMZgSfAhTuYIpU1j37t0b63n99ddj8CKU3n///dlVlvVnVuYlmNL3L7/8MraXvm/cuDH2k6/0MTM09tRgFikimD733HPRnnp43pQR7+xCcMXx6aef7g6lmddIgikLNDEt+JVXXonBlJCar3A89RJMuQe0KTOYMpLLLzi2bNkSLl++HPtFm7k3FgUUUEABBRRQQIHKFDCYVuZ9q4hWjx8/Po5i5go1vekAwYcpqIz8MZWU8MFWKMuXL49TVzPrSEbvGMHjHEIaz0neunUr87D4PYGXkbxJkyblnKJKoOKavNiqZMGCBTGMEmLpUylKZn/oF1Nxiy2ZfWckmBFJprkyskio681IaXLtpO+MVtNGRisZkWQEOrswhRYbjDg+uzCqzPV5YY35fffdF9jOJ1/Bgl9G9FQv/aU+FmbieVS2v3G0NJ+onymggAIKKKCAAukXMJim/x5VbAsJFmwP0pd9KzM7S8hkdJMRQUIiU1IJNbzYd7SnQqBdu3ZtDHu59jFldJV6CXGFCoFr1apV8TlGghrnlWIaL2GR6ae0lRf1pq0ko8ME0FwBn8BJu3OF0uy+YM0vFLiXPLebr3As9fa04BKj6ARmRmcZPeXY3tzLfNf0MwUUUEABBRRQQIHyChhMy+tf1VcnmPJat25dSfpJmGP0rlBJwl6hPTsL1cPnhC6myfIqZaEvvEoxLZjnaHkGlBdBnOBMeGNk8W5CdCn7TnBMtvC5W0dGRxmp5WVRQAEFFFBAAQUUqA4Bg2l13Ed7UcMCV65ciSses+ox05cJvM8//3wMvcWOVtcwp11XQAEFFFBAAQUUKIOAwbQM6F5SgVIKMDWW7WHeeuut+KwlqxNv2rQpjlbzLKZFAQUUUEABBRRQQIG0CxhM036HbJ8CGQLsAcq2K5l7gbJnKyvdHj58OLCiLdOnH3744bjoUMapfquAAgoooIACCiigQGoFDKapvTU2TIE7Bdh2Zffu3T/bD5ZnS3mWlBWLWRSKFW15vtSigAIKKKCAAgoooEClCBhMK+VO2U4FugSOHTsWPvjgg/DOO+90ezBC+vjjj8fpu6xQy8q3BtNuHr9RQAEFFFBAAQUUqAABg2kF3CSbqEAiwGq7rHCbuUULe6uyyBH7hLKnZzGFBZPYgoUVftmvla16LAoooIACCiiggAIKDJSAwXSgpL2OAiUQIDRu2LDhZ/u4sr8qobKnfT97c9nZs2fHEVf2GmUbFvYwtSiggAIKKKCAAgooMFACBtOBkvY6CpRAgMWNJk+eHBc3Sqqrq6uL+5YymlpsIZgy6so+qNRzN3UV2wbPU0ABBRRQQAEFFKhdAYNp7d57e16BAv0VGvur3goktskKKKCAAgoooIACZRCoK8M1vaQCCiiggAIKKKCAAgoooIAC3QIG024Kv1FAAQUUUEABBRRQQAEFFCiHgMG0HOpeUwEFFFBAAQUUUEABBRRQoFvAYNpN4TcKKKCAAgoooIACCiiggALlEDCYlkPdayqggAIKKKCAAgoooIACCnQLGEy7KfxGAQUUUEABBRRQQAEFFFCgHAIG03Koe00FFFBAAQUUUEABBRRQQIFuAfcx7abwm1IItLa2hhs3b4QbN26Ezs7OUlRpHQoooIACCiigQLfAoDAoNDU1heam5jBkyJAwqG5QqKurC4MGDeo+xm8UUKDyBAymlXfPUt3iW7duhdOnT4eTJ08GQqpFAQUUUEABBRQopUDdoLowccLEMGH8hDB69OhQP7g+DGroiqsG01IyW5cCAy5gMB1w8uq+YEtLSwymBw7sj6Om1d1be6eAAgoooIACAy1QV1cfWm+1hsaGxjC0eVgY0tUAwqlFAQUqW8BgWtn3L5Wtv337dujo6AgXL17sfqWyoTZKAQUUUEABBSpGYELXKOnUqVPD1CmTwvDhw0PD4IaKabsNVUCBwgIG08JGHlGkwJUrV8Lhw4fD998fLLIGT1NAAQUUUEABBX4SuHfZvWHalGldwXRqGD1qdGjoer7UooAC1SNgMK2ee5m6nly/fj2cOPFj2Pvt3rg4AQsUNDT4283U3SgbpIACCihQkwLMcEpeaQVgBlZbW1tct2LShEldyx4NChPHTwzNzT8tfJTWdtsuBRTou4DBtO9mnlGEwJw5c8LixYvD9OnTizjbUxRQQAEFFFCg1ALtbe2BRQt5XrMropa6+pLUd/78+XDo8KFw6NChktRnJQookF4Bg2l6701VtWzu3LnhiSeeCA888EBV9cvOKKCAAgooUKkCLFh47eq1+EppLg3fH/w+0LZjx45VKrPtVkCBXgoYTHsJ5WHFC7B8+7hx48KCBQvC6tWri6/IMxVQQAEFFFCgZAI3rt8Ily9dji8q5e9rtmIpd+m83Rmn7rLtHI8FjRg5Iu5TWu52eX0FFOhfAYNp//pauwIKKKCAAgookHqB+q4tWFgHon5w+f9p2NYVSFlA8dyFc+HMuTMxnHZ2dqbe0AYqoMDdCZT/vz53137PVkABBRRQQAEFFLhLgfr6rmDatUhhY2PjXdZ096ezIFPLrZZw9tzZ+Lp2/VpcpOnua7YGBRRIs4DBNM13x7YpoIACCiiggAIDIBCn8dbVxSmzjE52dnZ0vcqzIFJ7+0+r8N5qbQmtba2ho6stFgUUqH4Bg2n132N7qIACCiiggAIK9EqA0cr29vauLVq6AmF7eQIhizK1dYVT2mJRQIHaETCY1s69tqcKKKCAAgoooEBBAYIp28iwf2g5CtN4DablkPeaCpRXwGBaXn+v/g+BEydOxD3Kjhw5UtDknnvuCbNnzw4zZ87sPvbq1avx/MOHD8dNt/mcvVMHp2ARh+5G+o0CCiiggAIKKKCAAgrkFDCY5mTxzYEWOH78ePjoo4/Chx9+WPDSa9euDSzSkB1Md+3aFd55550wduzYsGnTpjBjxgyDaUFND1BAAQUUUEABBRRQoPwCBtPy34OabQFThG7evBl4luTo0aPhu+++Czt37izoMXr06DBv3ry4L2pzc3NoamqK9Rw8eDB8/PHHYfLkyWHhwoVdiza4tHw2JtOzEnPCfeLHohcWBRRQQAEFFFBAAQXKJWAwLZe81w0XLlwI33zzTXxdvnw5TJ8+Pfzud78rKDOkazn7H374IfzhD38IS5cuja+CJ3lAFLh06VL49ttvozkjy0uWLIl+BlP/gCiggAIKKKCAAgqUU8BgWk79Gr/2+fPnw9atW8Nrr70WZs2aFR5++OGwbt26girbt2+PI6NM3f3lL38ZJkyYEEaOHFnwPA8IgV8A7NixI5ozFZr96hYvXhy3B9BHAQUUUEABBRRQQIFyCRhMyyXvdeMU3pMnT8YRPILlqFGjwvLlywvKEGgZaWUqal3XnmuO9hUk6z6AVRZPnz4d9u3bF6c6X7x4sfszv1FAAQUUUEABBRRQoFwCBtNyyXvdogWY8vvYY4/FxY2YisqIKc+pWhRQQAEFFFBAAQUUUKAyBQymlXnfarrVBNOJEyfGab9MRWXxIxZPsiiggAIKKKCAAgoooEBlChhMK/O+1XSrCaO8elOYKvzjjz+GM2fOdB8+dOjQMG3atPhiVdrs0traGthXlfOuXLmS/XH8eerUqYEXo7VJ4djkPOpISnKtcePGJW8FFiGifo5npdzsQruon3OHDRuW/XE8J7kWdeUqrE5MHZMmTcr1cWBKNM/pvvHGG4G9YblWdn+SNmb2J6mMe5C0ccSIEcnb0Zq2nTp1qvs9fnlA/Rw/fPjw7vf9RgEFFFCgMgT4u4a/S0+fOR1u3759V40ePmx4/AUzv2RmQUOLAgoogIDB1D8HVS3ASCr7o7JgUlKmTJkSHnnkkcC2M7mCKc9h8gzm3//+9/BD1+q/uQoLNVFHZpBjlWGuw/WSQMszsBzH8ZnBlFD45ZdfxkWcrl+/fsclqJfzCHy5gilb7bC9DtvjHDhw4I7zeYP9XrluT8GU4PjZZ58FwvtDDz10R3/4R0jSHxZNyi5jxoyJ9dO+zGBKKMWAupNC3+kPodRgmqj4VQEFFKgcgXPnz4Wvdn4VF9Dr6Oi4q4ZPnTI13H///fHvYYPpXVF6sgJVJWAwrarbaWcQYP9S/tIkvB05ciSGt9dff70bZ/78+YFQtWLFiviXYrKAUrKIEqOD+/fvD++88074+uuvu8/L/KahoSHMmTOne0Vb6iDIffXVV+Hll18O586di4sycRyjheyrmlkIsdT9l7/8JZ6X+Rnfs2IuwXnZsmUx/CZt5LfU9I9nagmk7777bgy42efzM8ex2jELSnE+r8xy9uzZ2E7C5+DBgwMu1J9cg/BMG//617/+bMQ5qYMRWQIpW/YQ9pM2Msr66aefhhdffDEa8D7Tr9meZuXKlcnpflVAAQUUqCCBZIu3t95+K/79mvx90Zcu8PcsfycsWrAo/rL23mX39uV0j1VAgSoXMJhW+Q2uxe4RuL744ou4ai8jl/PmzfvZ/qiMkhJcmcJKcOPzuXPnxuPxYooqW6g8++yz4d57c/+lyYgm+4ESRjmXOjILU1Z5jxdb4BDiMsv48ePDmjVr4pTcGzduZH4Uv6cN/AX+3nvvhe+//767LkYj+fnQoUPx2qtXr74j9CaVcQ0C9tWrV+P5tDOzMJKatJHRVdpM4KX+gwcPhmPHjsVQ/dxzz8V/hGSey/f8lptXMrJMXZnXoP1J/SxSRSh1W59sRX9WQAEFKkOAv1NWrvjpl4v80vfosaNxlffetp6/12ZMnxEXLly4YGH8+8LR0t7qeZwCtSFgMK2N+1xTvSSYfv755+GHrmm4jDgyYpg5Ypk8W/nmm2+G2bNnxxFCvrL9DCUJpozwEepyFZ7N5PXJJ5+EX/ziFz+bpsvxhDym0T7xxBMxlGZPp2Vq6wMPPBD/gs71jCmBd+fOnXFElFD75JNPxlFUwuIHH3wQR0kZ8SWY8nxorsKWOrSR4EgbGYHNLNS7fv36+BntpY0EUwL322+/HfuOHcE01/RbbKifabts9fPUU0/9rC38VpxgStsffPDBWD/HWRRQQAEFKk9g/LiuYNr1C0ZmwHz2+Wch2X6stz3h71Z+efnQ+ocCwXTc+HG9Xi+it9fwOAUUqGwBg2ll3z9bn0OAcMVU2ps3b8aRT6bcPv74491H8mwmU1SZdsuzk4yKMiUpKQQqQhzTcHMt+sNxhEam0jIiyV+02c+JEjwZJdywYUNS7c++8hc0v31m9JYpt9mFAErw27FjR5wmS8BmlJd+ETh5fjMZjWRENle5du1afEb08OHD8Tz+EUGfksJ05kWLFsU2MpWXwsIWx48fD9u2bYshlWsQWjOfpU3OZz9U2oEFz5kypTczZOPIFF/+IdNTG5O6/KqAAgookG4BZrzwmjN7Tvz7ifUJTp0+Ff+u5e/bzP/+Z/aEx1n4u45fhi5YsCD+nTB3zs9n8GQe7/cKKFC7AgbT2r33VdtzQhRhkxehqKcRxZ4ACHB79+4Nu3fv/tnKspnHE2x5lrLYwqgt9e/ZsycGwOx6Ll68GAMf4ZRwV0xhmvLGjRvjs7D33XdfHNVNFmXqTX3J4kcE51wjptSFA8flWqCpN9fwGAUUUECByhNglfW1D64No0eNDvsP7I8v/l7LVfg7eMH8BTGULl602Ec6ciH5ngIKRAGDqX8Qqk6A5eeZOvrrX/86jvT19bnGJJi+9tprMaDmAmKklWCWuRptruN6eo+/wLdu3RoXP8o1XZiFm7hGrs96qjP7fRZQYlSU32Qnv+nuSzAlHDNiyzOnyYhq5jX47XjiwD9SLAoooIACtSEwbeq0MGrkqMAvQHlOlC1kegqm0++ZHtatXRfWrF7jyuy18cfDXipQtIDBtGg6T0yrQOaUIfYs7W3hL1WmyiZ7cDIVtadnIgmOuRYtynctpgVTPy+mExPqGGnkOtmFcMyL6bjFliSMFns+z9wyBYvw3dMCFckWOEzP4hnVXAG22Ot7ngIKKKBAOgWSrb/4O+z4guPh1JlTcZ0GfqHJLBoeV+EXo2NGjwmMkvJYyIwZM9LZGVulgAKpETCYpuZW2JByC/zQtVgSe4uyhymhjuciCWa5Csfx4i/g3haeQ2XqbnIe1/jNb37TvehSZj2E5OQame8P5Pc8Z7tq1aq4SBNtzVeYPs0CUz0F2Hzn+pkCCiigQGUK8N98nhcdVDcoTJk8JT6isnvP7sBCSTxOs/ze5WH2rNlh4oSJldlBW62AAgMqYDAdUG4vlmYBFgliexYC4b/+67+GzZs3x1V9c7WZRYRYJKgvwZQRVp4rffXVV+Nvk7kGwTTXqCxL8SdTinNdfyDe47fdbID+7//+73E0NN81GV3FJHNxpXzH+5kCCiigQOULEExZYJDRUKb38ugIz5yyuB9rGzzz9DNhSMMQZ9NU/q22BwoMiIDBdECYvUgpBVgJkFVrWRWWZet5laLwzCThkemzrNLLlOBcoZFrMUW4r9NWqZPpvEn9hDmmyea6Bu8zWptsYVNM/5iSjBOborP4RF+dkqm8jJbmaiP/ACGccw2mI5fyXhTTX89RQAEFFBhYAfarJpzyYuYM03ZZG4EVeHn+dMTwEXFP7oFtlVdTQIFKFTCYVuqdq+F2E4Q+/PDDuDDPhq7tWAhwjtTd+QeCqcnsYcoKw4899lgM03ceVfw7BFOmJnMvCOncCxaesiiggAIK1J4Av1BlmzRm2/Ds6dQpU2sPwR4roMBdCRhM74rPk+9GgFE2AiUjkwQbRiyz9wPNVf/Ro0fjPpvvvvtu/A3t8uXLSxKIGCFkwQaCLr8FZiptT+3hM/YV7UuhTvpJ/fx2mW1YGKHl++zC+4yuZu9xmrQRM+rjmJ7ayHRgpiV/8cUX0YmtcxjpTcz5Sh84nzYlI8BJG7kfjPISQHNdg0UuWMSJ8Mv5s7p+O+5+pdl30p8VUECB2hBgdHTE/BFxa5ja6LG9VECBUgsYTEstan29Fhg7dmxYs2ZNDF8ELkZCf//73xc8n9VsCUEvvPBC3BaG6UOlKNTJvp/sG8qKg5999lncSzRX3YS9vu5jSihkMQhCJ8+mMt3p5Zdf7g6Emddh5d6dO3fGYzJHIZkuy8gkdixOtG3bth63tCE4zp8/P8yePTsuYMQKugRvnvsh0BI8mQ79hz/8IR7HyrrUyW+8n3vuubh6cEtLS2DbnFwj0qxMTEB/9NFHf5rCtXhxrD+zH36vgAIKKKCAAgoooEBvBAymvVHymH4RSIIpgXDXrl1xai4hqFAhOLFaLAGLUMrr7NmzhU4r+DntYPoRq8tu3749BtOewueZM2fiNRkp7G0hmC5btiwuJMRII3uEfvDBB4Hwl114jz5l72PKAhOMlhIiaSPBlBHkXIWRZJz4ihHBlF8A8B4B95tvvolt2LJlS9i0aVPsO88F4cvx7F9KG7knubatYdoWiyM98sgjcSsAziH4WhRQQAEFFFBAAQUU6KuAwbSvYh5fMoFkHzRG9Jgqyoq1jOAVKoQ7QuTatWu7D2V0kOdaCG4EJBbsYaprrsLoH6F45syZYerUqXEBIo7jPF6MmLKoD6OB+drDqoO8CHzJ1Fy+p23JqGvm9QltLELEi4C4f//+QLuvXLmSeVj399Q5bdq0+Er6Q/28qIPQzKhlT21kSi6rJT744IPddfIN/ebFuYRTQjaj0IyiZl6T0E045TNGcLML04xpF6PABOWkEMDZ05Rr49mX8J7U4VcFFFBAAQUUUECB2hIwmNbW/U5tbwlgjLwRGAsVRjQJVpmF0bsVK1bEMErgJSglz0xmHsf3hCmetyS4EmbZ+JugmBQC5OKuaakENUYE8xVGWLku9fA85urVq+O0VwIvgbunQrhkGjPXyjVimnkeIZQ+Z06n5Xvee/rpp2MwzDw++Z6RT87tqTA6+tBDD8Vpy0uXLo0hPfNY+kT/ccz1jCnO9J3pv5kluZeEdj7nOhYFFFBAAQUUUEABBfIJGEzz6fjZgAkQoAg4TDMtVBiRI4hmliSYzp07N4ZMQlNm2Mw8NgmmBFJCF+eyEFNSkmDKdFdGTfMVrsG1qINgSpAjMFIH7/dUCG0EUwJw9gJH2ecw4khduYIpIbCnYEtoztcGAiOfM9U317EEU+4HIT/XQk/YcX72NZJ7iUWuz7P7588KKKCAAgoooIACChhM/TOQCgHCJq/MhX760jBCG0GKV6HCdFVGZnsanSVssm9nrr07C9VNIGU0tFDhOF4E1GIKQZqAzavYwrOqvJhum6vglEwdzvV5T+8l97Knz31fAQUUUEABBRRQQIFsgX8OE2V/4s8KKKCAAgoooIACCiiggAIKDICAwXQAkL2EAgoooIACCiiggAIKKKBAzwIG055t/EQBBRRQQAEFFFBAAQUUUGAABAymA4DsJRRQQAEFFFBAAQUUUEABBXoWcPGjnm38RAEFFFBAAQUUqAmBjs6OuL91CLdDW9d2aa1traG9rb0sfW9rb4urwbPavUUBBWpHwGBaO/faniqggAIKKKCAAjkFrl2/FlovXoh7eLe1tYUkHOY8uJ/f5PpXrl4J7e3lCcb93D2rV0CBHgQMpj3A+LYCCiiggAIKKFArAgTT8xfOh4uXLsb9tRmtLNeIJft7tzFiazCtlT9+9lOBKGAw9Q+CAgoooIACCihQgwItLS3h7Nmz4fjx4+H0mdPh9NnT4WLXqGmayoXzF8KNGzdiWE5Tu2yLAgqUXsBgWnpTa1RAAQUUUEABBVIvcOHChbBr967w2aefxZHSq9evxhCYpoZfuXwlnDl9Jj5zmqZ22RYFFCi9gMG09KbWqIACCiiggAIKpF7gQtfo6M5dO8Prf3s9XL9xPYY/FkFKU+lo/2lRJqf1pumu2BYF+kfAYNo/rtbaJTBy5Kgwd87cMGTwkDBzxswwZMiQcP3adW0UUEABBRRQIAUCtztvh1Fdf1fPnDkz3Lp1KwUtyt+EBQsWhLFjx+Y/yE8VUKBiBQymFXvr0t/wCRMmhHFjx4X7VtwX5sydE4Y2DQ2XL11Of8NtoQIKKKCAAjUg0DikMSxetDgMaRhSEQsNTZ48OUydOrUG7oxdVKA2BQymtXnfB6TXEydMDFOnTA1TJ08NgwYNii+D6YDQexEFFFBAAQUKChBIFy1cFF/lWoG3YCMzDkj+LZHxlt8qoEAVCRhMq+hmpqErTNdllHTm9FnxN7BjxowJw4YNS0PTbIMCCiiggAIKVIlAQ0NDqKurq5Le2A0FFEDAYOqfg5IKJMG0flB9qK+rD42NjV2vppJew8oUUEABBRRQoLYFCKUG09r+M2Dvq0/AYFp997SsPWJa0OhRo7ueJx1Wto25ywrgxRVQQAEFFFBgwATquh4VsiigQHUIGEyr4z6mphc8/zF4sH+sUnNDbIgCCiiggAJVLMC/O+rr6+M6FlXcTbumQE0ImCBq4jYPXCcH1XX9BdFQH+rqfe5j4NS9kgIKKKCAArUrwL89CKgWBRSobAGDaWXfv9S1vnvFPHNp6u6NDVJAAQUUUEABBRRQIK0Cxoe03hnbpYACCiiggAIKKKCAAgrUiIDBtEZutN1UQAEFFFBAAQUUUEABBdIqYDBN652xXQoooIACCiiggAIKKKBAjQgYTGvkRttNBRRQQAEFFFBAAQUUUCCtAgbTtN4Z26WAAgoooIACCiiggAIK1IiAwbRGbrTdVEABBRRQQAEFFFBAAQXSKmAwTeudsV0KKKCAAgoooIACCiigQI0IGExr5EbbTQUUUEABBRRQQAEFFFAgrQIG07TeGdulgAIKKKCAAgoooIACCtSIgMG0Rm603VRAAQUUUEABBRRQQAEF0ipgME3rnbFdCiiggAIKKKCAAgoooECNCBhMa+RG200FFFBAAQUUUEABBRRQIK0CBtO03hnbpYACCiiggAIKKKCAAgrUiIDBtEZutN1UQAEFFFBAAQUUUEABBdIqYDBN652xXQoooIACCiiggAIKKKBAjQgYTGvkRttNBRRQQAEFFFBAAQUUUCCtAgbTtN4Z26WAAgoooIACCiiggAIK1IiAwbRGbrTdVEABBRRQQAEFFFBAAQXSKmAwTeudsV0KKKCAAgoooIACCiigQI0IGExr5EbbTQUUUEABBRRQQAEFFFAgrQIG07TeGdulgAIKKKCAAgoooIACCtSIgMG0Rm603VRAAQUUUEABBRRQQAEF0ipgME3rnbFdCiiggAIKKKCAAgoooECNCBhMa+RG200FFFBAAQUUUEABBRRQIK0CBtO03hnbpYACCiiggAIKKKCAAgrUiIDBtEZutN1UQAEFFFBAAQUUUEABBdIqYDBN652xXQoooIACCiiggAIKKKBAjQgYTGvkRttNBRRQQAEFFFBAAQUUUCCtAgbTtN4Z26WAAgoooIACCiiggAIK1IjA4Brpp91UQAEFFFBAAQUUUEABBVIt0N7eHm7cvBFaW1vDrdZb4VbLrdDa1lqWNt++fTu03GoJHR0dA3J9g+mAMHsRBRRQQAEFFFBAAQUUUCC/wM2Wm+HmzZsxnLa1twWCakf7wATD7JbdDrfD1atXu0LyreyP+uVng2m/sFqpAgoooIACCiiggAIKKNA3AUYoz5w7E06fOR06OzsCo5Zd/79shdHSjo72Abm+wXRAmL2IAgoooIACCiiggAIKKHCnQEtLSzh+4nj4eufXoWloUzh37lw4f+FcVzAtYyLNaua1a9fC+fPn4xTjrI9K9qPBtGSUVqSAAgoooIACCiiggAIK9E3gxo0b4bvvvgs3b9wMgxsGx2m8129cD10zaVNTeN6VYEqI7q9iMO0vWetVQAEFFFBAAQUUUEABBQoIxGC6/7uw/8D+7iOZwpu20t9tMpim7Y7bHgUUUEABBRRQQAEFFKgZgWFDh4UZM2eEmTNmhuHDhqe+33Pnzg3z5s4LDQ0N4XYJpxsbTFN/622gAgoooIACCiiggAIKVKvAsOHDwrKly8JjjzwWJk2alPpujhk7JsycOTMG09ZbpdvKxmCa+ltvAxVQQAEFFFBAAQUUUKBaBYY2Dw1zZs8J69evD7NmzU59NwcPrg9DGoeUPJjWpb7nNlABBRRQQAEFFFBAAQUUUKCqBQymVX177ZwCCiiggAIKKKCAAgookH4Bg2n675EtVEABBRRQQAEFFFBAAQWqWsBgWtW3184poIACCiiggAIKKKCAAukXMJim/x7ZQgUUUEABBRRQQAEFFFCgqgUMplV9e+2cAgoooIACCiiggAIKKJB+AYNp+u+RLVRAAQUUUEABBRRQQAEFqlrAYFrVt9fOKaCAAgoooIACCiiggALpFzCYpv8e2UIFFFBAAQUUUEABBRRQoKoFDKZVfXvtnAIKKKCAAgoooIACCiiQfoHB6W+iLaxUgZaWlnDjxo34Gjp0aODV1NRUqd2x3QoooIACCiiggAIKKNBPAgbTfoK12hB+/PHHsGfPnvDNN9+EZcuWxdfs2bOlUUABBRRQQAEFFFBAAQV+JuBU3p9x+EMpBU6ePBk++eST8Pvf/z5+5WeLAgoooIACCiiggAIKKJAt4Ihptog/l0zg+vXrcdR03759Yc2aNXFKb2blfH7+/Pn4GjZsWBg3blx8ZR7j9woooIACCiiggAIKKFD9AgbT6r/Hqe3hhQsXwtatW+Nr1qxZMbwSTi0KKKCAAgoooIACCihQWwJO5a2t+52q3hJMt23bFl566aXw3nvvhR9++CFV7bMxCiiggAIKKKCAAgooMDACBtOBcfYqOQQ6OjrCzZs3w+XLlwPTetva2nIc5VsKKKCAAgoooIACCihQ7QIG02q/w/ZPAQUUUEABBRRQQAEFFEi5gM+YpvwGVVvzbt++Hdrb2wOjpbdu3Yrf8x4/t7a2xhHU+vr6kLyS/nd2dnafl7zX09e6urru8wcNGnTHYdTF9XjxeXKt5Bp8TUry+eDBg+OxyftJH7KP5Tjqy3Xd5Fy+Jm2gnlwluS510Z/skpjRB75P+pDr2Oxz/VkBBRRQQAEFFFBAgbQJGEzTdkeqvD03btwIBw4ciK+dO3eGvXv3xoB64sSJ8NFHH8VwOn/+/MBr6tSp3Rrnzp0L+/fvj+cVmvI7adKkeP6CBQsCQTG7XLlyJdZDfSNHjozHcr3Dhw/H948dO9Z9ypgxY7o/Z+XgpBw6dCgeS7uTMnbs2MA1qau5uTl5O+dX+pM4EMizy/Dhw7vrGjVqVPbHcdpzcn5LS0t3G+mPRQEFFFBAAQUUUECBShO481/tldYD21tRAjxTumfPnvDmm2/Gr2fOnIlhNAmmhK2nnnoqBsbMYHr27Nnw5ZdfxvN4HjVfuffee+Mo4pw5c3oMpl999VWsi2swOjl37ty4+BKLMH322Wfd1c+ePTu255577gnZwfSdd96JKwonB8+bNy8eO3369ILBlG1yWJEYh6tXryZVdH+dMmVKrIuQnSuYMtL63XffxfN5RhczzjGYdhP6jQIKKKCAAgoooEAFCRhMK+hmVUNTmXp67dq1QCDlxfdMa2XUj1V6+f7SpUvd03wJbRzDir2MZBJgGXXNVxjlPHLkSBwBZRST0cfMUEk4Pnr0aAyGhLlp06bFEUfO4Ro//vhjd/VDhgyJxzKaykhrUjj2+PHjPzu2qamp+1j6M2LEiHjt5BzCJH2hT/SHNtAf3ssuOPE5xzE9N6krmaqLEwGdkVfcqJNzLAoooIACCiiggAIKVKKAwbQS71oFt5kprsuWLYshaubMmWHXrl2BKb2Ew+XLl4cVK1bEFyOFBK/du3fHYwhgjAb+27/9W696f/HixfDiiy+GJUuWxHoXLVqU87zTp0/HEVLCLqFv4cKF8ZV5MFNtX3/99Z89N8pzndTNK7MQel999dUYdOkPo7dJ4RpJfxgBJmz+5je/ST7O+fXdd9+NU5ipi1djY2M8rqGhIbZz8+bNMajzGQHcooACCiiggAIKKKBAJQoYTCvxrlVwm4cOHRqWLl0aZsyYEZgeS+jbt29fDKaPPvpoeO6552JgI7QRLglyr7zySgxkmzZtCrwyRz9zUXz77beBaba8Hn/88cAIaqFgyvTixx57LDzxxBPhgQce6K6WEUvCIS9GJpOycePGeOyqVauStwLPnXJNjiVg04fMYErQ5joEV0Iw16I/uQLlqVOnYj3UR0gnkC5evPiOYMpUZEZKkxHV7sb4jQIKKKCAAgoooIACFSRgMK2gm1UNTWUxIoIiL0ZBR48eHVeUJWwSwHjWMymMKhJOmV7LcUyrnTVrVs5nLpNz+MooKIGXUMn3+ab+UicjsRMmTIhBmfp5VjQpTMll2izTdqmH45JjGfHNPJYpuYRE2jtx4sQ7pujyGdOU+Zz+MupJHVhkFwI8izMRPHnGlJ8zV/ol2PJ+rudPs+vyZwUUUEABBRRQQAEF0i5gME2WmURKAABAAElEQVT7HbJ9/SpAGH7wwQfji2m8TCnuqUyePDmsXbs2Hsvqu5mLM/V0TrHvM4rK9FymPvPsKiv9EmQtCiiggAIKKKCAAgpUo4DBtBrvqn3qtQDBdN26deGFF16IITDX9jJJZSyUtH79+vCf//mfcfQ237HJOcV+TYIp056TPU3783rFttPzFFBAAQUUUEABBRQohYDBtBSK1tHvAjzf+fXXX8dpt0xrzVfYRoXnPXuzSm19fX18bpM6mdabryTHMg03WR033/HZnzH6yajsL37xizgtmKm/W7ZsyXldrsFzuLx4ftSigAIKKKCAAgoooEA1CxhMq/nuVlHfeB6VfUxPnjyZc2/SzK4SYnmOk+1Z0lQIv6xIzHOhbD9z8ODB8PLLL8fnYbPbyTOqycJNBtNsHX9WQAEFFFBAAQUUqDYBg2m13dEq7Q/7dB44cCAuaJS5CFC+7jIdllHKtEyBpS08m8prx44dcXGjL774Ily+fPmObrBiMVOH2Y6GxZl4vpQR3d72/Y4KfUMBBRRQQAEFFFBAgRQLGExTfHNs2j8Fxo0bF7d8YSpsoSm3/zwrhJUrV4bp06dnvpWK7+nPmjVrYltyrRpMECWEsvUMgZztbvra91R01EYooIACCiiggAIKKNALAYNpL5A8pPwC48ePj0HumWeeybnvZ08tZCsWzk1bIZiyX+qcOXNyPgvL1OWtW7eG9957L7AaMCGVY/sSytPWZ9ujgAIKKKCAAgoooEBPAgbTnmR8P1UCTMtlj9H777+/4N6djEBeuXIlTpHluc60TOVta2vrbheLJzFFlym7LKqUXXgGddu2bXG6L8/M0m/2U7UooIACCiiggAIKKFCNAgbTaryrNd6ns2fPhq+++iq+mP7KdF6e1Sx3ITDv2bMntouRT9p13333xedgy902r6+AAgoooIACCiigQDkFDKbl1Pfa/SJw5syZwKJCf/rTn8LGjRsD02bTEkx3794dXn311cBIblNTU2wXiyJZFFBAAQUUUEABBRSoZQGDaS3f/TL3nem58+bNCw899FCYNGlSYKTzww8/jN/zc2NjY5g5c2Z8FpNprNevXw+fffZZfD9f09kqhmmzTP3l+Uz2BE1DYUoxz7yyGBPtI0DTHwJqdrl06VKcunvvvffG1XmnTp36sym/bIVz+vTpcOrUqVgX/cTMkJst6c8KKKCAAgoooIAClSBgMK2Eu1SlbRw7dmxYvXp1DGvsT0qg3LVrV1i/fn1Yt25dfP6SYMbo4vHjx2OQ+7//+7+ciwVlErHvJ/uA/va3vw1z585Nzaq8yT6mhEf6SjD985//nLM/hHL6sGnTpjBjxowY4FmpNykE2++++y4GW7bSScwMpomQXxVQQAEFFFBAAQUqScBgWkl3q8rayhRbRhAJp1u2bAnbt28Pf/nLX2IvWYGW50MJpsuWLQtffvll+MMf/hAIpgSxfGXt2rXhhRdeCM8//3wcLU3L3p8EU/qzdOnSuLAR/Xn55Zdz7mPKSDF9YCry/PnzA4slZfaDEVOCKW6s4MvoM3VPmDAhH42fKaCAAgoooIACCiiQSgGDaSpvS3U0iumlhMSOjo74lammmYWglaxIy+q0jJIy3ZWgSsDK/JzRQ1amvXnzZnxl1pP9PUGOF6OOSf2ZxzCiunz58vCrX/0qTn8lBBP8cpVRo0aFFStWxDA8bdq0MHv27FyHxfdGjx4dFzO6du1aPI5wmVnoDy+uRf9WrVoVWBAp1z6mbHFD0KTOXKsK8x7ToAmuBHWeoU3LlOXMPvu9AgoooIACCiiggAK9ETCY9kbJY4oS4LnIhx9+OO6/SaibMmVKj/Xw+aOPPhoWLFgQ+D47xBLU2PeTAMtoYb5CmKOOXIGO89imhRVxCYeMYtLOnoIpdREgCdmMSnIs4TJXYWoy4Zl+cg3a0FNJ9jHlmFz9YUou16KeXIVpvVjRptbW1ngtvrcooIACCiiggAIKKFCJAgbTSrxrFdJmwiQvRhwLFUZEefVUCIi8mAZ7t4UAR6jjVagwurpo0aL4KnQsIZLX4sWLCx0a+0J/il0tmNDNiGz2qGzBC3uAAgoooIACCiiggAIpFMg9fzGFDbVJCiiggAIKKKCAAgoooIAC1SlgMK3O+2qvFFBAAQUUUEABBRRQQIGKETCYVsytsqEKKKCAAgoooIACCiigQHUKGEyr877aKwUUUEABBRRQQAEFFFCgYgQMphVzq2yoAgoooIACCiiggAIKKFCdAgbT6ryv9koBBRRQQAEFFFBAAQUUqBgBg2nF3CobqoACCiiggAIKKKCAAgpUp4DBtDrvq71SQAEFFFBAAQUUUEABBSpGwGBaMbfKhiqggAIKKKCAAgoooIAC1SlgMK3O+2qvFFBAAQUUUEABBRRQQIGKETCYVsytsqEKKKCAAgoooIACCiigQHUKGEyr877aKwUUUEABBRRQQAEFFFCgYgQMphVzq2yoAgoooIACCiiggAIKKFCdAgbT6ryv9koBBRRQQAEFFFBAAQUUqBgBg2nF3CobqoACCiiggAIKKKCAAgpUp4DBtDrvq71SQAEFFFBAAQUUUEABBSpGwGBaMbfKhiqggAIKKKCAAgoooIAC1SlgMK3O+2qvFFBAAQUUUEABBRRQQIGKERhcMS21oRUhcPv27djO5GtFNNpGKqCAAgoooEDNCgwaNCj2PflasxB2XIEyCxhMy3wDqu3yHR0dobW1Nb5ud/4UUqutj/ZHAQUUUEABBapHoGFIQxgyZEh8VU+v7IkClSdgMK28e5bqFhNMW262hOvXrge+tyiggAIKKKCAAmkWGDpsaKgbVGcwTfNNsm01IWAwrYnbPHCdZApvW1tbuHnzZmi91RraO9oNqAPH75UUUEABBRRQoAcBwufghsGhYXBDYNou/2bhNXjw4NDR7C/Te2DzbQUGTMBgOmDUtXehllst4erVq+Hqtau113l7rIACCiiggAKpEmhsbAxjx4wNzaObw+D6waGtvS20t7enqo02RoFaFjCY1vLd7+e+E0wvXLoQzpw9089XsnoFFFBAAQUUUCC/wPBhw0Nzc3OY2DAxNDQMCZ23Ow2m+cn8VIEBFTCYDih3bV2ss7MzLoJ048b1cO369a7nTq+FlpaW2kKwtwoooIACCihQNoG6urowpmuUdMyYMfEZUqbx1neNltbX1wc+syigQHoEDKbpuRdV3ZLz586Ho0eOOnpa1XfZzimggAIKKJAuAVbbXX7v8jBtyrQwacKkMGLEiBhK09VKW6OAAggYTP1zMCAC58+fD/v37w8HDx4ckOt5EQUUUEABBRRQgKm7hFK+Tpo4KQwdOjQGU/db98+GAukTMJim755UZYuY1ssCA0ybmTFjRnyNHDmyKvtqpxRQQAEFFFAgHQJxxHT58jB+3Pju6bvJirzpaKGtUECBRMBgmkj4dUAE+I3l0qVLw4YNG2I4HZCLehEFFFBAAQUUqEkBtogZOWJkfNUkgJ1WoIIEDKYVdLOqoalNTU1h/vz5YePGjWHZsmXV0CX7oIACCiiggAIpFejs6AyXL12Or9bW1pS20mYpoAACLkfmnwMFFFBAAQUUUEABBRRQQIGyChhMy8rvxRVQQAEFFFBAAQUUUEABBQym/hlQQAEFFFBAAQUUUEABBRQoq4DBtKz8XlwBBRRQQAEFFFBAAQUUUMBg6p8BBRRQQAEFFFBAgf/P3n1+x3XceeIuEgQBMJNizlFMSpZEikq2xmk8nt94X+05+2K8/9zO7PHZcGZ3bWlGtkaSrWRZgcqBQRJzJkGCJEDEX39Lbg5INgASbOBe4D7Xpw2w+4aqp26r8emqW5cAAQIEChUwK2+h/A5eF7hw4UI6c+ZMOnv2bP2pMX/GPVFXrlyZVqxYkRYuXDjm+hO9wtWrV9Pp06dzPebPn5/LFWWzECBAgAABAgQIECAwuoBgOrqPVydJ4Pjx4+mdd95J77333l0fsbW1NT3zzDPp6aefLkUwvXjxYvrggw9yPTZs2JDLJZjedXNakQABAgQIECBAoMICgmmFG79MVT9x4kR644030v/8n//zrosV90RtaWlJW7duzfdGvesNJ2jFCKbvv/9++h//43+kxx9/PPfm7tu3b4KOZrcECBAgQIAAAQIEpo+AYDp92nJK12RoaCgNDAyk/v7+tHHjxrRp06a0fPnyUesUQ3ljyOz+/ftTDAWO7eIRzxW1DA4O5jpEXaJOFgIECBAgQIAAAQIExhYQTMc2ssYkCkTYjB7QH//4x+mRRx4Z9ch9fX3p66+/zsNnYwhtbLN06dJCg+moBfYiAQIECBAgQIAAAQINBQTThiyeLEoggum6detSDIF94YUXRi3G9evX06lTp3I4jUmH1q9fn6/rHHUjLxIgQIAAAQIECBAgUDoBt4spXZMoEAECBAgQIECAAAECBKolIJhWq73VlgABAgQIECBAgAABAqUTMJS3dE2iQBMhEJMRdXZ2pkuXLqXu7u6Gh4h7oS5atCgtWLCg4etxn9LYPvbTaDl48GA6f/58nvyo0eueI0CAAAECBAgQIECgsYBg2tjFs9NMoLe3N3311Vfpww8/TMeOHWtYu0cffTTf5mWkYBrXs8YkS7GPRsvZs2fTF198kXp6ehq97DkCBAgQIECAAAECBEYQEExHgPH09BKoz+D70ksv5dvLNKrdf/pP/ymtWLEi7dy5s9HLeaKlt99+O99rtdGtYOJWN9EbK5g25PMkAQIECBAgQIAAgREFBNMRabxQhEDcB/TEiRPp/fffT9HLOdoSYfPKlStp27Zt+RYzmzdvTh0dHbdscubMmXTy5Ml0/PjxdO7cubRs2bIRb0Mze/bsdOjQodTS0pJWrVqVVq9enWKW4Ng+eksPHDiQ//3www/fcoz6P7q6uvJ6sb6FAAECBAgQIECAAIG7FxBM797KmpMgEME0wmH8/Pjjj0c9YoTGCI9PPPFEWrt2bYpgOn/+/Fu2OXLkSHrrrbfyvmLdvXv3priWtNESt5yJ+6J+9NFH6bnnnsuPCKkxdDf2UT/e448/nmbMmHHHLo4ePZrefPPNdPHixTte8wQBAgQIECBAgAABAiMLCKYj23ilAIEYInv48OH8GOvw0Tv6X//rf01///d/n5599tmGq0dYfP3119Nrr72Wfv3rX6df/epX6amnnmq47m9+85u83rvvvpva29vTrl27UvSi7t+/P/3v//2/878jlP7jP/5jDqm37yQCbYTSuA7VQoAAAQIECBAgQIDA3QsIpndvZc1JEIieyC1btuTez5UrV456xOjBXLx4ce7RjImHosc0tr291zR2Ur/G9F//9V9zr2ijHUcgjWHEFgIECBAgQIAAAQIEJldAMJ1cb0cbQyDC5tatW9NPf/rTFLPkjrZE2Pzss89yD+V7772Xt1m+fPmowfTy5csjDuWN61HjWlILAQIECBAgQIAAAQKTKyCYTq63o40hUL+OM64bfeGFF0Zd+/r16ymuIY1rUuP60OgtHekepXHNagyzjRlzW1tbR9xvDN2t38t0tPVG3IEXCBAgQIAAAQIECBC4ZwHB9J7JbDAVBSJkbt++PT300EN5xt3R6jBnzpx8P9MlS5akS5cujbaq1wgQIECAAAECBAgQaIKAYNoERLsov0AE0x07dqS/+7u/G/F2MfVaxEy8MXNv9JwKpnUVPwkQIECAAAECBAhMnIBgOnG29lwigQib0QMaEyTt3r27YcliqG88rl27lvr7+1PMEGwhQIAAAQIECBAgQGDiBQTTiTd2hCki8N1336WYRCmuW33yySfTnj17pkjJFZMAAQIECBAgQIDA1BYQTKd2+yl9EwUimL766qvp/fffz3uNyZSip9VCgAABAgQIECBAgMDECgimE+tr7wULxL1Qo/czZvudO3duvr3MuXPnGpbq6NGj6YEHHkh79+5NGzduzOvPmjUrX5v6k5/8JMWkSOfPn08vvvhiivut3r588803KR43bty4/SX/JkCAAAECBAgQIEBgFAHBdBQcL019gQ0bNqS/+Zu/SZs2bUoRPGOo7kgTGq1duzbP3Lt+/focTCOkRqB9/PHHc2CNIb6xj7/85S8NYTo7O1P0ugqmDXk8SYAAAQIECBAgQGBEAcF0RBovTKZABMDonYz7iMbPRj2SjcoT28WMu/FoNOx23bp1KR4PP/xw+ud//uf00ksv5XDaaF//+T//5/TTn/40z9w7/PVHH300xePf//3f00cffZT+7//9v2NOjBR1iLJZCBAgQIAAAQIECBAYW0AwHdvIGpMgsGbNmvT888+nefPmpX379qUYgjvWEkH0wQcfTL/4xS/S5cuXc3icP39+w82G3y5m586dDdeJIb9RjpGWVatWpWefffauAmfM/Bu9tBYCBAgQIECAAAECBMYWEEzHNrLGJAhEIPzhD3+Ydu3alVasWJGWL18+5lGjVzKCadxvtLe3N283UjCNntjt27enxYsXp66urob7XrZs2ajHrQfTrVu3Ntx++JNxnKiHhQABAgQIECBAgACBsQUE07GNrDEJAnE9ZzzuZYke09WrV+fHWNtFiI3wO1qP6Fj7iLAZjwi4FgIECBAgQIAAAQIEmifgIrjmWdoTAQIECBAgQIAAAQIECIxDQDAdB5pNCBAgQIAAAQIECBAgQKB5AoJp8yztiQABAgQIECBAgAABAgTGISCYjgPNJgQIECBAgAABAgQIECDQPAHBtHmW9kSAAAECBAgQIECAAAEC4xAQTMeBZhMCBAgQIECAAAECBAgQaJ6AYNo8S3siQIAAAQIECBAgQIAAgXEIuI/pONBs0nyB/v7+1NfXl+LnWEvckzQera2tDVcdGBjI+4r91deLnxYCBAgQIECAAAECBMop4K/1crZL5Up1/PjxdODAgXTw4MEx675p06a0ffv2tGXLlobrnj17Nn399df5sWHDhrxubGMhQIAAAQIECBAgQKCcAoJpOdulcqU6ceJE+tOf/pReeeWVMev+/PPPp/b29lGD6bvvvpteeuml9Mwzz6Q5c+YkwXRMVisQIECAAAECBAgQKExAMC2M3oGHC3R2dqZDhw6lCJQLFizIj46OjuGr3Pz99OnT6ciRI7l3tdG6V69eTd9++21677330rJly9K+fftubusXAgQIECBAgAABAgTKJyCYlq9NKl2imTNnpq1bt6bHHnssbdy4saHF4OBgDp5Hjx7N68W6MWTXQoAAAQIECBAgQIDA1BQQTKdmu03bUteD6c9+9rP09NNPN6znm2++mV5++eXcu3rjxo20Zs0awbShlCcJECBAgAABAgQITA0BwXRqtFNlSjljxow0b968tHLlyhHD5kcffZSuX7+ejh07li5evJginFoIECBAgAABAgQIEJi6Au5jOnXbTskJECBAgAABAgQIECAwLQQE02nRjCpBgAABAgQIECBAgACBqStgKO/UbTslvweB3t7ePJPvd999l+L3mFgpHnPnzr1jLzE0ONaLR0y0VF93+CzB9ddjhuBGy6pVq/J2JmVqpOM5AgQIECBAgAABArcKCKa3evjXNBXo6+tLX331VXr11VfTtWvX0o9//ON8K5mRgumXX36Z143tYt3ly5en4cH0m2++ya/v37+/odgTTzyRtxNMG/J4kgABAgQIECBAgMAtAoLpLRz+UbTA0NBQ6unpSZcvX04XLlxoWJx4ffbs2WnJkiW5x3PWrLFP4/7+/txj+vbbb6e4Z+r69evTM88803D/EUajRzRm/633rj777LP59/h39KjGfVI/+eST9Oc//7nhPqJ8mzdvznVoa2tL8WhtbW24ricJECBAgAABAgQIVF1g7L/oqy6k/pMqEENnDx06lP7whz+k6JVstMSMvDG8du3atenJJ5/MPZ+N1mv2czFsN3pS43H16tW0a9eutGXLloaHaW9vT8ePH0//9E//lHbu3Jl27NiRw3DDlT1JgAABAgQIECBAoOICgmnFT4CyVT+C6eHDh9OlS5fybWMale+xxx5L+/btS3v37s29ptFzOhnLqVOn0ltvvZVefPHF9NRTT+X7rO7evbvhoT/99NP0zjvvpA8++CD98pe/TIsWLRJMG0p5kgABAgQIECBAgEBKgqmzoHQCAwMDKYbTxrDZRku8PnPmzDw0tqWlJcW9Tydj6erqysOB47rS1atXpwjIMWS30RK9ukePHk2x7kMPPZR7WBut5zkCBAgQIECAAAECBART50DJBCJwbt26NT3++OP5Gs1GxYvAGteAxnWeMclQrNtoEqNG2zbruRhm/Morr+Te3Ub7jNejjBYCBAgQIECAAAECBMYW0GM6tpE1JlGgHkx//vOfjzg50euvv56H08aw2uhZjWtN45rTyVwieMY1pyP1mMYESd3d3ZNZJMciQIAAAQIECBAgMGUFBNMp23TTs+AxLHfOnDnpgQceSHEv0EZLvB4z8545cyZduXIlh9NG603kc3HNaJQvyjnaEkE7JklavHjxaKt5jQABAgQIECBAgEClBQTTSje/yo9XIG4FE7eQietHR1siaMe6K1euHG01rxEgQIAAAQIECBCotIBgWunmV/nxCkTY/OlPf5piyLGFAAECBAgQIECAAIH7ExBM78/P1tNIICZTimtHv/766/Tee++lixcvjnjLmrGqfeLEibyvmAApQmw8RhqaPNa+vE6AAAECBAgQIEBgugsIptO9hdXvrgUiRL766qv5XqVxz9L7DaZvvPFG+uMf/5h7VuO6WMH0rpvCigQIECBAgAABAhUTEEwr1uBlr+7Q0FCKe4BeuHAhRThstMTr7e3tacWKFWnBggX5fqaN1hv+3PBJleL3OM758+dv2fbIkSPpwIED6csvv8wz6t4+q27MwLtw4cJ8vWj8fvXq1RHLGPcwPXjwYPr888/Tzp0707Vr14YXx+8ECBAgQIAAAQIECAwTEEyHYfi1eIHBwcF06NCh9Pvf/z7/bFSiuI/pxtrtYTZs2JDvY7p8+fJGq93yXGtra9qxY0f65S9/mWKY7cDAQHr55ZdTzJpbX+IWL9u3b889mxEoP/vss/pL+Wf0eMaERx0dHfk2MV988UUOn7es9Nd/1G9j84//+I/5PqsmP2qk5DkCBAgQIECAAAEC3wsIps6EUgnUg2n0Zs6dO7dh2Z544on0/PPPp6effjrFbVviMdYSPZwROqOX9fDhwymG2f7bv/1b7pmtbxv7i/3G9aC//e1v08mTJ+sv5Z/1YLp79+68/Z/+9Kf06aef3rJO/R+PPvpo3tdzzz1312Wsb+snAQIECBAgQIAAgaoJCKZVa/GS1jeG5EYv6A9+8IMxS7hkyZK8bgTERksE2nXr1qUIh5s2bcrDb1taWvI9R+O+o/F7DLON6z67urpu7iJei/XjFjAxrPfYsWP5HqkRZqPHdd68efmxdu3a/HrcmzQCb6MlXose3bFuJ9NoW88RIECAAAECBAgQqJqAYFq1Fi9pfSPs/fCHP8w9mmMVccuWLTn0jbReDO3dt29fvv40gmaE1OFLhODHHnsstbW13RJMo0c1yhHPx3WhscSQ3/g9hu8OX+q3i9m2bdvwp2/+HiE7jm0hQIAAAQIECBAgQGBsAcF0bCNrTILAmjVr0tKlS9NTTz015tGi9zLC40jLsmXLciiN8Bk9mrevGxMYRc/srl27Ugwdri/1dWfNmpXDaITPWGL72/cRr0WZ41rSRstYZWy0jecIECBAgAABAgQIVFVAMK1qy5es3hEKRxoWe69FjVBYH3rbaNsYyhvDeOMx0hI9pLf3kg5ft1FYHf663wkQIECAAAECBAgQuHuB/5iS9O63sSYBAgQIECBAgAABAgQIEGiagGDaNEo7IkCAAAECBAgQIECAAIHxCAim41GzDQECBAgQIECAAAECBAg0TUAwbRqlHREgQIAAAQIECBAgQIDAeAQE0/Go2YYAAQIECBAgQIAAAQIEmiYgmDaN0o4IECBAgAABAgQIECBAYDwCgul41GxDgAABAgQIECBAgAABAk0TcB/TplHaUTMEBgcH0/nz5/PjypUro+5y5syZaenSpWnZsmVp/vz5o67rRQIECBAgQIAAAQIEyisgmJa3bSpZsgimhw4dSu+++27+ORpCa2treuqpp9LevXsF09GgvEaAAAECBAgQIECg5AKCackbqGrFi2B68ODB9Pvf/z69+eabo1a/o6MjDQ0NpY0bN6YtW7aMuq4XCRAgQIAAAQIECBAor4BgWt62qVTJTp8+nY4dO5aOHj2azpw5kzZs2JDa29tHNWhpacnrfPLJJ6mrqyutW7cuP+bNmzfqdl4kQIAAAQIECBAgQKBcAoJpudqjsqU5fvx4+tOf/pTefvvttHnz5vToo4+mFStWjOrR39+fvvnmm/Thhx+mjz76KP3oRz9KixcvToLpqGxeJECAAAECBAgQIFA6AcG0dE1SzQJFL+l7772Xfvvb36Zf//rX6e///u/TCy+8MCrG9evX03//7/89vfLKK7mXNXpM43pTCwECBAgQIECAAAECU0tAMJ1a7aW0wwRmzZqVHnzwwfSLX/wixQy+jzzyiEmQhvn4lQABAgQIECBAgMBUERBMp0pLKecdAnGNaQTTJUuWpL6+vnzrGLeNuYPJEwQIECBAgAABAgRKLyCYlr6JFHAkgQimK1euzI+R1olJkeJx7dq1m6vEbWYWLFiQe1fj9/oS60XPawwRbrTELMD17WbMmHHHKjdu3Mjbx34GBgbueD16eCM4x6Otre3m61evXr1ZxngtjhHrRlliXxG668vcuXPz666jrYv4SYAAAQIECBAgMB0EBNPp0IrqMKJAzPIbEyN99dVXN9dZunRpnlzpscceS4sWLbr5/HfffZfXPXDgwM3nhv8St6SJSZni0SiYXrx4MX388cd5H8ODcH0fETjjmLH98uXL60+nmPgptosyxmuxzsKFC1PMNhzPX7hw4ea6O3fuzK/v2rXr5nN+IUCAAAECBAgQIDDVBQTTqd6Cyj+qwJEjR9Jrr72WJ0iqr7hp06Y0c+bMtG3btluC6bfffpteffXVvH593eE/n3322Tzjb4THRksE0/fffz/9y7/8yy1hsr5u9O7GfVrjvqu3B9OYkfgPf/hD6u7uTqtXr07RGxzB9P/8n/+TIjDXl5///OfpgQceSIJpXcRPAgQIECBAgACB6SAgmE6HVqxAHWJY69mzZ/Psu42GycY9T+P2MhH4YshtfYlhuefOncu9kvFarBPBrz5ctrOz8+Z+o3c1AuH69evrm9/yM4b9njhxIr3xxht5P7GvGFobMwpH2Q4dOpSHDMdx4vnblzhmDM2NXtD4WS9vhNEoYwTQzz77LK1duzbfjzXKFj26w8sTPbURoN96661c19hH7NdCgAABAgQIECBAYCoLCKZTufUqVPbz58+nv/zlL+mdd95JPT09d9Q8huc+/fTTad++fbcE0/qKESq3b9+e14mhstFbGuExgmbs889//nMePhvrPPXUU/XNbvl5+fLldOrUqfTpp5/ePFaEyM8//zxvHz2mUY5/+Id/SMOvXa3vpLe3N0U9/vjHP+Zhu1He4UOJI3BHuH355ZdzGI19/eQnP0kRuuvLpUuX0uHDh3OAjbrGPgTTuo6fBAgQIECAAAECU1VAMJ2qLVexckege/fdd9NvfvObPCnQ7dWP4blz5sxJu3fvvmWYbH29CIo7duxIf/d3f5eDZwzljd7R06dP52D6z//8z+lXv/pViuG6f/u3f1vf7JafMSQ4jh+PCJHRkxnDar/44ot8/9Xozfwv/+W/5P0sW7bslm3jHxGCY9sIpjF5UYTSxx9//OZ6Mcz34MGD6ZtvvsnDfWNfEUzj2tb6Evd5DYfXX389D0feunXrLa/X1/OTAAECBAgQIECAwFQSEEynUmtVuKyLFy/OEwNFr2UMfY0lwmEMf41HzFzbaIhvnSxCYwTR2bNn50f9+aGhodTf35+iNzP28/bbb9/cf32d+s/oKY1htDH7bmwT28YSx43jx3DjGKYbExc16sWMHtXYR/yMWXkjiA5fIixv2LAhh9K4hvShhx5KUe/hM/hGHWK7KO/wMgzfj98JECBAgAABAgQITDUBwXSqtVhFyxvDWvfu3ZuvD41AFksExJisKGbAjaB2v0sE09h3XOfZaIle25hBd6QlAucHH3yQe2GHh8n6+jEEObaPcL1q1ar60zd/1idk+vGPf5z27NmT1qxZ0zDg3tzALwQIECBAgAABAgSmiYBgOk0acrpXI3oO4xG9iPWlPrFR3A4mhuTe7xK3ZYlJieI6z9GWKEdcnxr3Gh2+RHki3MZ1qI1uJ1NfN4YVR49qhNfh69UnXnrmmWfS888/X1/dTwIECBAgQIAAAQLTXuDWv6ynfXVVkMDIAjGMNu4TGterjrU8+eSTufd2+HoRWGP7uJY1rncdbVm3bl1eL4YWWwgQIECAAAECBAhUXUAwrfoZoP43BTbW7i8aw2ife+65m8+N9MuSJUvyxEfRS1pfIpg+8cQT6Ze//GWK10dbIrjGxEmC6WhKXiNAgAABAgQIEKiKgGBalZaeRvWMSYbiOs24f+jJkyfT8HB4P9WMMBmz3Ea4bLRcvXo1HzfuLxrDceOa0OFLhM24fcyjjz7acGbgmCApto2y1ydjGj6Ud/i+/E6AAAECBAgQIECgSgKCaZVae5rU9dixY2n//v35ERMVnTt37paZayeqmnHtaBz3ww8/TD/4wQ/yo9HsuyMdPwJ0lDe2j57SuFVM7MdCgAABAgQIECBAoOoCgmnVz4ApWP8IpnEv0N/97nf51i4R+OKazYleIpi+9dZb6X/9r/+VZwJeuXLlPc2aG7MHRzD9f//v/+VrUOv3XZ3octs/AQIECBAgQIAAgbILCKZlb6GKlC+ut4wZd+OWK3Ef0G+++SbfuqVR9eNeotHjGJMMxWy8ERjHuyxatChPWBTXli5btixF6H3llVca7i5m3I2htzHBUdzKJWbmjXLEpElPPfVUDqtxC5t33nknv3b7TmLG3xjKG4E26htDh2MmXgsBAgQIECBAgACBqgsIplU/A0pS/7g2M26REoEvwubHH3+ce0UbFS/uaRoTFT322GO5BzN6MQcHBxutOuZzERLj9iwrVqzIAffAgQM5WDbaMCY3ivXjuFu2bMmz8nZ0dKRdu3al9vb2dPTo0Vz23/72tymuJ719iRAb9y/90Y9+lMPs5s2bTX50O5J/EyBAgAABAgQIVFJAMK1ks5ev0hFI47Fv37703/7bf0svv/zyiMH0V7/6VV4vZr/t7+9PESZjIqTxLBFI4/H000+n3/zmN/mYL730UsNd/eQnP8mh9Ne//vUtEx/t3r07xSPup/pP//RPeahuXPd6+xL1i20jmEaYtRAgQIAAAQIECBAg8L2AYOpMKIVAfXbaGNoaM+P+7Gc/G/G60Zg0KIbPzpo1Kz344IPpF7/4RZ7p9pFHHknz5s27pT7r169PL7zwQg6fe/bsyUNoh69QP248F72wf/M3fzPirV4ifEZPaWwzfLv6/mJobszo293dnWLY7u1L9LhGb2sMHx6+fQTW6C2OocERzJcvX377pjf/HdfSRrCNXuO9e/fmnzdf9AsBAgQIECBAgACBKSogmE7RhpuuxY5bsGzbti2HtAiSjZa4FnT16tU3g+n8+fNTXNsZz8Xvw5cIsHFrl7iFSwyjjW1HWjZt2pRn942A22iJ4BnHGB4qh69Xv49prNPb2zv8pfx7W1tb3j6uoR2+RNj84Q9/mK9djTKOFUwjaD/88MN5X6PVZ/gx/E6AAAECBAgQIECgzAKCaZlbp4Jli2BaH9Z7N9WPUDfajLz1obp3s6+4fjQe413i1jHx2L59+z3tIsLl3QbMe6nPPRXCygQIECBAgAABAgQKFJhZ4LEdmgABAgQIECBAgAABAgQIJMHUSUCAAAECBAgQIECAAAEChQoIpoXyOzgBAgQIECBAgAABAgQICKbOAQIECBAgQIAAAQIECBAoVEAwLZTfwQkQIECAAAECBAgQIEBAMHUOECBAgAABAgQIECBAgEChAoJpofwOToAAAQIECBAgQIAAAQKCqXOAAAECBAgQIECAAAECBAoVEEwL5XdwAgQIECBAgAABAgQIEBBMnQMECBAgQIAAAQIECBAgUKiAYFoov4MTIECAAAECBAgQIECAgGDqHCBAgAABAgQIECBAgACBQgUE00L5HZwAAQIECBAgQIAAAQIEBFPnAAECBAgQIECAAAECBAgUKiCYFsrv4AQIECBAgAABAgQIECAgmDoHCBAgQIAAAQIECBAgQKBQAcG0UH4HJ0CAAAECBAgQIECAAAHB1DlAgAABAgQIECBAgAABAoUKCKaF8js4AQIECBAgQIAAAQIECAimzgECBAgQIECAAAECBAgQKFRAMC2U38EJECBAgAABAgQIECBAQDB1DhAgQIAAAQIECBAgQIBAoQKCaaH8Dk6AAAECBAgQIECAAAECgqlzgAABAgQIECBAgAABAgQKFRBMC+V3cAIECBAgQIAAAQIECBAQTJ0DBAgQIECAAAECBAgQIFCogGBaKL+DEyBAgAABAgQIECBAgIBg6hwgQIAAAQIECBAgQIAAgUIFBNNC+R2cAAECBAgQIECAAAECBART5wABAgQIECBAgAABAgQIFCogmBbK7+AECBAgQIAAAQIECBAgIJg6BwgQIECAAAECBAgQIECgUAHBtFB+BydAgAABAgQIECBAgAABwdQ5QIAAAQIECBAgQIAAAQKFCgimhfI7OAECBAgQIECAAAECBAgIps4BAgQIECBAgAABAgQIEChUQDAtlN/BCRAgQIAAAQIECBAgQEAwdQ4QIECAAAECBAgQIECAQKECgmmh/A5OgAABAgQIECBAgAABAoKpc4AAAQIECBAgQIAAAQIEChUQTAvld3ACBAgQIECAAAECBAgQEEydAwQIECBAgAABAgQIECBQqIBgWii/gxMgQIAAAQIECBAgQICAYOocIECAAAECBAgQIECAAIFCBQTTQvkdnAABAgQIECBAgAABAgQEU+cAAQIECBAgQIAAAQIECBQqIJgWyu/gBAgQIECAAAECBAgQICCYOgcIECBAgAABAgQIECBAoFABwbRQfgcnQIAAAQIECBAgQIAAAcHUOUCAAAECBAgQIECAAAEChQoIpoXyOzgBAgQIECBAgAABAgQICKbOAQIECBAgQIAAAQIECBAoVEAwLZTfwQkQIECAAAECBAgQIEBAMHUOECBAgAABAgQIECBAgEChAoJpofwOToAAAQIECBAgQIAAAQKCqXOAAAECBAgQIECAAAECBAoVEEwL5XdwAgQIECBAgAABAgQIEBBMnQMECBAgQIAAAQIECBAgUKiAYFoov4MTIECAAAECBAgQIECAgGDqHCBAgAABAgQIECBAgACBQgUE00L5HZwAAQIECBAgQIAAAQIEBFPnAAECBAgQIECAAAECBAgUKiCYFsrv4AQIECBAgAABAgQIECAgmDoHCBAgQIAAAQIECBAgQKBQAcG0UH4HJ0CAAAECBAgQIECAAAHB1DlAgAABAgQIECBAgAABAoUKCKaF8js4AQIECBAgQIAAAQIECAimzgECBAgQIECAAAECBAgQKFRAMC2U38EJECBAgAABAgQIECBAQDB1DhAgQIAAAQIECBAgQIBAoQKCaaH8Dk6AAAECBAgQIECAAAECgqlzgAABAgQIECBAgAABAgQKFRBMC+V3cAIECBAgQIAAAQIECBAQTJ0DBAgQIECAAAECBAgQIFCogGBaKL+DEyBAgAABAgQIECBAgIBg6hwgQIAAAQIECBAgQIAAgUIFBNNC+R2cAAECBAgQIECAAAECBART5wABAgQIECBAgAABAgQIFCogmBbK7+AECBAgQIAAAQIECBAgIJg6BwgQIECAAAECBAgQIECgUAHBtFB+BydAgAABAgQIECBAgAABwdQ5QIAAAQIECBAgQIAAAQKFCgimhfI7OAECBAgQIECAAAECBAgIps4BAgQIECBAgAABAgQIEChUQDAtlN/BCRAgQIAAAQIECBAgQEAwdQ4QIECAAAECBAgQIECAQKECgmmh/A5OgAABAgQIECBAgAABAoKpc4AAAQIECBAgQIAAAQIEChUQTAvld3ACBAgQIECAAAECBAgQEEydAwQIECBAgAABAgQIECBQqIBgWii/gxMgQIAAAQIECBAgQICAYOocIECAAAECBAgQIECAAIFCBQTTQvkdnAABAgQIECBAgAABAgQEU+cAAQIECBAgQIAAAQIECBQqIJgWyu/gBAgQIECAAAECBAgQICCYOgcIECBAgAABAgQIECBAoFABwbRQfgcnQIAAAQIECBAgQIAAAcHUOUCAAAECBAgQIECAAAEChQoIpoXyOzgBAgQIECBAgAABAgQICKbOAQIECBAgQIAAAQIECBAoVEAwLZTfwQkQIECAAAECBAgQIEBAMHUOECBAgAABAgQIECBAgEChAoJpofwOToAAAQIECBAgQIAAAQKCqXOAAAECBAgQIECAAAECBAoVEEwL5XdwAgQIECBAgAABAgQIEBBMnQMECBAgQIAAAQIECBAgUKiAYFoov4MTIECAAAECBAgQIECAgGDqHCBAgAABAgQIECBAgACBQgUE00L5HZwAAQIECBAgQIAAAQIEBFPnAAECBAgQIECAAAECBAgUKiCYFsrv4AQIECBAgAABAgQIECAgmDoHCBAgQIAAAQIECBAgQKBQAcG0UH4HJ0CAAAECBAgQIECAAAHB1DlAgAABAgQIECBAgAABAoUKCKaF8js4AQIECBAgQIAAAQIECAimzgECBAgQIECAAAECBAgQKFRAMC2U38EJECBAgAABAgQIECBAQDB1DhAgQIAAAQIECBAgQIBAoQKCaaH8Dk6AAAECBAgQIECAAAECgqlzgAABAgQIECBAgAABAgQKFRBMC+V3cAIECBAgQIAAAQIECBAQTJ0DBAgQIECAAAECBAgQIFCogGBaKL+DEyBAgAABAgQIECBAgIBg6hwgQIAAAQIECBAgQIAAgUIFBNNC+R2cAAECBAgQIECAAAECBART5wABAgQIECBAgAABAgQIFCogmBbK7+AECBAgQIAAAQIECBAgIJg6BwgQIECAAAECBAgQIECgUAHBtFB+BydAgAABAgQIECBAgAABwdQ5QIAAAQIECBAgQIAAAQKFCgimhfI7OAECBAgQIECAAAECBAgIps4BAgQIECBAgAABAgQIEChUQDAtlN/BCRAgQIAAAQIECBAgQEAwdQ4QIECAAAECBAgQIECAQKECgmmh/A5OgAABAgQIECBAgAABAoKpc4AAAQIECBAgQIAAAQIEChUQTAvld3ACBAgQIECAAAECBAgQEEydAwQIECBAgAABAgQIECBQqIBgWii/gxMgQIAAAQIECBAgQICAYOocIECAAAECBAgQIECAAIFCBQTTQvkdnAABAgQIECBAgAABAgQEU+cAAQIECBAgQIAAAQIECBQqIJgWyu/gBAgQIECAAAECBAgQICCYOgcIECBAgAABAgQIECBAoFABwbRQfgcnQIAAAQIECBAgQIAAAcHUOUCAAAECBAgQIECAAAEChQoIpoXyOzgBAgQIECBAgAABAgQICKbOAQIECBAgQIAAAQIECBAoVEAwLZTfwQkQIECAAAECBAgQIEBAMHUOECBAgAABAgQIECBAgEChAoJpofwOToAAAQIECBAgQIAAAQKCqXOAAAECBAgQIECAAAECBAoVEEwL5XdwAgQIECBAgAABAgQIEBBMnQMECBAgQIAAAQIECBAgUKiAYFoov4MTIECAAAECBAgQIECAgGDqHCBAgAABAgQIECBAgACBQgUE00L5HZwAAQIECBAgQIAAAQIEBFPnAAECBAgQIECAAAECBAgUKiCYFsrv4AQIECBAgAABAgQIECAgmDoHCBAgQIAAAQIECBAgQKBQAcG0UH4HJ0CAAAECBAgQIECAAAHB1DlAgAABAgQIECBAgAABAoUKCKaF8js4AQIECBAgQIAAAQIECMxCQGAyBYaGhtLg4GAaGBhI/f39k3nouz5WlLG3tzfduHEjb9PW1pbiMXOm73HuGtGKBAgQIDB9BYZSis/K+F9Zl76+vvw53nuj9nnecyPFvy0ECJRbQDAtd/tMu9LFB1kEvq4rXely5+VS1i/Kd/jw4XT4m8O1T96UHtz+YNrx4I40Z+6cUpZXoQgQIECAwGQKxBfL8Ygvmcu6HD16NH+Wnzh5Iq1ZtSatXr06LX1gaVmLq1wECNQEBFOnwaQKRG9pfHN5tetqaYNpV1dX2v/h/vT6n15PQ4ND6W9//rdp1fJVqbWldVKtHIwAAQIECJRRoOdGz/e9kX29ZSxeLtNXX36VXv/j6+njTz5Ozz/3fHru2ecE09K2loIR+F5AMHUmTLpAfMOah8rWAmoMj505ozZEdsakF+OOA+Yy9d5I58+fT99+9236/PPPc9kefeTRHKb7S/zN8B2V8QQBAgQIEJgggb6+/pSHyNY+M2fMmJE/y+Nn0Uv04t6olSk+z48eO5q++vqr9Omnn6ZNGzel69evF108xydAYAwBwXQMIC9PnECE0tbW1jRrVmvtQ634D7Tr3ddT5+XOdOrMqXT58uV8PUrb7LaJA7BnAgQIECAwxQVmzZqVP8tbWloKr8nVq1fT1WtX0/kL59PFixdTT09P4WVSAAIE7l5AML17K2s2WSC+XY1Q2t7eXoqJhfoH+tOlzkvp1OlTqfNKp2Da5Pa2OwIECBCYfgIRTNva2muf58X/SXnt2rUU4TQ+xy9cuiCYTr/TTY2muUDx/xWZ5sCqN7JAffjP99+yDtUmURjMM/aOvMXEvhIz9vXWrpeJRww3jomaLAQIECBAgEBjgfgcr3+Wx8/6rPuN1574Z29+jteG88aw3sGhwYk/qCMQINA0AcG0aZR2dD8C31932lfrpSxuIoW4JqXMMwzej69tCRAgQIDARApEKM3BsPZZOlRQIIxZ9SOQWggQmJoCgunUbLdpV+rvP9B6Cx12Ex+oUQ4LAQIECBAgcG8CMcqovz/uHdpT2GdpTHzkC+Z7azdrEyiTQG06VAsBAgQIECBAgAABAgQIEChOQDAtzt6RCRAgQIAAAQIECBAgQKAmYCiv02BaCMQQ3HjEEJ48EUPLzNQysyX/Pi0qqBIECBAgQGCaCNQ/rwcGB/L9wmMSxDLcbmaa8KoGgSkrIJhO2aZT8OECEUi7rnblx6yWWWnevHlp/rz5gulwJL8TIECAAIESCMScDvGZHbd2md02O39ex2e2hQCBagsIptVu/2lT+5iFr6urK50+dzq1tbalGTNnpHlz502b+qkIAQIECBCYLgJ9tUmSLl+5nM6eO5vmzpube0sF0+nSuupBYPwCgun47WxZsEDMABj3HI1vXuOm2leuXqn9vJqGOobysN642ffMmTPz7+5JWnBjOTwBAgQIEPirQAzljVu0Xbt+LdU+sVNHe0dqb2tPra2taXbr7BSf3xYCBKon4J1fvTafNjWOsHn9+vXUebkzXemKUHot378sekvjw62jo6N2L7VaeHV/0mnT5ipCgAABAtNLIO49eqnzUurr7UsLFy5MixYsEkynVxOrDYG7FhBM75rKimUTiNAZYfTc+XM5nMYNveNb2OglnT17dmqvfQMb91SL60/d16xsrac8BAgQIEAg1e57eqP2BXJtaO/ly2mw9jkevadz585FQ4BABQUE0wo2+lSvcnyI9fT0pOs9td7SK52pu6e7Fjz7b1YrZuXNM/PWAmqE1PjdQoAAAQIECJRPIL5kHhoaqH2xPFAb2ns1Xbx0MX/JHEN729vb9Z6Wr8mUiMCECQimE0ZrxxMlEEE0PrguXb6Uuru7a9eY9k7UoeyXAAECBAgQmCSB69e7ayH1fP7yecniJTmUut50kvAdhkAJBATTEjSCIowt8P03qrVvVWv/izAa16OcPXdm7A2tQYAAAQIECEwJgZ7aF8/xiMt0Wma15Nn149Kc+sin+s8pURmFJEDgngUE03sms0ERAjH7bkx0FB9W9eG7RZTDMQkQIECAAIGJFYhhvXGP0zO1L6Djsp25c+bmh2A6se72TqBoAcG06BZw/LsSiJl1Y/bdmOio50ZPbaKEG3e1nZUIECBAgACBqSUQExZ2Xe1KN2qf9fGZP/TAUJ4UKeaNsBAgMH0FvMOnb9tOq5oNDQ6luCH396G0tzbZ0eC0qp/KECBAgAABAv8hEL2m/f39qT8mNxxKeTJDExr+h4/fCExHAT2m07FVp2GdWme35nubzZwxM3+LGvctvV67MbeFAAECBAgQmF4CLS0tadGixSkmQIr7mi6YvyDfQqb+JbVbwE2v9lYbAnUBwbQu4WepBWa3zs433p43d146d+FcbSbePsG01C2mcAQIECBAYHwCMRPv4low3bB2Q+2zf1Ftdt6W1NIyq3YZT2++16lgOj5XWxEou4BgWvYWUr4sEN+exiPNTml+z/zUs6AnD+2NW8XEB5UPKScKAQIECBCY2gJtf7136fz583Nv6cKFC9OcOXPyfU0HBwdrt5Kpjem1ECAwbQUE02nbtNO3YnHD7RjeE1PIxwy9lzsvp+6B69O3wmpGgAABAgQqIBCBdPnS5emBJQ+khQsWptbaaKmhocE8Siq+iI5rTn0RXYETQRUrKyCYVrbpp27F2zvaU1tbW1qwYEG+t1l37Ybc3bXp5C0ECBAgQIDA1BWIa0lXr1qdVq1cnT/fY7Kj/trEhxFKe3p6cs/p1K2dkhMgMJaAYDqWkNdLJxATIKXaqN5Y5s6dm79ZjetRuv96Y+7vX/H/BAgQIECAQNkFYhTU3Nr8ETGHxLKly/LPuHQnekbjUp16T2kM5bUQIDC9BQTT6d2+07p28U1q3HS7ZWZLig+2i5cu5m9Wp3WlVY4AAQIECEwjgY6OOWnF8hVp1YpV+TO9o6Mj94zGJIcRTKPHVCidRg2uKgRGERBMR8HxUrkFZsyYkebUPtDi0V6bMCE+xK5e68pBNV6zECBAgAABAuUUiC+Xo2c0Rj7FdaXr1q7/a0GHamH0+3uY9t64kQZq9zO1ECBQDQHBtBrtPO1rGUN549qUwdokCfFta/SkCqfTvtlVkAABAgSmoEBra2ue3Chm2Y2Zd+NzO5b65EbRS9pf+7LZLLxTsHEVmcB9CAim94Fn0/IIxLeuEUzb2ttS2+w2wbQ8TaMkBAgQIEDgFoF6MI1AGqOeOtrn5NfjutIbtV7SuK40hu/Gl80WAgSqIyCYVqetp3VNI5jGI641jd7TeMQHXDxcmzKtm17lCBAgQGCKCcxqqX1Od8zKPaURUuPzO3pL45Kc3Fta+91CgED1BATT6rX5tK9xBNH4cIslPugE02nf5CpIgAABAlNUYHAgPrN78/1K+/vcp3SKNqNiE2iKgGDaFEY7KZNAPZhGKI3rU1yjUqbWURYCBAgQIPAfAjG50WDv918o+8z+Dxe/EaiigGBaxVavQJ19uFWgkVWRAAECBKaFgM/sadGMKkHgvgVm3vce7IAAAQIECBAgQIAAAQIECNyHgGB6H3g2JUCAAAECBAgQIECAAIH7FzCU9/4N7WGcAjEl/PXu63nm3N7axAe9vb03Jy0a5y7va7NLnZdq09T33Nc+bEyAAAECBKoiEDPfX758OV28dDF/ftc/y4ua2+HatWvp2vVrJj2sygmontNOQDCddk06dSp0o/dG6rzcmSIQxiy6eQKE2ux8RS03entST8+Nog7vuAQIECBAYEoJxGSD8Tkej/xFc20iowir0VV55QAAQABJREFUaaiYavT19+UvmIsKxsXU2lEJTB8BwXT6tOWUqEl8iPX09KQrV66k2bNnp1NnTqXTtUdfie5Zdv3a9dR7o/f7D9cpoaqQBAgQIEBg8gRihFPX1aups/bFcnyOx6PratfkFeAujhR/a8Ts/BYCBKaOgGA6ddpqWpQ0PigOHTqUXmt7Lc2bNy9dvnI5P8p0r9HeWk/usePHU3d3d1q0cNG0cFcJAgQIECDQLIGTJ0+kzz7/LB08eDB1XunMn+NxeU6ZlpMnT9aCc2eZiqQsBAiMISCYjgHk5eYKxAdXBNOz586m1lmttZ7SvhTXpJRp2E2E5OvXr6fu693Nrby9ESBAgACBaSBw4sSJ9O6776a33nkrX4pTvxynTFXr6e7Jn+UzZ5rns0ztoiwERhMQTEfT8VrTBObPn5/WrF5zy3UnEUZntczKj6YdqEk7mj93ft7T+nXr08IFC2uXywwVOjFTk6plNwQIECBA4L4FYohsPAZr80K0zGxJLW0t973PZu9gbsfc9MCSB1J7e3tatmxZ/tnsY9gfAQLNFRBMm+tpbyMIrFu3Li1dsjRfuznCKqV8esmSJWnDxg25bD09elBL2UgKRYAAAQKTKhBBb8+ePTnwTeqBx3Gw1tbWtGXLlrR48eJxbG0TAgQmU0AwnUztCh9r3drvg+mCBQumlEL06Ma3rbHENacWAgQIECBQdYEIpjES6pFHHik9xYw0I3+Ot7W1lb6sCkig6gKCadXPgAmsf9vstrR4Ue0byhkp95ZGj+lUC6YTyGPXBAgQIEBgSgrE5IXxmGpLXG/a0tKSZsyo/WFiIUCgdAKCaemaZPoUaE7HnHxLmKUPLE0dHR0p/u0by+nTvmpCgAABAgSmksCMGYLpVGovZa2egGBavTaftBpHGP3+MWfSjulABAgQIECAAIGxBGICxjLdEWCs8nqdQBUEBNMqtHJBdYzbrsQU8jNmuDazoCZwWAIECBAgQKCBQH//QBoYGGjwiqcIEChKQDAtSr4Cx41g2tvb6z/8FWhrVSRAgAABAlNJYGhwKA0MCqZTqc2UdfoLCKbTv40nvYY3JxeIWY9qSwRUCwECBAgQIECgTALx90r9YUKkMrWMslRVQDCtastPUL1jtrv2ju9vrxLfRloIECBAgAABAmUWiIkZ436nFgIEihUQTIv1n3ZHj2Da0d6RZ+NNcum0a18VIkCAAAEC000g95q2zJxu1VIfAlNOQDCdck1W7gLXh8TMSk6tcreU0hEgQIAAAQIECBAoj4Cvh8rTFkpCgAABAgQIECBAgACBSgoIppVsdpUmQIAAAQIECBAgQIBAeQQE0/K0hZIQIECAAAECBAgQIECgkgKCaSWbXaUJECBAgAABAgQIECBQHgHBtDxtoSQECBAgQIAAAQIECBCopIBgWslmV2kCBAgQIECAAAECBAiUR0AwLU9bKAkBAgQIECBAgAABAgQqKSCYVrLZVZoAAQIECBAgQIAAAQLlERBMy9MWSkKAAAECBAgQIECAAIFKCgimlWx2lSZAgAABAgQIECBAgEB5BATT8rSFkhAgQIAAAQIECBAgQKCSAoJpJZtdpQkQIECAAAECBAgQIFAeAcG0PG2hJAQIECBAgAABAgQIEKikgGBayWZXaQIECBAgQIAAAQIECJRHQDAtT1soCQECBAgQIECAAAECBCopIJhWstlVmgABAgQIECBAgAABAuUREEzL0xZKQoAAAQIECBAgQIAAgUoKCKaVbHaVJkCAAAECBAgQIECAQHkEBNPytIWSECBAgAABAgQIECBAoJICgmklm12lCRAgQIAAAQIECBAgUB4BwbQ8baEkBAgQIECAAAECBAgQqKSAYFrJZldpAgQIECBAgAABAgQIlEdAMC1PWygJAQIECBAgQIAAAQIEKikgmFay2VWaAAECBAgQIECAAAEC5REQTMvTFkpCgAABAgQIECBAgACBSgoIppVsdpUmQIAAAQIECBAgQIBAeQQE0/K0hZIQIECAAAECBAgQIECgkgKCaSWbXaUJECBAgAABAgQIECBQHgHBtDxtoSQECBAgQIAAAQIECBCopIBgWslmV2kCBAgQIECAAAECBAiUR0AwLU9bKAkBAgQIECBAgAABAgQqKSCYVrLZVZoAAQIECBAgQIAAAQLlERBMy9MWSkKAAAECBAgQIECAAIFKCgimlWx2lSZAgAABAgQIECBAgEB5BATT8rSFkhAgQIAAAQIECBAgQKCSAoJpJZtdpQkQIECAAAECBAgQIFAeAcG0PG2hJAQIECBAgAABAgQIEKikgGBayWZXaQIECBAgQIAAAQIECJRHQDAtT1soCQECBAgQIECAAAECBCopIJhWstlVmgABAgQIECBAgAABAuUREEzL0xZKQoAAAQIECBAgQIAAgUoKCKaVbHaVJkCAAAECBAgQIECAQHkEBNPytIWSECBAgAABAgQIECBAoJICgmklm12lCRAgQIAAAQIECBAgUB4BwbQ8baEkBAgQIECAAAECBAgQqKSAYFrJZldpAgQIECBAgAABAgQIlEdAMC1PWygJAQIECBAgQIAAAQIEKikgmFay2VWaAAECBAgQIECAAAEC5REQTMvTFkpCgAABAgQIECBAgACBSgoIppVsdpUmQIAAAQIECBAgQIBAeQQE0/K0hZIQIECAAAECBAgQIECgkgKCaSWbXaUJECBAgAABAgQIECBQHgHBtDxtoSQECBAgQIAAAQIECBCopIBgWslmV2kCBAgQIECAAAECBAiUR0AwLU9bKAkBAgQIECBAgAABAgQqKSCYVrLZVZoAAQIECBAgQIAAAQLlERBMy9MWSkKAAAECBAgQIECAAIFKCgimlWx2lSZAgAABAgQIECBAgEB5BATT8rSFkhAgQIAAAQIECBAgQKCSAoJpJZtdpQkQIECAAAECBAgQIFAeAcG0PG2hJAQIECBAgAABAgQIEKikgGBayWZXaQIECBAgQIAAAQIECJRHQDAtT1soCQECBAgQIECAAAECBCopIJhWstlVmgABAgQIECBAgAABAuUREEzL0xZKQoAAAQIECBAgQIAAgUoKCKaVbHaVJkCAAAECBAgQIECAQHkEBNPytIWSECBAgAABAgQIECBAoJICgmklm12lCRAgQIAAAQIECBAgUB4BwbQ8baEkBAgQIECAAAECBAgQqKSAYFrJZldpAgQIECBAgAABAgQIlEdAMC1PWygJAQIECBAgQIAAAQIEKikgmFay2VWaAAECBAgQIECAAAEC5REQTMvTFkpCgAABAgQIECBAgACBSgoIppVsdpUmQIAAAQIECBAgQIBAeQQE0/K0hZIQIECAAAECBAgQIECgkgKCaSWbXaUJECBAgAABAgQIECBQHgHBtDxtoSQECBAgQIAAAQIECBCopIBgWslmV2kCBAgQIECAAAECBAiUR0AwLU9bKAkBAgQIECBAgAABAgQqKSCYVrLZVZoAAQIECBAgQIAAAQLlERBMy9MWSkKAAAECBAgQIECAAIFKCgimlWx2lSZAgAABAgQIECBAgEB5BATT8rSFkhAgQIAAAQIECBAgQKCSAoJpJZtdpQkQIECAAAECBAgQIFAeAcG0PG2hJAQIECBAgAABAgQIEKikgGBayWZXaQIECBAgQIAAAQIECJRHQDAtT1soCQECBAgQIECAAAECBCopIJhWstlVmgABAgQIECBAgAABAuUREEzL0xZKQoAAAQIECBAgQIAAgUoKCKaVbHaVJkCAAAECBAgQIECAQHkEBNPytIWSECBAgAABAgQIECBAoJICgmklm12lCRAgQIAAAQIECBAgUB6BWeUpipIQIDARAkNDQyk/Br//ORHHsE8CEy3Q39+fLl68mC5cvJDP56VLl6Z4zJ49e6IPfXP/w99H8buFwFQUuHHjRn4fxfuptbU1v4/ivdTS0jIVq6PMBAhMIwHBdBo1pqoQaCQQf0AP9A/kx+DgYKNVPEeg9ALXr11Pn376afrgww9yMN27d2/as2fPpAfTgYGB1N/Xn8tQejQFJNBA4OKFi2n//v35vbRw4cIU76XFixcLpg2sPEWAwOQKCKaT6+1oBAoRGBwYTH29fSn+qLYQmIoCXV1d6bNPPku/++3v0sDgQJozZ0566KGH0qJFiyatOvUveXpv9NWCqS95Jg3egZoqEMH0ww8+TP/yL/+SVq5amd9DTzzxxKR+ydPUCtkZAQLTRkAwnTZNqSIExhYYqAXUCKeDtT/sjUQc28saxQvcuNGTunu609mzZ9PpM6fTpUuXUsusltTb21tor2X9veTLnuLPESUYWyC+VOmpvY96enrSsePH0pmzZ9KlzktpwcIFqa+vb+wdWIMAAQKTICCYTgKyQxAoi0D08vT3933/R33tmlMLgbILXOy8mC5eupiOnziezl84n+L6uDmz5hRe7AikEY77+npT8lYqvD0UYHSBuIzjwqUL+b105NiR/FMgHd3MqwQITL6AYDr55o5IoDCB+NY8JpGJP+5db1pYMzjwPQh0Xu5Mp86cSsdOHEsRUntrQXBO7X9FL8PfS/G7hUCZBeKLlOghPXnqZDpx8kS6fOVy6h/oL3ORlY0AgQoKuF1MBRtdlQkQIECAAAECBAgQIFAmAcG0TK2hLAQIECBAgAABAgQIEKiggGBawUZXZQIECBAgQIAAAQIECJRJQDAtU2soCwECBAgQIECAAAECBCooIJhWsNFVmQABAgQIECBAgAABAmUSEEzL1BrKQoAAAQIECBAgQIAAgQoKCKYVbHRVJkCAAAECBAgQIECAQJkEBNMytYayECBAgAABAgQIECBAoIICgmkFG12VCRAgQIAAAQIECBAgUCYBwbRMraEsBAgQIECAAAECBAgQqKDArArWWZUJECBwh8Dg4GDq6+vLj4HBgTteH/7EzBkzU2tra360tLQMfyn/PjQ0dHNfsd+7Wbe3rzfFdrNbZ+f1Z870veEdsJ64b4Hh52b/QP+o+5uRZtw8d2fN8ufC7Vj1/1709/en1tmt+b3b6L8Ht2/n3wQIECDQWMAnTWMXzxIgUDGBGzdupG++/SZ9+8236VLnpVFrP2fOnLR50+a0afOmtGjhojvWHRgYSEeOHMn7u3b9Wl431l+wYMEd68Yftd9+92365ptvUpRh8+bNef158+bdsa4nCNyvQHxRcvTo0XxunjlzZtTdRRjdtGlTPh+XL18+6rpVfPHEyRPp22+/TWfPnv3+PV577z7wwANVpFBnAgQINEVAMG0Ko50QIDDVBSIUHjp0KP3pjT/lP9xHq8+SJUvSD5//YVq2bFnDYBp//B85eiS9+dab6cKFC+lHz/8orVi+YsRg+t2336U33nwjdXV1pb7+vrRyxcokmI7WAl4br0D0mMa5+dbbb6Uvvvhi1N3Mbpudz/P48kUwvZPq5MmT6d13301ffv1lfo8vXrxYML2TyTMECBC4awHB9K6prEiAwHQUiDAYj+g9OnP2TP69u6d71Kpeu3YtnTt3Lv+BHyvOmz8vzZ83P9WH8cUf/5cuXUrfffddOnX6VNq5Y2fq7e29ZZ9Xr13Nx7p44WI6deZUunLlSl6nv68/D+m9ZWX/IHCfAnHOdl3tSpcvX87nZPwc6zyPnv/4YuXY8WOpY05HPsfnz5+fh/feZ3Gmxebxnj167Gj66quv0vZt21NPT8+0qJdKECBAoCgBwbQoecclQKAUAvFH95dffpl7SWe1zkqP/+DxtOfJPaOWLV+PWuvZfO+999J3R77LwXPXzl03g+moG//1xdOnTqcvvvwiHTp8KLXOak27d+9OSxYvSdu2bUsxVNhCoJkC8aVLnOdfH/g6n2/bt29Pu3ftHvUQ+XrU2nkePasRwHbt2JV27tyZFi26c/j6qDvyIgECBAgQuAsBwfQukKxCgMD0FTh+/Hh658/vpIOHDqbnn3s+PbX3qbRh/YZRK3zh4oU85Pedd95Jc+fNTW1tbWnb1m2pvb191O2Gvxg9qX957y/p/fffT88//3weMhk9q+0d7amjvWP4qn4ncN8CMSLg/Q/ez+dtDEOPc32sYBrD22No+xtvvJGuXL2SWma2pA0bNgim990adkCAAAECjQQE00YqniNAoDICMfyus7MzXbx4MQ+hXbhwYVqxYsWo9R9KQylmzY3hkDGbbnd3910Nv40hw+fPn0/nzp9LEYhjtt6YXGbdunVp1apVaenSpaMe14sExisQQ8lj6GkMQY/ZZOMa5rHO8wima9asyWG083JnDqRm5x1vC9iOAAECBMYSEEzHEvI6AQIEmiRw8dLF9Mmnn6T9H+3Pw3XXrV2Xhw5HMI1hvBYCZRKIa6Y3btiYh6jHFzjr161Pc+fOLVMRlYUAAQIEppGAYDqNGlNVCBAot0BMiPTxJx+nF196Me17al/6wWM/SD/58U/SjBkzyl1wpaukQA6mGzfmHtMAcJ5W8jRQaQIECEyagGA6adQORIBAFQWuX7+eDhw8kF597dU0e/bsPLPpT3/y07Rj+460auWqPCS4ii7qXH6BehCt/2xU4pOnTqYTx0+k02dON3o53z5l7Zq1ae3atTfP9RhWHEPZj584ngYHBvNr8XoMdY/n4rX6Etdv17dvdB/gmIjsxIkTeebgmEG40RJDlmMfq1evbvRyipEM9fIM9A/csU70EtfLYGKyO3g8QYAAgaYJCKZNo7QjAgQI3CkQ158eOHAg3z4mhuxu2bIlPfbYY/lepe4NeaeXZ6aWwKlTp9K7772bPv7444YFf3Dbg2nfvn05FMZ12bFEMD38zeE86VgEwXg9rq+Oa6/379+fn6/vbP6C+enpp55O8bNRMI2Zg2PG4JjA7Ouvv65vdsvPRx5+JM3YN2PEYHrp4qU8xP7Pf/5ziutqb1+WLV+WyxD3LxZMb9fxbwIECDRPQDBtnqU9ESBA4A6B+EM3bkkTj7gvZPyRvHfPXtfq3SHliakoEL2c0WMZ9/JstMRw4PhCJib9ip7H6AHt7+9PEWhjWHv39e4UgS8mAYuZqr/97ttb9rVw0cK0etXq/HrcKzi2r+8j3lvxxU8cP4LuSGWIiZ7Wr1+f78la3z5Ccmwfj+jtPXLkSL6VTk/3nfcijYmf1qxek7Zs3pInLKvvo1F9PUeAAAEC4xcQTMdvZ0sCBAgQIFBpgZhNOr5oiXDZaIlZfGOo7Iv/+mLavGlz2rpla5o/f/7NVbuudqUvv/oyX78agW/Z0mXpH/7hH25ezxrDiOP5D/d/mIfbxvYx6iCG7cY9gCOQRriMntnYf6MlZr+OIce/e/F3edvYR4TkvP3hwylu/xRl+vnPft5o8zwEOXpm33rnrRyS62VouLInCRAgQGDcAoLpuOlsSIAAAQIEqi0QvZnz5s5Lu3btaggRwfHDDz/MwfKZfc/kAHhLMK31uH7x5Rc5dMZ1148//nh+1K9rjR7ZvH1tH3F/33g+emDPnD2TPvjwg/Tmm2/m9Z/4wRNpy9YtDcvwxRdf5ONHj+oLP3ohLV68OO/n6wNfp9f/+Hqa3To7z479+A8fT23tbXfsI3p7owxvvV0LpitX37zN0x0reoIAAQIE7ktAML0vPhsTIEBgdIHoMYp7oy5csDDFNaXRu3Pw0MG09IGl+fnhf6SPvievEiifQNzTN3oThwaHGhbu+rXr6fTp0+ngwYNp08ZN6dq1a3esNyPV/jdzRpo7b25auWpl2v7g9ps9phEKP/nkk7yPGH4bM1vHkPiYVCzvt/Ze2rlzZ55kKbZrtFy5fCX3jsYx6oE3hhPHvYu/++671N7WnocKx34b1SPes1GOb7/9NsU1sXH/4qizhQABAgSaKyCYNtfT3ggQIHCLQEyWsn3b9rR79+78h/eVrivp93/4fR7S+NDuh24Z1njLhv5BYAoInDp5Kn3+xef5y5ZGxY3wGJMTxey5jZb4YiaCZbwXtm3blu+V2mi9+3luxcoVac8Te1LMzhvXiT7wwAM5YNb3GWE37i8coTmG/d6+XLlyJQ8ZjjBsIUCAAIGJExBMJ87WngkQIJA6OjrSgw8+mO9XevXa1fTaa6+lV19/NV168lL+AzlesxCYqgJx7eZf/vKX9MZbbzSsQl9ff20W3hsj9jAumL8g7dq5K1/fGderxi2Vmr2sXLEyLVm8JD366KN5/3GMs2fP3jxMXAN77dNreVbfeo/qzRdrv0RPaswkHA8LAQIECEycgGA6cbb2TIAAgRSzkkY4jeG8MVRx46aNadfZXWnO3Dn5urq33347D/GNYb6NboeBkEDZBC5fuZyDXYS7mBE3JhLavWt3w2LGsNez587eEgSHrxjvjxhVsGjRogkbPRBBdLTAG8dfvmx5fh9GeUZbtm3dlm/11CjAjrad1wgQIEBgbAHBdGwjaxAgQKApAtFrE7eLeWDJA/n6uLiFTEz88sTjT+QJXATTpjDbyQQLxLWZcauXmBAorp2OyYhi0qJGS8x8G+udO3eu0culeG7xosX5fRl1aG9vH7VMMXHS2jVr8xdOo67oRQIECBC4ZwHB9J7JbECAAIHxCcQftfF4+KGH07+/+u9p/0f70zt//nO+HcbGjRvTurXr8uQs0RujR2Z8xrZqnkCe1CgmNvrrRD/18zKuyfzss8/Sv738b+n5555PTz75ZB6q3ujIf3nvLzmUxrle1BLXt9brEnWISZSGL/GefOihh9Iv/vYXDe8vXN/2dofh+/A7AQIECNy/gGB6/4b2QIAAgXsWWLlyZb7/Y/SSxnV28Yd+9CqtX78+TwATwyMtBIoUiGsrY+KiY0ePpZ4bPfm8jN7RqbacOXMm1+PUqVM331/3UoeYFOno0aN5HzEsf/262nu09j61ECBAgEBzBQTT5nraGwECBO5KICZ6iRlAN6zfkOJ+ip9//nn67PPP0jPPPJNvJSOY3hWjlSZQIIJp3E7l7XfezrdIefbpZ/OEXRN4yAnZ9ekzp9P777+fRyjE+2vunLlp3rx5d32sq1evpq++/irfxzSG4Q89M5TWrFlz19tbkQABAgTuTkAwvTsnaxEgME0F4pqyGMoXt5CIIX6dnZ3p1OlTo9Y2rrGL4YExYUv8gRuTp9zr0Nu43jQecb3ahQsX0ofXPsz3VYzJZOL4UZbonYnHve571MJ7sZICbW1teQKuFctX5C9Euq52jXmex/07T548mY4dO5YinMVERnH/z/hCJXr6Y1/x/onbqIz0nrlw8UJ+vT4Mtln4MZlRTCgWt4CJ8kT5RipD1OH48eMprumO9270/ubJyGqjEpYuXZrmdMxJfX19eYKm9o47rzGNW97E+zIcov5xrGbXp1ku9kOAAIGpLCCYTuXWU3YCBO5bIK7rfHrf07kHZFbLrDxRy0cffTTqfuOP0v6B/rTnyT1p2fJlafOmzfmP41E3GuHFWbNmpZipN67ViyGHse+33n4rrV61Oj247cF8b8dYx0LgfgQiRD75xJN52HjMPPv111+nQwcPjbrL2tWl+X6fMeNu3G90+/bt+UuYeP7RR76/9Up8QROBLcJfo+X4ieN5CGyzg1zUJyYNmzd3Xp6I6OuDtfocblyf6PldtXpV+v/W/H9p546d+Uuo+MJn+4Pb09DgUIpZhru6utLLf3g51a7uvqMag0OD+cuhZ595Nq1evTpt2LDB5Ed3KHmCAAEC9y/gr537N7QHAgSmsMDadWvTosWL0ubNm9N7772XYrKWkf7Irlczelv27tmb9u7dm4fiRq9p9NqMZ4nQuWnjprRs6bL8B34c/+13304x1Dd6ubZs2TKe3dqGwC0C0bMYw8PjdidxjsXj0KHGQa6+Yevs1u/P89q5HiEuzvPYR/SSRjCN98z+/fvzvj799NP6Zrf87O7pzj2MEWCbucTtlWKkwvD6HDx4sOEhYmKjPXv2fB9ka3WIesSXUFGnNavXpAMHD+Q6xPs/eolvX5YuW5odnnnqmbx+bH/7BEq3b+PfBAgQIHDvAoLpvZvZggCBaSQwf978FI+O9o48wcmihYtyD8poVYxbZMQfxjEBSqNrzWLobQwPjp7UGPIY6450H8X4AzdPgFRbL7b77sh3+d9RHj2lo7WC1+5FIEJcPJYsWZKHtMb5GffVHW1pm92Wh7quXbs23xKmvm58CRPhNIbBRi9/XHc50r7i+Vgvlpg4KXpeo8c2hs5v3bI1D42NL2VGOtfj+dg+AuiMmTPy9df1e59GfWI/MUx38ZKR6xN1XrNqTf4CqF6H+BkG8eju7k7ffvdtmje/Flhb7/yzKA8ZrvXQxvXg8V6uL/Hfgeg9je3ji6TohbUQIECAwPgF7vwv8Pj3ZUsCBAhMWYHonYw/lOOP3rjOdLQlrknbtGlTDrSN1ot9xB+s0UsU19/FunczmVGss2PHjtxTGn90GzLYSNdz9yMQX37EFyoxLDXC3mhLnMdx7kawG2mJIecxciCGuI61xPkcQ3DjS5otm7fkL2LiPRLHiKDbaBn+voyyx+iCeK6+xHPr1q9LMTHT1s1b60/f8jO+PBqtfBFq4/7C8QVVXEN6+xKBdfPGzTnYD38t9vnU3qdy+eP1uObcQoAAAQLjFxBMx29nSwIEppFA/gN469abgXK0qsUfw9Fr1Kh3JbaLXtCNGzbmYX9xbV30+tzNUN8YIrhj+44ckOvHMGRwtJbw2r0KxPkUPX8RKOPay9GWOAfHOnejp3DZsmXp8R88Ptqu8mv1fUXgjWHAEShrl6t+/14a4Trq4e/L2El+3w1bN8oYt29ZtXLViPWJ48ZjpCUmIYtQumvnroaTGoVZvezD9xHBNHpQw7HR68PX9TsBAgQIjC0w8n+px97WGgQIEJg2AvHHZ/TkjDTk9l4qWg+VdxNGh+83yhB/iA/vERr+ut8J3K/AeM/NkY4b5/i9nuexr7t9r431vmxGfSIox+Nel/HW/V6PY30CBAhURWBmVSqqngQIECBAgAABAgQIECBQTgHBtJztolQECBAgQIAAAQIECBCojIBgWpmmVlECBAgQIECAAAECBAiUU0AwLWe7KBUBAgQIECBAgAABAgQqIyCYVqapVZQAAQIECBAgQIAAAQLlFBBMy9kuSkWAAAECBAgQIECAAIHKCAimlWlqFSVAgAABAgQIECBAgEA5BQTTcraLUhEgQIAAAQIECBAgQKAyAoJpZZpaRQkQIECAAAECBAgQIFBOAcG0nO2iVAQIECBAgAABAgQIEKiMgGBamaZWUQIECBAgQIAAAQIECJRTQDAtZ7soFQECBAgQIECAAAECBCojMKsyNVVRAgTS0NBQGhgYSH39fWlwYJAIgdIL9A/0p8HB8p2rQ0ODtfdQ7b3U15ffV6WHVMBKC8R/9+MxWDtvLQQIECirgGBa1pZRLgITINDf35+udF1J586fy39QT8Ah7JJAUwUuX7mcbty40dR9NmNnvb19qfNyZzp34Vwpg3Mz6mgf00cgvtyJ91Jvb+/0qZSaECAw7QQE02nXpCpEYGSBejA9ffZ06unpGXlFrxAoiUBfX28pv0SJcnVe6UwnT5/MPVEl4VIMAg0FYrRM9O7HeWshQIBAWQUE07K2jHIRaJJADN+6dOlSOn/+fDp96nQ6cvxIOnrsaC2YdjfpCHZDYOIFuru7U1dXV6EhNf6wv3DhQjp39nw6derkX99LRwTTiW9+R2iiwKVLnenq1atpoH+giXu1KwIECNy/gGB6/4b2QKDUAvHH9IGDB9IH73+QDh46mC51XsqPeN5CYKoIxPkaX6xcv369sCJfu3YtffbFZ+mD9z5IR44eufleKuM1sIUhOXDpBbqvd6fTp0+nG73lGyJfejwFJEBgQgUE0wnltXMCxQvENUUHDx5Mv3/l9+mj/R+lmEwmhvTG0C4LgakiEOdrnMtFXiMXwfTzzz9PL770Yjr8zeH8Por3koXAVBKIL1Lye8mw3qnUbMpKoBICgmklmlklqyzQ0tKSFi9ZnDZu3FjKSWSq3DbqPj6BOJfXr1+fZs+ePb4djHOr1tbWtHTp0rR5y+bU1t42zr3YjEB5BHbv3p1Wr16dZs5098DytIqSEKiugGBa3bZX84oIxB/vO3bsSPFH9d69eytSa9WczgKLFy9OW7ZsSXPmzJnUas6bNy898sgjae7cuenKlSuTemwHIzARAsuXL8/vpVmz/Dk4Eb72SYDAvQn4L9G9eVmbwJQTqAfT7du3T7myKzCBkQRmzJiR4jGZSz2YPvzww5N5WMciMKECRbyXJrRCdk6AwJQVEEynbNMpOIG7E/BHx905WYvAWALeS2MJeZ0AAQIECIxfwEUF47ezJQECBAgQIECAAAECBAg0QUAwbQKiXRAgQIAAAQIECBAgQIDA+AUE0/Hb2ZIAAQIECBAgQIAAAQIEmiAgmDYB0S4IECBAgAABAgQIECBAYPwCgun47WxJgAABAgQIECBAgAABAk0QEEybgGgXBAgQIECAAAECBAgQIDB+AcF0/Ha2JECAAAECBAgQIECAAIEmCAimTUC0CwIECBAgQIAAAQIECBAYv4BgOn47WxIgQIAAAQIECBAgQIBAEwQE0yYg2gUBAgQIECBAgAABAgQIjF9AMB2/nS0JECBAgAABAgQIECBAoAkCgmkTEO2CAAECBAgQIECAAAECBMYvIJiO386WBAgQIECAAAECBAgQINAEAcG0CYh2QYAAAQIECBAgQIAAAQLjFxBMx29nSwIECBAgQIAAAQIECBBogoBg2gREuyBAgAABAgQIECBAgACB8QsIpuO3syUBAgQIECBAgAABAgQINEFAMG0Col0QIECAAAECBAgQIECAwPgFBNPx29mSAAECBAgQIECAAAECBJogIJg2AdEuCBAgQIAAAQIECBAgQGD8AoLp+O1sSYAAAQIECBAgQIAAAQJNEBBMm4BoFwQIECBAgAABAgQIECAwfgHBdPx2tiRAgAABAgQIECBAgACBJggIpk1AtAsCBAgQIECAAAECBAgQGL+AYDp+O1sSIECAAAECBAgQIECAQBMEBNMmINoFAQIECBAgQIAAAQIECIxfQDAdv50tCRAgQIAAAQIECBAgQKAJAoJpExDtggABAgQIECBAgAABAgTGLyCYjt/OlgQIECBAgAABAgQIECDQBAHBtAmIdkGAAAECBAgQIECAAAEC4xcQTMdvZ0sCBAgQIECAAAECBAgQaIKAYNoERLsgQIAAAQIECBAgQIAAgfELCKbjt7MlAQIECBAgQIAAAQIECDRBQDBtAqJdECBAgAABAgQIECBAgMD4BQTT8dvZkgABAgQIECBAgAABAgSaICCYNgHRLggQIECAAAECBAgQIEBg/AKC6fjtbEmAAAECBAgQIECAAAECTRAQTJuAaBcECBAgQIAAAQIECBAgMH4BwXT8drYkQIAAAQIECBAgQIAAgSYICKZNQLQLAgQIECBAgAABAgQIEBi/gGA6fjtbEiBAgAABAgQIECBAgEATBATTJiDaBQECBAgQIECAAAECBAiMX0AwHb+dLQkQIECAAAECBAgQIECgCQKCaRMQ7YIAAQIECBAgQIAAAQIExi8gmI7fzpYECBAgQIAAAQIECBAg0AQBwbQJiHZBgAABAgQIECBAgAABAuMXEEzHb2dLAgQIECBAgAABAgQIEGiCgGDaBES7IECAAAECBAgQIECAAIHxCwim47ezJQECBAgQIECAAAECBAg0QUAwbQKiXRAgQIAAAQIECBAgQIDA+AUE0/Hb2ZIAAQIECBAgQIAAAQIEmiAgmDYB0S4IECBAgAABAgQIECBAYPwCgun47WxJgAABAgQIECBAgAABAk0QmNWEfdgFAQIECBAgQIAAAQIECIxDYGhoKA0ODqaBgYH8GMcuJnyTwcGB1N3dk2709KRZs2elRYsWpQWtC5p6XMG0qZx2RoAAAQIECBAgQIAAgbsXiGDa39+fbty4UQt/3Xe/4SSuee3a1XTo0KF08ODBNGfunPToY4+mRx59pKklEEybymlnBAgQIECAAAECBAgQuHuBwaHB1NfXl3pqvZE9JQ2mFy9dTB9/+nF67dXX0sLFC1PH3I60c9fONHNG864MFUzv/pyxJgECBAgQIECAAAECBJouEL2meShvbcjsjBkz0syZM9OM2v+KXIbSUO7FjZ7cc+fPpePHj6dDhw+lZcuXpc7Ozjz8eGaLYFpkGzk2AQIECBAgQIAAAQIEmi4QobS1tTXNnj27tu+Cg2ktLF+tDeGN3tLTZ06ny1cu5yHHTa/0X3eox3SiZO2XAAECBAgQIECAAAEC9yAQPaURStvbO3LP6T1s2vRVY0KmGGKcg+nZ0+lK15XU19/X9OPUdyiY1iX8JECAAAECBAgQIECAQIEC0WNaH8pbn6k3fhaxDP312tfe/t40UJucaaLLIZgW0cqOSYAAAQIECBAgQIAAgVEE4prT3t7e2vDZieulHOXwaWhwKPeYTnQgrZdBMK1L+EmAAAECBAgQIECAAIH/v707f2rjzPM4/hWHuMEc4rTXdjCnb09sNlNJ7WSqdo4ftubX/J2zVZmq2d8m2bHjlBPbmQRikwIGsAQChO5bWn0frxzBEA7Tre4W7y53SSCpn2+/Wrj00fP00y4R0GuH5vM5MwGREyXphEw6lLdewdS6aZSc0KJNBBBAAAEEEEAAAQQQQAABzwsQTD1/CNkBBBBAAAEEEEAAAQQQQMDbAgRTbx8/qkcAAQQQQAABBBBAAAEEPC9AMPX8IWQHEEAAAQQQQAABBBBAAAFvCxBMvX38qB4BBBBAAAEEEEAAAQQQ8LwAwdTzh5AdQAABBBBAAAEEEEAAAQS8LUAw9fbxo3oEEEAAAQQQQAABBBBAwPMCBFPPH0J2AAEEEEAAAQQQQAABBBDwtkCLt8unegQQQAABBBBAAAEEEEDgYggkk0kJBoPyJvhGMpnMuXba7/fL+Ni4jI2NSU9Pz7m2ZcWLCaZWKLINBBBAAAEEEEAAAQQQQMBmgUQiIYtLi/L066cSiUTO1ZqG0UcPH0lXVxfB9FySvBgBBBBAAAEEEEAAAQQQuEAC6XRaNjY25Pnz57L5ZlMKhYJZz0LQ0tIiugYCARkdHZVbt26d5eW2PZceU9to2TACCCCAAAIIIIAAAgggYJ1Ad3e3zM7OSj6fl9fLr2VldUVWVlakXC6fupHLly/L9WvX5cbkDbk5f1N6e3tP/Vo7n0gwtVOXbSOAAAIIIIAAAggggAACFgloMJ2bnTM9nYHhgBSLRVlbWzO3p23i8sRl+ejfP5IHDx5I/6V+6e0hmJ7WjuchgAACCCCAAAIIIIAAAhdeoL293YRSHYKrvaZboS0ztDcai4qef6pDfY9a9HUaanWdmpqS+bl5sx71XKd+R4+pU/K0iwACCCCAAAIIIIAAAgi8p8DQ4JDcu3dPOrs6ZWlpyayra6tHbi0wFDBDgLW3dXp6WrS31W0LwdRtR4R6EEAAAQQQQAABBBBAAIETBMbHx0XX3/zHb+Tzv3wuqVRKfimYTkxMyKeffip/+q8/ic/nO2HLzjxMMHXGnVYRQAABBBBAAAEEEEAAAUsEBgYGZHpqWuLxuOzu7srO7o6US2UZHBoU7VmdmZkxt5Y0ZtNGCKY2wbJZBBBAAAEEEEAAAQQQQKAeAhPjE7KwsGCG6OqlZJ6/eC7FQlHmZ+fNcN/JyUm5cuVKPUp57zYIpu9NxwsRQAABBBBAAAEEEEAAAecFdKiuDuudmZ6RQr5gLiOTz+Vlbm5Ofvefv5ORkRHXDuGt6hFMqxLcIoAAAggggAACCCCAAAIeFGhqajJVd3R0iPaOfvLxJ1IoFMwMvF1dXdLc3Oz6vSKYuv4QUSACCCCAAAIIIIAAAgggcLKA3++XyQ8mzWVhSqWSjAyPiF4qxgsLwdQLR4kaEUAAAQQQQAABBBBAAIETBFpbW0WH9erqteVtn6/XqqZeBBBAAAEEEEAAAQQQQACBhhEgmDbMoWRHEEAAAQQQQAABBBBAAAFvChBMvXncqBoBBBBAAAEEEEAAAQQQaBgBgmnDHEp2BAEEEEAAAQQQQAABBBDwpgDB1JvHjaoRQAABBBBAAAEEEEAAgYYRIJg2zKFkRxBAAAEEEEAAAQQQQAABbwoQTL153KgaAQQQQAABBBBAAAEEEGgYAduuY1oul0VXvbCrriwIIIAAAggggAACCCCAAAJi8lE1L9V6VH93+Lb2OfW6X1tDPdq0LZhGo1H59ttvpaOjQwYGBuqxL7SBAAIIIIAAAggggAACCLheIJfLyZMnTyQcDh+oNZPNSCKZkEKhILl8TvR5et+JRYNpJBoxNdSjfduDaTAYlPb29nrsC20ggAACCCCAAAIIIIAAAq4XKBaLojlJg2lPT8+7ejOZjOxF9iSyH5FCseDs6NOySDaXrQTT7Lv67LxjSTBta2uTvr4+CQQCB2qNxWKiqxuWbDYn2cqBVlwNyrq2tra6obQLVYMO69Y/OF19Pp/pUdde9aYmTne+UG8EdhYBBBBAAAEEEKiDgPb6if7T0wz1jssWv98vl/oumao0jKayKQmFQrK1HXLV6ZDxeNx8ftdAbddiSTAdHx+XhUcLEhg6GEztKvp9tru6tirLy8uyvrEu165ekxs3bsjoyOj7bIrXnEMgmUqa4/B6+bX5YmBudk50be+gV/0crLwUAQQQQAABBBBA4AgB7RQp5AtmOKwJqUc8x+lf+Zp8poTHjx+bTrRoLCqxeMyEaadrq7afTqdlc3PThNPq76y+tSSYToxPSG9Pr9y6ecvq+izb3pOvnkgymZQ3wTdy9epV+fjjj2V+dt6y7bOh0wns7e2Jv9UvW1tbptf6/r378sff/1H6LvWdbgM8CwEEEEAAAQQQQACBUwro+Zl63mY2k3VVD2Rt+Tu7O/Ls2TN5/OSxbIe3TYjO5/O1T3H8vvaUVkc92lWMJcG0u7tbdNVFh2fqsEy9dXrRN6IO3c1ms9Lb1ys65Fhr02HHlycum15T/bnJVxlG6ny5TnPZ2r4eAz0W6tzV1SXNzc0mmI4Mj8jU1JT0M0GWrf5sHAEEEEAAAQQQuIgChUJetLdPV+0xrWYVxy0qo4ozuUpgrnxG1kmONDxvbG6ITiA7ODgoY2Njrj3VbXZ21pzCqZ/nrVwsCaa1BbW0tJghms3Nlm+6tplT3U8k42ZWq/BO2JxEnM6kD7xO35jVepuarIU90NCF/6Fseqv1RO7QVkii8ajkK/9JsCCAAAIIIIAAAgggUC8B7ZBqbWmVVr/OM+Nsr1SpVJRYMia7e7sSqpxPqudwaqeaztnz8OFDs+r5p25choeHZW5uTrS+fM66z/SWp0cNetoz2VoZrun0kkwlTDANbQUrwXRXjgqmOgFSW1u7CahO19uo7eu3UxpE9YTu4HZQdNw8wbRRjzb7hQACCCCAAAIIuFPABNNKKG1v73B8dKeGUA11u5WMsrW9JbFEzMzCq6FvYWFBPvvsMzNJqBslNe9pKHV1MNUeyNrucf0moFgsOXbiro7Nrq46LvrwCc+H69Xn2DnTlBvfWPWoyQTTyrHQYQrFyh+hnoTOggACCCCAAAIIIIBAPQXefvavnMZX6TnVz6P6ud+pz6XFyqVg9LOxZhUNqdU6NPTpaW/9/f3S2dlZTx7H27K8x7S6R+VyyUDrRWEPB8Lqc+y+1THbeqB1luiTFn0z6BujXtfpOameRnpcj7/+4VX/4Bpp39gXBBBAAAEEEEAAAe8JaCjVnKLnoDqxFAtFkz34fPyzvo3BtGxCoYZDp8D1zXbaHtBqMNXZplisFaj2mDr1PrB2b9gaAggggAACCCCAgNcFNCPkK1nBTM7pwM5o+6YDrXSKHjQH6nOiycp0tCwIIIAAAggggAACCCCAAAIIOCdAMHXOnpYRQAABBBBAAAEEEEAAAQQqArYN5T2vrg7/TKVTkk6lzQyunR2d5gRgnUWXBQEEEEAAAQQQQAABBBCwW4BMYrfwz9t3bTDVEtfX1+XVq1cSiURkenrarIMDgz9Xzz0EEEAAAQQQQAABBBBAwEYBMomNuDWbdncw3ViXvz/+u/xz/Z/muj5jY2NCMK05etxFAAEEEEAAAQQQQAABWwXWySS2+lY37rpgGovHJLIXkb3IniwuLspPP/0k2+Ft2d/fN1MqVwvnFgEEEEAAAQQQQAABBBCwWyCZTMr29rasrq7Kj69+lOHAsOiVRwb6B8z1RvXaoyznF3CdYng7LC+/e2lWPfg7Ozvn30u2gAACCCCAAAIIIIAAAgicQ0AvK7m8vCyFfEGCwaDcuXNH7ty+IwTTc6DWvNR1wVR7R7/59hv5/C+fm2uQ6vV9Bgc5r7TmmHEXAQQQQAABBBBAAAEE6ixQDaYrKysS2gpJd3e3zM7Mmgla61xKQzbnimAaj8clGAqabx5evnwpa2trkk6nGxKcnUIAAQQQQAABBBBAAAFvCminma7hcFi+/+F7E0qv/ttV0blwRkdHvblTLqnaFcE0FouZA/v111+bsduhUMglPJSBAAIIIIAAAggggAACCBwUiEaj8o/v/yG7u7ty9+5defThI4LpQaIz/+RYMNVrAuULefONgw7f/eGHH+RvX/xN9vb2zrwTvAABBBBAAAEEEEAAAQQQqJdAIpGQ169fm1V7UEeGR2R2dtacb6rnnDY3N9erlIZpx7FgqjNZrayumB7SpR+XzOy7+jsWBBBAAAEEEEAAAQQQQMArAjpj77Nvnkkul5Nr167J9WvXZWRkxCvlu6ZOR4OpXgrmiy+/EA2mkUjETLvsGhkKQQABBBBAAAEEEEAAAQROENja3pLcs5zpcPvkk0+kp6eHYHqC2VEPOxZMdSivfquQTCTNqvdLpdJRNfI7BBBAAAEEEEAAAQQQQMCVAjqUN5VOSWus1UzgWiwUXVmn24tyLJi2tbXJ5AeT5pIwo2Ojsri0KEtLS8zG6/Z3DPUhgAACCCCAAAIIIIDAO4Hh4WGZm50zl46ZnpqWwSEudfkO5wx3HAumfr9fJicnZXx83EyvnM/nRa8JxGViznD0eCoCCCCAAAIIIIAAAgg4KqATH/3qwa/kt5/+Vjo6OszqaEEebdyxYKozVelFaXVNZ9JmFiudkXd9fV12dneYndejbyjKRgABBBBAAAEEEECg0QU6OztlcHDQrLdv3zYdbnotU5b3F3AsmNaW3NvbKzfnb0pPd4+5HtCLFy8IprVA3EcAAQQQQAABBBBAAAHXCPT19cmtm7fk3t178sH1D2RifMI1tXm1EFcE077ePhNMdWy2zmKlF6p98fKFV02pGwEEEEAAAQQQQAABBBpYoBpM//D7P0h/f780NTU18N7WZ9dcEUx9Pp+5CK0O7x0dGZX79+6bGXo3NzdFVxYEEEAAAQQQQAABBBBAwEkBnbxVe0bHJ8bNREc6kasO6W1pcUWkcpLGkrZdpxgYDsiD+w9kYmJCnnz1RLK5LMN6LTnUbAQBBBBAAAEEEEAAAQTeV0CD6Y0bN2RhYUF09t2RkRHRCV1ZrBFwXTAd6B8QXWdmZiSZTMrGxobotYHa29vpIrfmmLMVBBBAAAEEEEAAAQQQOKWAv9UvXV1dEggEZGpqSh49fGQue3nKl/O0Uwq4LpjW1n3lyhX59Ue/lpnpGZmfm5fent7ah7mPAAIIIIAAAggggAACCNgqQCaxlffdxt0dTC9fMWFUh/PqCcY9vT3vCucOAggggAACCCCAAAIIIGC3wBUyid3EZvuuDaY6IdKlS5fMWhcJGkEAAQQQQAABBBBAAAEEagTIJDUYNt9lXmObgdk8AggggAACCCCAAAIIIIDA8QIE0+N9eBQBBBBAAAEEEEAAAQQQQMBmAYKpzcBsHgEEEEAAAQQQQAABBBBA4HgBgunxPjyKAAIIIIAAAggggAACCCBgs4Clkx+Vy2Wprlp39b7eOrGc1H7t46bG/6/fiVobuc1a50beT/YNAQQQQAABBBBAwL0CtZ9Ja+87UbHT7Tuxzye1aWkwLZVKEo1FZXdvV/KFvORyOcnn8lIql06qw5bHU+mUJFNJE5CPaqBQKMheZE/0VuvVWvXSNCzWC+xH9837wfots0UEEEAAAQQQQAABBE4WSGfSEk/E337uz7/97K8ZwIlFc5P5fJzPOdG8K9u0PphGo7K3vyepVEqKpaKUiiWp9KM6svMaOLPZ7C8G03zlDRnZj8ju/q55ntaqNbNYL6DHQVcWBBBAAAEEEEAAAQScEEin0yanRCIR0WBoskrl1olFe0z1s3GeYPqO35JgmslkDGwymZTgdlBCWyGJx+PvGnHDHQ3KGkT1TaBvSn1Dap1mrdScTmfcUGbD16DvC32/FIt8AdDwB5sdRAABBBBAAAEEHBbQjqpEMiH7kX3ZDm+/zSqhkMNVHWw+EU9INpM1YfngIxfrJ0uC6Zs3b2T5p2VZWV2RWCwm0XjUhA83UW5tbZk3pAaitbU1+fJ/v5RXr16ZWnX4sYZWFvsFNJRubm5Khi8C7MemBQQQQAABBBBA4IILJBIJWVxclO+++062trfMaYf62d9Ni3agaZ666KMLrQmmwTfy1dOv5OnTp2bMtn4z4bYhsfothPaUajBdXVs158G2tbWZQKr1OnUerJv+KOpRiw6X1uOgY/xZEEAAAQQQQAABBBCwU0BH62kw/ev//FVClZ5SM6+MQ+eV/tJ+FgtF8/k4l73Y55taEkxbWlqko6ND+i71/ZI3v0fgXwSmbkzJyOiI+Nv80tLc/C+P8wsEEEAAAQQQQAABBM4j0OpvlY7ODunp7fHEJKfT09MyNDQkPp/vPLvtyddaEkyvXr1qwsXtO7c9iUDRzgjoH93M1Iz5j6K1vdWZImgVAQQQQAABBBBAoGEFhgJD8uGHH0pvX6/ofDhuX8bGxkTDqXb8XbTFkj3WYDo7Nytt7W0XzY/9PYdAc6WXVIdT+/3+C/mt0DnoeCkCCCCAAAIIIIDAKQQCgYAJpXfu3vHE5EIaSPXzMcH0FAf3qKc0NzUbPA0YLAicRUDP79WVBQEEEEAAAQQQQAABuwS8FPR0UlavTMyqc8cU8tZ8lrekx1ThUsmUXPQTdu36Q2K7CCCAAAIIIIAAAggggIDbBLSDyaoQbUkwpdfLbW8R6kEAAQQQQAABBBBAAAEEvCPQ5J1SqRQBBBBAAAEEEEAAAQQQQKARBQimjXhU2ScEEEAAAQQQQAABBBBAwEMCJw7lLZfLlXHDerHXstmtTCYjmWxGisWih3aTUhFAAAEEEEAAAQQQQAABBOwW0Lyo552WSqUzNXViMNUNRmNR0QayuayZdSlfqDRUPltDZ6qKJyOAAAIIIIAAAggggAACCHhOQENpLB47c0fmqYNpeCdsGtAeVF2rPaiek6JgBBBAAAEEEEAAAQQQQAABWwRKpXIllBbMepYGjg2mz188N0lXQ2l4NyyJROIs2+a5CCCAAAIIIIAAAggggAACF1QgGAxJPB4/1bDeY4Ppn//7z1KuJN5EKiHJVJLrlF7QNxS7jQACCCCAAAIIIIAAAgicVUCH9IbD4VMFU19lWO7bWY2OaKWrq8v8Vs8z/XkI7xFP5FcIIIAAAggggAACCCCAAAII1AhohtRJc6sTIR0TPeXYYOrz+Wo2y10EEEAAAQQQQAABBBBAAAEE3k/guGB67FDe4174fqXwKgQQQAABBBBAAAEEEEAAAQQOCjQd/JGfEEAAAQQQQAABBBBAAAEEEKivAMG0vt60hgACCCCAAAIIIIAAAgggcEiAYHoIhB8RQAABBBBAAAEEEEAAAQTqK0Awra83rSGAAAIIIIAAAggggAACCBwSIJgeAuFHBBBAAAEEEEAAAQQQQACB+goQTOvrTWsIIIAAAggggAACCCCAAAKHBAimh0D4EdymaCYAAABFSURBVAEEEEAAAQQQQAABBBBAoL4CBNP6etMaAggggAACCCCAAAIIIIDAIQGC6SEQfkQAAQQQQAABBBBAAAEEEKivwP8BVPQtbdiIGLMAAAAASUVORK5CYII=;rotation=10;" parent="9" vertex="1">
                    <mxGeometry x="1184.201117318436" y="262.22222222222223" width="767.7770949720671" height="961.7877094972071" as="geometry"/>
                </mxCell>
                <mxCell id="10" value="" style="shape=image;verticalLabelPosition=bottom;verticalAlign=top;imageAspect=0;aspect=fixed;image=data:image/png,iVBORw0KGgoAAAANSUhEUgAAAbkAAADeBAMAAABS/GNNAAAAIVBMVEXf39////+AgIBISEhfX18AAICqqqrAwMAAAABVVVXY2NjOZp+7AAAAAW9yTlQBz6J3mgAAHzBJREFUeNrtXct/2ki2lrDHorWSwAGZFWBfW+2VsdJxOavgpNMkq+vp65nJrMDpATUr4fQgplZI4oqCVXuS7nb3Snb6uhj9lfeUABv8IMKxk9id88NYSPX69NWpc1SqB8fxnHT3PoHIaY6X766scfzX39492QnkL4Bu587KX9c4+auPXYgbkG1WL5W//njCXV7+55kgf5fvnbkX93ZkDv5XSjvb/3xXBh8X3VzaW20AuiF3+TPX7+3s7+yeQ5fY/hoOSv+7Hf3YAN6Bzom3eyPc7Ws70j3+z95/1eb/WvtW/nt8Z3tnJyds8ymgecf/pxz76+G9v6W2v72HVzL/ffiP5P/JHxvDBHRilByOcrdv/l2JJbfxwr2f/5zZja39CbgDqnLbufx+/h/L8eR27i9QM0sv7nmlTMaqxuZjHxvDBHTCQksa5S6/A+ig4m3e2ylt/6O4Dej+BugYvP18+k/37m3n7Hs7se0Xip8GdOk//fQpoxNJz+qNcJfZ+Z/YvdQ2/lMisZ/Zlbfu7WzXF0ql7Xw+n8mUY/P3ctslZUfO7EgSnM38ELv3KaNLdFMbo9y92Nn5885XO092/uenna932B8cv/h6YBjf7Hz1YucZhPqaBdyBq28gzCcr25LMy9ER7u6U/FkDORjh7k7J3wjI//4F0H2tffsVfH6Cv03278WLb3/a/Fb7Fo6CP7gLP22+gLNfwel+KDi1+SKI9Yl+XjD5Fjwx/lA68amHRzyrtuzhIfgDkYbX+f43yMf2/0M+I1TMuyrGZ3S3VvCdRveZu9srn7m7vfKZu9srn7m7vfKZu9srIbnDH7ucV5NT7uoTHpOS7Xr5Yqngy66cBqnSS6+Z9J3Rp8usXB8lYoS75OVRzPalwN+++yk29ujyaxtTPYx+9+7M5H8JF3FnJi5nuLbej0L7N4ae1lXcOOwf+JdX3ojVj43xMPLpzbWTg+jnKpV5Xh8MVRpcpCep0LPx9OqF3A3R+acRhnkadnAOeyI9QTcINVO9OJeRILXmMDUfUzwW0FjqozNM74LIeFiEYTkUYZjSSSr+2bxnVkcSOY+ulz65uDIsX5+7GUtlWCJtCrdxbQzdMSFrZ9EdD4AbVj+1BunOpWeao2UxnvRznSWd8duDo2uQB5x7yn6UBxejyQE/ZHDDTK8jmMfPR2Mq6ZHkz6HDvTzncaLH+R7nJAfn1oPkZwip+RwX66Y8qlhj6GhX5kSO43AQl0IoX1QGQAbojILcUqy4BSlznEhHucPR/CI7yySIy4lKDiL4prEuit4hEcfQ1Yj0XPIxC8i3JOHooRfkF4Y73Msg8pCQqKVGyMPBPbAD7pSW+h/SbpAmQoYy5K7YR9fanSOtRsHWUZoQ6tg91NTJGHeGyttRMkuceaeNkEv73PXLG83zPbJGyL+IE3OaiOwjqAo1VTSNVtIhc6R9Bl3iuEWeO7ZOLILSkeYXxG6g7oC7iXqHoxmSdNuKZqmHrdSwZgZlibdUveaQhOsc5E64G6BzNMXSdVcmBduKF9+Qxi9PlUFrMtA7hi5uLVhR9T4pNPuX8Al3h0hy7ceOrdI3kIPdZNypvuk5ic4PJTJoTQZ6VyOKS0rcG6LKdivenLd6maz62y80JHdJt6sgSz9sHQ/uQf9OK1ajj659VD3LXVti6Go1R9i1kr0cSqg/KlZ1lLtaUDP/ZfX0dAVJQ70bcmci2bYft2xVz3RQzG0qTO9k0XCSux2eJOg4d0nXTULl0hk6a6HZKwnHhedh9M7s5Rk7hWwHGcgeqMf6AJ2ud2y10HYK6eg4d8e2MNsiOjaQ2nZQwyb6Y3d+ULGHrYquuTGyCXeoZZOhQg+56zi61m5pjqPq9x0Sa0PtAL3T1jkn1kKlgjOGzigU3DadsYmqtZ14c6EJ0dXH7TDcmUfQRJVby9JuBR8VBzWzr3fH1bqYLc0tF/eWhWGDOLQIFWrspoHqSJbfW+Z2y4msYewKo+hMIThVPTZ2i3U6zp23m57LGpV6pQI5VMoC5FAxcT371C97uyvCXHpM78y5rFgx/WxFzdbKc5Xjqp+F6APrGJ1s7zD1sbCRMn1osYaF6HMH1hz7FD5waWhpo6f2zhfgJPbZx4cW7cRMGcPmG357zIr5J8YYDyyC2U+WZQ2HYM58FhdOQbrwNTSSUWEQzQvy83RuYOsg6xObOFIzL/FVxm3usM08uTpyPGOcHtPgBph01JlhxFjDaHCeBleHF41sciRucB6bpw7RyFdwdchdPwilPNxK8IAoPokFBapM5O4CMZ5f78uLG5XGKRPh/MwJrnw9hJM/zXPA5IeEEGHMxVN04bi7TWKoyWm5u0WC7zR3WE+eHt89dHeaO0M9RXcXuUueIr176HTh9Pjuoburehc4Y9dn7+gHK3g9lBO2KVwnd2+efBB5TM26VHl3cYyWENbeYf/dyeU/kGOcBHT9QnHiJHR2WO6wWWGhhk94HxddYsjdDGkJlxcn4C6U3hkFlME+/gH3n0HZEyl7dKPsP/t4Y+hQ8N2zTsozX5IzsvzLdXOnWHqN9UaKoidynMeNQw3PHdwCe67C6Su0DM+n+LjC1Q14cvaOi/UqHBoHNEDHyxwvSwE6Xo5b/WF0Ei/HapIty+ng1+nguvfgrl9K1rOjt3qk0o6uOPaMNt5DHHSQhNK7WoG3Z1AetRIaxMEE7TqOXmsRskHIfzodrsDQZdBBbhHFO66KLFQoKVbU6UJhCKop+/MkI9txQuJOE6HcNXEXd5xeiycx21Zfuy/V1+P1dBruZPsVsnq1yCZJmlRb7sFtO7RJft5KNDpE5IOaqeZrXx7Ubb4gt52CFbeisgN32krySk6GamrH3V5DdpBkvR+6E72D+6dnDknCtQt5/aFaXhaDLodBP43X17tTdJfrnZpwW3GrsdfIsO65FdSwdJW3ndSsFWtkdv3vgppZKuxairnQLMjdZqqmWIpM5MoAXbMI6OxGD9Cl3hPdqd7ZSC8aSLcI67DVs67vCDNN3Hg0yt1pzTQmtSoIWVHy1iFBzSw7jkLuOwKFmuk4HBrUzLyDXnXcA9lCKKiZTcBHSA3QoSZDp0PNJMn3565fyqOlb2axOfumVt7jnj1PPEnjp/TouflDdVTvQnCHaUUUKtjDYhmzLjdoVYqiKZrUoBhalcDpqe/LQRPSF/a/x58v2vs2KaPcGdBQUuxJAnvVkjI4ViJDML1BzQytd4E1H/YnmqwvElOM+516rJ4H8A7PFiP2/kguQSd73DuFt4Ub9TMnG//3kVdaCGmF5i6c1M1K/wNSr5tmJTiCwxExx39eQaDMj8Og+5ne0n6VEBWTC5zQO/t810f0uT/z1sqt1Lsw7yIqzKjfSu6MMK1KzLzO/sxre7lz7kXOOSmFsfqKeaX+zIuf+PH32ZuRpfO51eqBIYUj9n2JWdTxlfozj4k7iDMIbAY/V27G8WKu1znuaD/bCh2trmfudgNfSe+iOcTzosQJR2sGL4IXS79hqS2fFKfOnxyWrwHd+bLUgsElBkKPMHyng5fU+Ac6FgY3zCvZu2iuHNdyLnoYaUa0Zg89Pw7c8WU5ZvWL04PnOVkOBjrqTEWUzHVz1yfDXrAEw4+mRZMTTK4wPgrwqtyJxFWf2aRdgcdvm6gr7WDAIqBTa8dluZSAp9WEU5PTUjktK7Xkspyyr5u7gCaDZFMO8qIZHa0hkib2GHl9dNPbu5mSqmZXHcmMW72n2YRTDHo78TJQR0jbUvYZuhJ7Wi0AOnXRek/yLuCuXzMj6psOyvQy5LHdjmVUmameP2gFrq53baKX3VbSnGn2fmkVXrbn2F0L0LWqgC6jBDUT6o1SU2rkMaDLXzN3/fLbCy3ryAB0qeV2sqRG8B6UgpqrA3TmlfTO136LaRl4wDh6Lmg/zmpF80GATi7IzlNAlwd07kaA7lApETknd65b7wY1E33jEKOXV1GToEcN4qlVgwhftN+LO7B3BieAFcIC5uCxn5piX+8WLHvZKtgZoEq3ZDfutKBmKoShvRHu5spcvUqhGGXuuCIIVVo3MRiJ6nvp3SVSPHfP30vbJnInYCasP4WN5PJF32PfmI3ZYl9MjCtydxmlZ08YqekTCSc10T8Rz79YuJ55s+/NKzeF7i0JI/iWvjffWw4j9Ja+N8fiu+Vzv8otl7vN3a3sVwmP7vrsnX8zQk+zoNOW6fr0bu+Geh6ens7Y25oW3tTcGWNv37FgcP0scdY0+938ptl/f3BNUp2r4KCTyzTXp0Y3rd4d7a7Q036c49WjbL9DA99Yv8pctRD4HjY3PbppuesRV3B9TsQBZ7NdxenS4Ol1Ja7JckZe1PY051rRHVfmA3Rpui6Y08nUfqaHRPrN3PJqMsvmlkSa0QzhgzfLq8rv1jyREWmsideM7lAFcG4KX4G75HTc1VCSugohvfusryjSVPIotUgZd4rc0eOWbL1nJ9EF6EzIj5RA76blbmo/s0YYunVVD15uxhi6YEQHXlVkmyArZSmke93oBECXPJmjMw13p+jCtZkBd5uqym8x7rpKxuGG3LW0pJW8Ce5qDdIVzs7RCSFT2zsDCccM3Qxhs8Ai3SjJGQO9+8EiCYbuoXnd6MwkAYPgT18zp/ZV2Awrw2NTWll0wROFYBQcXl7Q5KepnJSb17RrRTdX5TjelMDiXUHvpuTuUrkxeye81jTtV/aif+qaeX1+5iHPc1IwUoQP83otvBwPh9VuPaVTlun6/MxgAhfzxcrlSqVcv7ZP5XSIgzhtmT4/391eudvcfZ4HdHvl+vozcX8S9fV/rorMvE69u6meh+Xz8EphnAA2omNae3c+q8HNxdm+oSuHm7o8xdxk4VyWtRB8XuUdEGUvNvGYVT0avC+7MU/s+Dx3/d4bjwu+L4HK3r1Oae8ibd+ndENgb8p8tnqPT9+6lI2ixStxeTmuyfsLh/e3ZuSHN4muzx1+pTF6Xg9WqjizXNBV3r1GunO7xUjHOF5OQlXE5UjWn2vTaDN4vrNbaLbtKBlCVNm9Ue76owKcRpPjsJ72OIHjPDV1Ht2UehdpKh1ngWRIYZE4aonED5qAboZNAVhVkOskm0TJKBn9ZtENRnS0EvuL62I0M6uVXmocGX9yvxp3SgZJXYkcbDpyI+NEtXaiLdSSAXd1G9DZakbZ17VrRHderwbc6SRiHxR7GbTotvTcwcoZdOb0etdV9lHSfeomXlp0jsDDeHfOpf9ZDfpVOFtLdi0C6FTpZrnrk/FNvNV6XYxmyLOf2zKvyqyB4eCB+j24i+4jDjUPyMsmW7BMJ21AN9A7uUVibQu4y9203gUsYUexrUaxl4fbbfdyasFQq4YjHLVH9e4UXQjuwHlggww80RepiT0qspEGfZMH6B7EkZyLl+KZhnyN3WIXcDeomU4NtcRG8S3JqMSftUW9ih161F/1Z8Ddac28iq9yMtJhZIzfNcvcJdyZh5LPS1AdPVnkZeqxQ8wNrfFA76biboIcBovuB/t5wYF0bXJBq1ITx2YkeJzIiR6c8kTx9GzvWser3NjI4cq5rIww/qk6vb37NKQXarwKvaXP5gYXpkabt7VfhYYMdyu5Cy23Uu9Cy93m7nbqXWh0d5q7z/2Zt1du5fjM8OjuuN4lT5HeOXR3m7vP9u72yh9a727pPhYn6CbqHRbOLrQhXJwKNT9JmcwdDuabjAhdvTAVxTIuhv2RZbKfOWvF06z/yedEj63cxbHtEExD9IZL/PvBEv+cYs08/NhILpLJfmas6yn7SD1wW+Sh4/RIO0qAvAhxFNIkZJc4c077gOQQyUWbU2f9IdBN9DMjzQBdN0UySgvpNTaGj01a/k6VbfuJbavFN+QgabcVy0tOmfGHQTdR72atRCOPVM5vpZTmXqNEYk0IoOREthkBQ6fnnQO2gYI1XIj+05LJ9m7OQa9aqCBSW4gAdyWSZKMyZzqkobU7WqulqjZBCZcUrE+0Zk7kzthb5rJmnQZ7AqzO4bK357Ou4LSQrbFVi+rcbqVOi5Hl6qfJ3Tv8TN/HHlvAn5qmxxb0D5bcwpwY7BzgD96eU0+kn6bZ/wP7mXg4ada7fPbspCsfUUJwd7S5+Vr79fXrX7Vf4cMG8G5usg/8Zz+0XzcvWsjr9bvX+nr9+pIIY+c3T09tbm5uatPIYMGASXp3lJHYyzGe84KXZFg0wTORJQjJc6ZBDZkzRwfm9L0xzE2qKxwWMfX40WgjEUbjcobEQvEcxRTzEj/VyNq6H4K7RfBKUJrtSUQipMut8ZqTIEQ0fWJLC6WI05E3RHwikSYFOXbEwRZi0NSw+XP0JAA0TVqim8jPIJdFEzAdRBiGirSC5BgOz54nawL1DhwpkReIo6OpxnzTgd6dxjnPnZ72wJy5CmpivWjHSazd+4Y4gkntRqbQjpFOnHCcJPKiAY6oFLcknxc9kuLZDCiDF/z7fjRj9tIQxJM8iWMzUWLNnq1YBY4TaweGJHmU80hSyZlfrLHVFEmKk4wDNivMh1CE43mi5Bp2kjjqdK0yHXB3WjPPcRdha4syV+S15emHkNF6M1JT8kHWbrNQi9ZQ3HrsrDr2gravo9+dVkLbOERQFp95o13vPnfQEWYyi05eJxEHbj74cm27p+cK89r6fDvmtJSSxiNJdejsfoOsHTrS601xpktZFnGrt4ceBBHYMApxKngDdJP8zCOdWCjpEjTjuDo+JMgqEFHZD9BpDiqBa4aaX/6qu2riV5vs3u/quk14iKFYpqFXWzyRGs9pNIfeuC1Fa6pF00DzroNUpxPTHuiH8U5BzxAZpaJdrFiq4fAk1jl4dIiEPneN+v2f2W5LKAfoyFRPIUPuJuhdRC/xg324ZODOibVzyn40B1m7SsdqMHSJ5uLrkvpjI2vHOvNWVP93lkPJttL0PZVPHZJUr4SV3EHWDSJUTRxVK01FzakR7UEvtwCOaolISFRyVLF03pGdeXupKDpCn7tGfXODsJ2qcoBdnmq8/lDvTmvmee5U0LvvmN65WT1rk3nb1tPRNYjbKUBpio0MaKLEKQ+IWrE7+qbVUH+D+59sNdailp5tcYAOpYG7LdtpvLbYToIRuEXKgXUAeueRODiqD4hMklGyBuktd4A7Vy/qOVaYluJ2OE4mermtwNVCdnkadPjd3B19XzW/0Iobs1lNi2j5rbnc4rrI9rbC2kbs0Sv8ytia2wCs8Ev75a12/ONbqj30lgRnU5x9FNEeGVuU3hf+k14q//ZKYxEgjxVh44vd9Evmrr6qP/2earvel9TT6FFe1x7hLX7xPveMsUQfxF4/oib+cj25MbP6e/p7bar5aUO9m8RdhprBWto82D1J5HyR4/pWDVpJ0aPQ4LF99NhyMlLKk3zRgId4kxPaEjXYCjNgDTEzjFywQaAQTIYCqwlXgsGUns95PlhODkJRzOm8SOGHZPbnCYt9e8eBhfQEyE26Qs2czN0qlF8UOXkwwIXN2PJYeDaJWOTYLoE8NPaUlWG42SAbDyNzPi/Rk/oRFJ4Ocgzstd9PA1LzJSlIClKFpCAum0rE9jOE2wABWDIsM98beABDF0vsb2TFSi2eojmRwc5lk/Uu3csgoVsgrwmB5tOJNRf2o2wsJgWVJ61eyYkSeDBnu9MRi5AicWikeUDaBVLtL28yGARFCaVV85h5R0dswWlcFoIeqfvN3i5xCiSHlCYbkGjrpEwgTRIlXcECE75AiADtLNi8ghKsOW8MVvWbcX0AsMcOe8G4sOoZeGG4S/fyKN1+SXSL1/mWM2+pNhgEuJkEaVZDt0icPO2CKa4VZNuO21YvHbGQLLjxR8gBA3+IikCNwNUORLARRw8P4RTYa85XM2wxbmnBUSrIhjZWVx9xPGuV521LUfP8QaodJWARysxBiXSVQq4QIw8g4lyLzRDD8DjNqRx+acCpSBeUh5LUhegm6d3v6WgGtdtSW+kW9artxFxX1x+Zb50HrQCd68hgjnqMO9PtzAC6DKA7pi4HaGYdG+w1uHL5A/6A0wmetRqkfUgkDflzUGijU58njZJSQpF2wk45jl4uQQ7thv5b6SAlOdH73fJhtGaac10wIQVel3S01sj3SPMg4QouR2xfrxGSjnRjjutFz1jDEG1mhKF77IJ1BmuuNQ+UdbDEefN3bcN+BuZL16E1T4CtBXRanqBdq1eKWQituqKpWGDRGrWYrar7SC4AWmEGLGQQobB2qEJzRdCsjTKQg9YUXVF7o6Ocw2y94jQPRJEUrMeEaxQH6FRe9V5u7jtS70sEzmHSBe4MvebMN2NdxSaCdMYLHeqdcDl3R4COKG0BfA8ZbK2iHluKnuGOllbseMfq6W8Zd2xXyJoq8WztMkU1oWYm28mqYh1ln840GboM4lnNrIJ1rgG6mL1XFVpsjq68YJFSj+3bmXSFrazOg7/AamZGRjJ2FTsXLTbSwVjsQoDuh6W0WuotIXCGkjavJhm6GEO3sctFuxfrXfJy7pjekTgkpdhvVEipNd+Mqq1NaPbhjI10kxW23d+N1XPibgs1HIs8+8VRHyoW9kDJZluFRRvxSPyCgIFvrHeYrVfTOnhzHnm2aB2kg50tBVsUeRV7RLVZDv9WH7tBDgZDRx31pU04FRucH7Ojj5G6xCLoxFNLRG1GulGXiGTcXtSHejeRu6PirrhCV+aWnuwZy17xePVob+kJNenyXGbpm0ht2c8KK5GKiXdNDKe+e5paMnafPP/h38JRMC1j1lzZw0/K/i41svQ43VhP4yz33ZaYZW1m9slyOoIhBwFygIZ/z8SRLXH1qL70JPGkGOQg7jEH4Lut1NKqvxsQkI3Ud2NbdYgw942/VyNZ/3hFXHpEn1+hzVyFJ01TMH1oJYMdILFgeGyxDDgjgAkH68Oxp7RgqoPPrCFYNo+tDzd4kjXAEvucz6wUG/TaqAnwHxIIjDkYNcEw+zmw0AYbvOdT7LFdfgWR5dBf8hOS44TBbAoR+54h+hABTJ4B7W6wIp1onjX1Q72b1GZe/E7kynL9K7dLl10I42deM7oPKLSPbqKfeevR3U3uwviZ1613H1D66O4od3dc7/4IbeZEP/P26t3QE5v43vyTfAESSvqcfR6feXvlDz1O7JbL5/GZt1f+kHqXvEpan54YF+odTvF3Q15eyB0KNffykxfkCBdwZy7f1BTdDywV8yLuPrabeE0yOqJ5hLs7KMadRneGu3qomm2a4ep/qNTCJhaqZGdGgJzhzuAk/t2fZClEIIkvS2ESS9TCpMWvhklLik3krhZqjYl4LlSwcBseKaVQwdrhEqtO4u6wX1ngU6/U6+X6hXW10nsU1KjKae26qA5ie+6kiR4GPV/BKr3qSGQW9MLEzPbYWTNI6FylrjTwBO7qwQo0Ph2+2jfqZwYH9xehmcnDV2XQjwFCTw8HwYLIJy8P6ydvuNl/4+QrkN5oFn75krFTfpuOpU8vDBUsQXI5dwG6uEVrSBShcMcOweZgrF6wVe9xmgV4+4g5q88eDWPNPD7T1XTEMveG6CIOMQAYG7qgNE3zVdX0zaPiMGx0BB1uEDtGksPcRss9hs4gibaIDdXCZ7iayF2AzkAObyDJhMIp1iz2fU/AHhuaKZqeErzujOYZOnldoB6jw3iTSEPh2c71ZrBpvbgZFGG4ZV7EUnK+H7zzilsm/ldVMLnecDw8jhZHSq3y2UOHDWRhgzb8S7mrkWRXwIJi+eNLip1FdwF3EVvPOiTKhh7ErcNGhiBiO2TZ6eik3SPsTrOaifXdH9dnn64vVk38zKcP3u5qW6/W19azP68v1u2n5kjNjNhqI4dUNvBfAXSNjIos1RmWdgyd7ok1J0XIjNPqaaOA8Bl033c1VFSsINGpuIu0VHW/oMoBOq9Xcg5ySVJTWkSVnQU2r8Rka4nhl9lH67GtHKRnPBFpeyb7gNPT/nr26drbzJepAF2yn2ispfb20SBBKEFJ3VhV8oNS4VG9M1RDrJF5S1my6+j16Ev/s9wtug5aY+PkRnzmcNyx4SNqUBjFiuglB6Xm3KRiHel8J95cgRBvg5oprT+IPV0DLcK/Jivd+aU0fknxg7mjh69KT9gAmlO9YwkiNRUkKPmNTFldU74Zqur5mgnoVl65B6nRxcLOcpd027F0gC45JXfd6JZDeqjfqvQcjSSPXWHWcVTPSRCmL329ww8a+tZaA279jJp+qS49xzo2G/reRm91Jpj2daJ33egTBxVYMzXjkGIjUzjozpDVC7jDPcfmSJKgt51OA7VHynmWu0SboHTUUjV3Us28gDtapV7ZFNjtB4vAlaGtgCbYqBcp02FhUDPNCq0L1ToNEq8Ix0EjDa1KZQ771aApO+EOGkCu7AdtpsmcJSyUfe9kEclR7sAiGNj0jiti2YBAo+UeQwc5GXMVgdbU8tjGmiG4M6ExDmaMmMEobtYYQrGxTxmAIMfA3plmf1B3EAPgD97AnCZ/wh0zKn5/53cc2NJgY/hhAcbQ4f5+8X4wb2W0nOPcsdsI1zF+6Y+dfgd3h2GeoLyZjM+2aBs5MzL/4uSAd1MXRT77O1oLkyfXFC86zY+f9XoTueOXw3jirzZCufWb9TDBGiuhErPDJWZO4k7/2L0i7ysTucPXu5j8hxc6ibuQQkOFCjmZ4FoTOxPpTvc83P1+lY9dhpsTb42TvffW5U9V+DVucaopfLdLmv8PBiqcfdwuEsEAAAAASUVORK5CYII=;rotation=-30;" parent="9" vertex="1">
                    <mxGeometry x="-78.14525139664806" y="393.33333333333326" width="1325.4636871508383" height="667.2402234636872" as="geometry"/>
                </mxCell>
                <mxCell id="8" value="" style="shape=image;verticalLabelPosition=bottom;verticalAlign=top;imageAspect=0;aspect=fixed;image=data:image/png,iVBORw0KGgoAAAANSUhEUgAAAnAAAAGZBAMAAAD7nhFHAAAAKlBMVEXW09YAAADv6++MjowAAIT//wAA//8A/wD////Oz86cmpxaXVrW19ZSVVIh05Q1AAAAAW9yTlQBz6J3mgAADjdJREFUeNrtnUuS27oZRts3GzCq2g6GeazAdVfgKqWiqQdZQA+ijL0EVPUAuUnmTq/glreQDdxBMs8kewkB/HgQJEXqE0mJ1HfaVlMgiMchHqQtiE9PBOHd0w+/IwCfnn649bnbJhQH4sQdyMVQHAjFDZAmgd/mrSJQxH1WSh3klXh+k8ayvFUEirg/fPnwpRH34U8UF5km7rM6/eX58PXEFpeYJu6gPr58+fzx5LxZa91r2jocjq/hfZdjjDJCE+21eFe85ghnj76tOOV43yuuaXJ/Vr7BNZZElGydFRejjIkbSmAsHRfa2jkpuwXFvXv/9KQKcU2TO6kX9RyLebSvE8UdprQGO1LjOxf33v0Wccr9KcQdmlHOeYuurJRWSt5U3f/YV7ej6TpH333CHr8d/r5KtLBpwxmI4qwca32ordJpXpqfcFxMy28dJQVJNyZddv71xD2p903ba4n7ePrqxB1kiBMXwaK1Iq4prq94U8PcGGyo8+vxNfr1m+mtiJP3x1cbo6V0DtZGcXJ4iPyadro/ZS6+ILcQ906pp5a4r+r04Vk8iTi/dWi1uFBdK1XzSqO40KiSkfT2UIk7FK8iImRVuC822jsP5em5ibgn1+AKcb8+vXw8fZEW9nqUabAc41rqUjVCD/KdpyPOWlt21WNot4fUVUtx7UZbiUtObU7mVuKqFvf544tSp5dn6X35ZZK4VLm6xUlrSy0uveumMyxOxgObBR5uKK4a4z6cXlRzHfdViumrVos7Dosra32UCldjXGqQ1RhXirP1GNcWV4+kC4tr2pYam1U/n07qOdw+HHKHsjY3HSvzoYxxNovznSfPqiFaPav6nt87q8bxPxxTzarFhbgvhMytryuLG76O+6O/vW9evixamHFSd+7fsyLTbrkaZc938a8jw+LWvuuaeK96LwyKW/hyt8vvfxQ+5a0i8N7E3Q+qhyKQ4lAoDoT/PYjixClyMV6ctuRCDMVhUBwIxYFQHEgS988O3+z0UEez46994d9uXce1xf1sp4c2vA2J+/nWdVxZ3Fuvov5Qx/cBcW+PJu57r6L+UOdnSNz33Ytr7/hJFE0JdXwP4r7V4T9R3HCog+JaFaa4IVrijFLaWF0pcqHNq212laE+qE+ctiG8TGd/tMXZusI51IuqxRU8vDjXjFwLq8SpJrwJLrqq9j+uibqfWlwTVxujH0uc6bSt5q+qumoQ10TtFWd8OvmI/VGPcX3ilBIRveJsGBazOJXjP4w4G1pc46/T4jrimqYWotbidA5/NHFux0RxzYZu6HZV+5DipoxxaSzz0R98jLO9s6q7jlNeREeci9on7sFm1ZIZ7hyKLr8/KA6E4kB4kw9SiPteERRNC3V4cW/d8L2Le+tVNDE0iesJ37u43gpPDY3i+ozuXNxbb4WnhkZxfeE7F0cug+JAKA6E4kAoDsTwo6wgXtytT98WoTgQigOhOBCKA6E4EIoDoTgQigOhOBCKA6E4EIoDoTgQigOhOBCKA6E4EIoDoTgQigOhOBCKA6E4EIoDoTgQigOhOBCKA6E4EIoDoTgQigOhOBCKA6E4EIoDoTgQigOhOBCKA6E4EIoDoTgQigOhOBCKA6E4EIoDoTgQigOhOBCKA6E4EIoDoTgQigMZFOe+DDi+juK/+2Va1F6MT6AnuLtVH3dprn35IMwo7gpzQZzqBne3OodNLKEuSjq4d31xGsu95aXrYEycexrAxAYkaRv3Ldrdgt5WnMH7QDj00k5k/DNhLhLns9iduEsT8PEvFKftauJcydxfpZvTpURRONepn2RxStqOmIjlDOmoNJybIp1CnI57QgpG5byK5NpHlTkYaVEqJhJiKRvHwjTU6Vg5f6zKORfVnEucSiO4kmqloTmJy3t0+lVUq4qQBmpREGqSDy0PaB0Ujyo0yLFljHioKcSVZ9qPd0qJuDL5CVPvJeLciTAhJPzSdQ8wIYKPatOvXK12BHnTEtc61KQ4pkhOpaZWnreQg8SQY+RXLERo4/lM+f0mndsiZ21Gm9ywuHiJkbtqz69Y4yJu0NmOKlJtO4JJFSrElYfmON3kREN7MEiGW8fEKLGk0liLEuTRpMxldnFVU0yRw07XMbINaZUSvb2nc7UhQWmPSY0rbuXkUinb9Y4xpBQphXSEUXFmNUXTbR18pThd+SlTNKoSp23quWFEmSYuFu+cuDh+9ooLfe8ScdLB41jQqubi4tpNMUaWsTaUp6pHLS6k0J0cZE8WlyeHfnHpfE0XZyXBYnqKM8vC4vwg3BUXmlqa0CaIS2f8jLjUugfE2cvFmSwuXo+sI64YfGtxKTuTut1QV81nv7iOM60WmEbQfnHpdbK44kI7XXEUtSlqvIw4PSIuRBgVlxNIrx1xJvXTJcRVdZtfnKrFmX5xRSeoLi107HdFTWtxxTjfuhzpXJXEwsULi5RD/+VIKU7n49riuoW+VlwYeaquqobEFRe38ZLS5OjFBXDeym1A2/ahOcXyAlhnDSrVX525AM7VsWFK0tFhLEGZ84zilOpMDnHwr8Sl+ba689K5AvluLca2cbZQ1rYPLVOs7+BiYq0c+m+5orGUUS5zOiIVekZx0qlalyPa9IuTAqryVl46b+yUcTKz6WK0VR+5KWrdoab5VduWOJvFhxwGbvJzUXKWaVJNKceDrxS3QUypZGpkFIoDeVhxkyKd4VHFXfWfco7HFXdlZnsStyoUB0JxIBQHQnEgFAdCcSAUB0JxIBQHQnEgFAdCcSAUB0JxIBQHQnEgFAdCcSAUB0JxIBQHQnEgFAdCcSAUB0JxIBQHQnEgFAdCcSAUB0JxIBQHQnEgFAdCcSAUB0JxIBQHQnEgFAdCcSBXifvbv+ZD39rEquJmLIi+tYkLuU7c3/89F7+Miruz5n0v4v47Lu76yiZuL+6XmWryjwni1mzeFAc2732JWzGzcSgOhOJAKA5kbnHnvpbC2MELAYrTXk8/w3sozrUo/1ViWpvwBU/NhvEByhqjw07TKTggzhRnosksHF9+ncjgebpbcaYps3LGmt/auB8X4DetBC4kzky6KbhrcclRsCQb4qxbblScfGOZVlorKyZ9ew/Zybe36Yszu5E4pSpxLqAQN19XzakqfzqUt2klO93fwO9XnLVtcaZqcXaWrqrC6bDSvkM7VjEz6b7h3SbEiac0nIk4lcTNOcaF77wsxEl7byaiYMx/j6a+OLP1xcWvsfRVkVnVBbgxKNRl1llV23SawnYcRJM4iXr34rro1q8Brh/jCnEmXBRta4zraltUXJg3m1atQ0byvaoibkuzak36KsrZxeFsQtx8daE4sC4UB9aF4sC6UBxYl32J+8//ZuLRxM3l7dHEzVQTx2hdVm3eC4szaj4miFuxeS8sblX29NmRVVm1ee9J3J1BcSAUB0JxIBQHQnEgFAdCcSAUB0JxIBQHQnEgFAdCcSAUB0JxINtZ6LurZZfX558YF7dmZuPcy3rVCQt9d7XscsWVkFx22cfDfQRixbpQHFgXigPrQnFgXSgOrMvexZ17jroZvPK8Ulz1oQalzbmU7lLc2YWPw9W5Ulx7ebE5u6b4TsX5IslCX7ew14T1vWFLaS1rfhcQF3Py2TRtbjjBuxWXFvrKykdt0hrIuOZ3AXExJ8lGX9W8byeuWnbpS1qEzSxOKZ1ziudp2+KUCssuXR9aTpzOOamYzXCCmxCnw1tbdtVlxOm0qjf004111bTw0RRDTjXGLSWu3VU3Ji4tfHRFl1k1dlVjZFZdZIyLOan43RMbE1dgJiYzrS57v3MooDiwLhR3F3WhOLAuFAfWheLAulAcWJd9iVtxJeSell2uvNB3xcyWFnd9/olxcWtmNs52Fvpy2eU+oDgQigOhOBCKA6E4EIoDoTgQigOhOBCKA6E4EIoDoTgQigOhOJDtLLu8Mzb0T+f3dZbuZfXghGWXa56l7YjjY0Ix+JjQJcWtmNk4FAdCcSAUB0JxIAuIU8XKy74S9oVRXCVGj+y/oC5nxKVPg/Q/nw/IbJyFxMVVl3FBiHFLXsLCSNO3EvjKFnfB59vvXFxadRlXCWlVLIxcQpzWYU2NvDQl2Jw4VT4ltL0SUvc9fHIecfJkUFW8bE2cK1VbXHwEqlpQXMy1OEObF2fS+kG7pLiwIHYP4nRH3KItTm+9xaUxLs6qYTmpiQsjl5lVO+K2N8YVtRHGyzlPVzVZ3BZn1aI21cYwC9w57EDchGLOLm6LYxzC/C3uzEfyKW65zMahOBCKA6E4kC0tu9yTuFWXXa54lpYWd33+iQniVjxLC4tbdSXknj47sipcr7oPKA6E4kAoDoTiQCgOhOJAKA6E4kAoDoTiQCgOhOJAKA5kO6sHd7UI7vr8E+Pi1sxsnHtZBMeHNi62Lo2L4Pp4uP9XXbEuFAfWheLAulAcWBeKA+vyIOLcR8/9MkJZSug/WDpc3mvF1f/HvL0HmkW0jc/okqfANa9msYc2Vk9t3IM4HRubXlycLKOIq+H2Ic7ENRwLitP5kZAbfPZgJI5xK4kLY1x6ztyGxWnbbnFhnlhMnPZ5yKKaPYnT9vyDFOcQ543tRpxJmxQ3qS7Vddwa4owycTXchmfVC5nrzmHStxpQXJdJRiiuw7Sv0aC45TIbh+JAKA6E4kAoDmRLqwd3tAiOD20ExV2ff2Jc3JqZjbOd1YNcBLcPKA6E4kAoDoTiQCgOhOJAKA6E4kAoDoTiQCgOhOJAKA6E4kAoDoTiQCgOhOJAKA6E4kAoDoTiQCgOhOJAKA6E4kAoDoTiQCgOhOJAKA6E4kAoDoTiQCgOhOJAKA6E4kAoDoTiQCgOhOJAKA6E4kC8OAJAcSCfnn71IwH49DTjAtqH4v8iaIz70K95LAAAAABJRU5ErkJggg==" parent="9" vertex="1">
                    <mxGeometry x="595.1061452513968" y="819.4444444444443" width="853.5865921787711" height="559.4899441340783" as="geometry"/>
                </mxCell>
            </root>
        </mxGraphModel>
    </diagram>
</mxfile>